<svg width="799" height="242" viewBox="0 0 799 242" fill="none" xmlns="http://www.w3.org/2000/svg">
<path d="M554.202 85L230.202 85L230.202 183H554.202V85Z" fill="#4D4D4D" fill-opacity="0.5"/>
<path d="M214.202 34L0.202148 34L0.202148 183L214.202 183L214.202 34Z" fill="#ECECEC" fill-opacity="0.5"/>
<path d="M798.403 183.201L0 183.201L0 222.392L798.403 222.392V183.201Z" fill="#808080" fill-opacity="0.5"/>
<path d="M200 222L0 222L0 242L200 242V222Z" fill="#808080" fill-opacity="0.5"/>
<path d="M798 222H598V242H798V222Z" fill="#808080" fill-opacity="0.5"/>
<path d="M798.202 73L534.202 73V183H798.202V73Z" fill="#ECECEC" fill-opacity="0.5"/>
<path d="M798.202 34L214.202 34L214.202 73L798.202 73V34Z" fill="#ECECEC" fill-opacity="0.5"/>
<path d="M587.553 183L587.553 72Z" fill="#666666"/>
<path d="M587.553 183L587.553 72" stroke="#4D4D4D" stroke-width="0.23" stroke-miterlimit="5"/>
<path d="M287.244 0L0 0L0 34L41.6738 34L287.244 0Z" fill="#0081CC"/>
<path d="M287.244 0L0 0L0 34L41.6738 34L287.244 0Z" fill="#454545"/>
<path d="M798.404 0L287.126 0L38.4502 34L224.221 34L295.837 34L798.404 34V0Z" fill="#3F3F46" fill-opacity="0.8"/>
<path d="M732.456 6H677.369H656C653.791 6 652 7.79086 652 10V13.6364V26C652 28.2091 653.791 30 656 30H756C758.209 30 760 28.2091 760 26V13.6364V10C760 7.79086 758.209 6 756 6H732.456Z" fill="#3F3F46" stroke="#A1A1A1" stroke-opacity="0.5"/>
<mask id="path-13-outside-1_268_5712" maskUnits="userSpaceOnUse" x="690.412" y="7.95557" width="29" height="18" fill="black">
<rect fill="white" x="690.412" y="7.95557" width="29" height="18"/>
<path d="M702.175 15.3931H699.686C699.641 15.0711 699.548 14.7851 699.408 14.5351C699.268 14.2813 699.088 14.0654 698.868 13.8874C698.648 13.7094 698.395 13.573 698.107 13.4783C697.823 13.3836 697.514 13.3362 697.181 13.3362C696.578 13.3362 696.054 13.4859 695.607 13.7851C695.16 14.0806 694.813 14.5124 694.567 15.0806C694.321 15.645 694.198 16.3306 694.198 17.1374C694.198 17.9669 694.321 18.6639 694.567 19.2283C694.817 19.7927 695.165 20.2188 695.612 20.5067C696.059 20.7946 696.576 20.9385 697.164 20.9385C697.493 20.9385 697.798 20.895 698.078 20.8078C698.362 20.7207 698.614 20.5938 698.834 20.4272C699.054 20.2567 699.236 20.0503 699.379 19.8078C699.527 19.5654 699.629 19.2889 699.686 18.9783L702.175 18.9897C702.111 19.5237 701.95 20.0389 701.692 20.5351C701.438 21.0275 701.095 21.4688 700.664 21.859C700.235 22.2453 699.724 22.5522 699.129 22.7794C698.539 23.0029 697.87 23.1147 697.124 23.1147C696.086 23.1147 695.158 22.8798 694.34 22.4101C693.525 21.9404 692.881 21.2605 692.408 20.3703C691.938 19.4802 691.703 18.4025 691.703 17.1374C691.703 15.8684 691.942 14.7889 692.419 13.8987C692.896 13.0086 693.544 12.3306 694.362 11.8647C695.181 11.395 696.101 11.1601 697.124 11.1601C697.798 11.1601 698.423 11.2548 698.999 11.4442C699.578 11.6336 700.092 11.9101 700.539 12.2737C700.985 12.6336 701.349 13.0749 701.629 13.5976C701.914 14.1203 702.095 14.7188 702.175 15.3931ZM710.736 12.8596H718V24.2836H716.288V14.5716H712.384V24.3956H710.736V12.8596ZM711.536 17.1796H717.008V18.8756H711.536V17.1796ZM711.536 21.7396H717.008V23.4516H711.536V21.7396ZM713.408 9.35557H715.168V13.5956H715.12V22.7476H713.472V13.5956H713.408V9.35557ZM703.568 10.9076H710.256V12.5556H703.568V10.9076ZM703.392 20.1716H710.448V21.8516H703.392V20.1716ZM706.08 9.37157H707.792V14.0436H706.08V9.37157ZM706.272 14.0596H707.568V18.5076H707.792V24.3796H706.08V18.5076H706.272V14.0596ZM705.296 16.9396V17.8836H708.592V16.9396H705.296ZM705.296 14.7476V15.6756H708.592V14.7476H705.296ZM703.92 13.4036H710.032V19.2276H703.92V13.4036Z"/>
</mask>
<path d="M702.175 15.3931H699.686C699.641 15.0711 699.548 14.7851 699.408 14.5351C699.268 14.2813 699.088 14.0654 698.868 13.8874C698.648 13.7094 698.395 13.573 698.107 13.4783C697.823 13.3836 697.514 13.3362 697.181 13.3362C696.578 13.3362 696.054 13.4859 695.607 13.7851C695.16 14.0806 694.813 14.5124 694.567 15.0806C694.321 15.645 694.198 16.3306 694.198 17.1374C694.198 17.9669 694.321 18.6639 694.567 19.2283C694.817 19.7927 695.165 20.2188 695.612 20.5067C696.059 20.7946 696.576 20.9385 697.164 20.9385C697.493 20.9385 697.798 20.895 698.078 20.8078C698.362 20.7207 698.614 20.5938 698.834 20.4272C699.054 20.2567 699.236 20.0503 699.379 19.8078C699.527 19.5654 699.629 19.2889 699.686 18.9783L702.175 18.9897C702.111 19.5237 701.95 20.0389 701.692 20.5351C701.438 21.0275 701.095 21.4688 700.664 21.859C700.235 22.2453 699.724 22.5522 699.129 22.7794C698.539 23.0029 697.87 23.1147 697.124 23.1147C696.086 23.1147 695.158 22.8798 694.34 22.4101C693.525 21.9404 692.881 21.2605 692.408 20.3703C691.938 19.4802 691.703 18.4025 691.703 17.1374C691.703 15.8684 691.942 14.7889 692.419 13.8987C692.896 13.0086 693.544 12.3306 694.362 11.8647C695.181 11.395 696.101 11.1601 697.124 11.1601C697.798 11.1601 698.423 11.2548 698.999 11.4442C699.578 11.6336 700.092 11.9101 700.539 12.2737C700.985 12.6336 701.349 13.0749 701.629 13.5976C701.914 14.1203 702.095 14.7188 702.175 15.3931ZM710.736 12.8596H718V24.2836H716.288V14.5716H712.384V24.3956H710.736V12.8596ZM711.536 17.1796H717.008V18.8756H711.536V17.1796ZM711.536 21.7396H717.008V23.4516H711.536V21.7396ZM713.408 9.35557H715.168V13.5956H715.12V22.7476H713.472V13.5956H713.408V9.35557ZM703.568 10.9076H710.256V12.5556H703.568V10.9076ZM703.392 20.1716H710.448V21.8516H703.392V20.1716ZM706.08 9.37157H707.792V14.0436H706.08V9.37157ZM706.272 14.0596H707.568V18.5076H707.792V24.3796H706.08V18.5076H706.272V14.0596ZM705.296 16.9396V17.8836H708.592V16.9396H705.296ZM705.296 14.7476V15.6756H708.592V14.7476H705.296ZM703.92 13.4036H710.032V19.2276H703.92V13.4036Z" fill="#FAFAFA"/>
<path d="M702.175 15.3931V16.3931H703.3L703.168 15.2759L702.175 15.3931ZM699.686 15.3931L698.696 15.5329L698.818 16.3931H699.686V15.3931ZM699.408 14.5351L698.532 15.0185L698.536 15.0241L699.408 14.5351ZM698.868 13.8874L698.238 14.6643L698.238 14.6643L698.868 13.8874ZM698.107 13.4783L697.79 14.427L697.794 14.4282L698.107 13.4783ZM695.607 13.7851L696.158 14.6193L696.163 14.6161L695.607 13.7851ZM694.567 15.0806L695.484 15.4804L695.484 15.4782L694.567 15.0806ZM694.567 19.2283L693.65 19.6282L693.653 19.6333L694.567 19.2283ZM695.612 20.5067L695.071 21.3474H695.071L695.612 20.5067ZM698.078 20.8078L697.785 19.8518L697.781 19.8529L698.078 20.8078ZM698.834 20.4272L699.438 21.2239L699.447 21.2172L698.834 20.4272ZM699.379 19.8078L698.525 19.2874L698.52 19.2973L699.379 19.8078ZM699.686 18.9783L699.691 17.9783L698.853 17.9745L698.703 18.7984L699.686 18.9783ZM702.175 18.9897L703.168 19.1094L703.302 17.9948L702.179 17.9897L702.175 18.9897ZM701.692 20.5351L700.804 20.0744L700.803 20.077L701.692 20.5351ZM700.664 21.859L701.334 22.6013L701.334 22.601L700.664 21.859ZM699.129 22.7794L699.483 23.7148L699.486 23.7135L699.129 22.7794ZM694.34 22.4101L693.84 23.2764L693.842 23.2774L694.34 22.4101ZM692.408 20.3703L691.523 20.837L691.525 20.84L692.408 20.3703ZM692.419 13.8987L693.301 14.3713L693.301 14.3713L692.419 13.8987ZM694.362 11.8647L694.857 12.7336L694.86 12.7319L694.362 11.8647ZM698.999 11.4442L698.686 12.3941L698.688 12.3947L698.999 11.4442ZM700.539 12.2737L699.907 13.0495L699.911 13.0527L700.539 12.2737ZM701.629 13.5976L700.748 14.0702L700.751 14.0751L701.629 13.5976ZM702.175 15.3931V14.3931H699.686V15.3931V16.3931H702.175V15.3931ZM699.686 15.3931L700.676 15.2533C700.616 14.825 700.488 14.4177 700.28 14.0461L699.408 14.5351L698.536 15.0241C698.608 15.1525 698.666 15.3172 698.696 15.5329L699.686 15.3931ZM699.408 14.5351L700.283 14.0517C700.082 13.6881 699.82 13.3716 699.498 13.1105L698.868 13.8874L698.238 14.6643C698.356 14.7592 698.453 14.8746 698.532 15.0185L699.408 14.5351ZM698.868 13.8874L699.498 13.1105C699.177 12.8507 698.814 12.6583 698.419 12.5284L698.107 13.4783L697.794 14.4282C697.975 14.4877 698.12 14.5681 698.238 14.6643L698.868 13.8874ZM698.107 13.4783L698.423 12.5296C698.026 12.3973 697.609 12.3362 697.181 12.3362V13.3362V14.3362C697.418 14.3362 697.619 14.3699 697.79 14.427L698.107 13.4783ZM697.181 13.3362V12.3362C696.405 12.3362 695.681 12.5318 695.05 12.9541L695.607 13.7851L696.163 14.6161C696.426 14.44 696.752 14.3362 697.181 14.3362V13.3362ZM695.607 13.7851L695.055 12.9509C694.422 13.3692 693.96 13.9652 693.649 14.683L694.567 15.0806L695.484 15.4782C695.666 15.0596 695.897 14.792 696.158 14.6193L695.607 13.7851ZM694.567 15.0806L693.65 14.6807C693.335 15.4039 693.198 16.2337 693.198 17.1374H694.198H695.198C695.198 16.4275 695.307 15.8861 695.484 15.4804L694.567 15.0806ZM694.198 17.1374H693.198C693.198 18.0594 693.334 18.902 693.65 19.6281L694.567 19.2283L695.484 18.8284C695.308 18.4258 695.198 17.8744 695.198 17.1374H694.198ZM694.567 19.2283L693.653 19.6333C693.969 20.3468 694.435 20.9376 695.071 21.3474L695.612 20.5067L696.154 19.666C695.896 19.5 695.665 19.2386 695.481 18.8233L694.567 19.2283ZM695.612 20.5067L695.071 21.3474C695.696 21.75 696.405 21.9385 697.164 21.9385V20.9385V19.9385C696.748 19.9385 696.423 19.8392 696.154 19.666L695.612 20.5067ZM697.164 20.9385V21.9385C697.582 21.9385 697.988 21.8832 698.375 21.7628L698.078 20.8078L697.781 19.8529C697.608 19.9067 697.405 19.9385 697.164 19.9385V20.9385ZM698.078 20.8078L698.371 21.7639C698.759 21.645 699.118 21.4668 699.438 21.2238L698.834 20.4272L698.23 19.6305C698.11 19.7208 697.966 19.7964 697.785 19.8518L698.078 20.8078ZM698.834 20.4272L699.447 21.2172C699.767 20.9688 700.032 20.6671 700.239 20.3184L699.379 19.8078L698.52 19.2973C698.439 19.4334 698.34 19.5446 698.221 19.6371L698.834 20.4272ZM699.379 19.8078L700.233 20.3282C700.452 19.9701 700.594 19.5758 700.67 19.1582L699.686 18.9783L698.703 18.7984C698.665 19.002 698.603 19.1607 698.525 19.2875L699.379 19.8078ZM699.686 18.9783L699.682 19.9783L702.17 19.9896L702.175 18.9897L702.179 17.9897L699.691 17.9783L699.686 18.9783ZM702.175 18.9897L701.182 18.87C701.133 19.2803 701.009 19.6804 700.804 20.0744L701.692 20.5351L702.579 20.9958C702.89 20.3974 703.088 19.7672 703.168 19.1094L702.175 18.9897ZM701.692 20.5351L700.803 20.077C700.607 20.4571 700.34 20.8034 699.993 21.117L700.664 21.859L701.334 22.601C701.851 22.1342 702.269 21.598 702.581 20.9932L701.692 20.5351ZM700.664 21.859L699.993 21.1167C699.666 21.4121 699.264 21.6575 698.772 21.8453L699.129 22.7794L699.486 23.7135C700.184 23.4468 700.805 23.0785 701.334 22.6013L700.664 21.859ZM699.129 22.7794L698.776 21.8441C698.316 22.0178 697.771 22.1147 697.124 22.1147V23.1147V24.1147C697.969 24.1147 698.761 23.988 699.483 23.7148L699.129 22.7794ZM697.124 23.1147V22.1147C696.243 22.1147 695.489 21.9171 694.838 21.5429L694.34 22.4101L693.842 23.2774C694.826 23.8426 695.929 24.1147 697.124 24.1147V23.1147ZM694.34 22.4101L694.839 21.5439C694.199 21.1747 693.683 20.6378 693.291 19.9007L692.408 20.3703L691.525 20.84C692.08 21.8831 692.851 22.7062 693.84 23.2764L694.34 22.4101ZM692.408 20.3703L693.292 19.9037C692.916 19.1897 692.703 18.2808 692.703 17.1374H691.703H690.703C690.703 18.5243 690.961 19.7707 691.523 20.837L692.408 20.3703ZM691.703 17.1374H692.703C692.703 15.9919 692.919 15.0835 693.301 14.3713L692.419 13.8987L691.538 13.4262C690.965 14.4943 690.703 15.745 690.703 17.1374H691.703ZM692.419 13.8987L693.301 14.3713C693.696 13.6344 694.215 13.0996 694.857 12.7336L694.362 11.8647L693.868 10.9957C692.874 11.5615 692.097 12.3828 691.538 13.4262L692.419 13.8987ZM694.362 11.8647L694.86 12.7319C695.514 12.3564 696.261 12.1601 697.124 12.1601V11.1601V10.1601C695.941 10.1601 694.847 10.4335 693.865 10.9974L694.362 11.8647ZM697.124 11.1601V12.1601C697.704 12.1601 698.222 12.2414 698.686 12.3941L698.999 11.4442L699.311 10.4943C698.624 10.2682 697.892 10.1601 697.124 10.1601V11.1601ZM698.999 11.4442L698.688 12.3947C699.158 12.5482 699.561 12.7677 699.907 13.0495L700.539 12.2737L701.17 11.498C700.622 11.0525 699.999 10.7189 699.309 10.4937L698.999 11.4442ZM700.539 12.2737L699.911 13.0527C700.25 13.3256 700.529 13.6615 700.748 14.0702L701.629 13.5976L702.511 13.125C702.169 12.4883 701.721 11.9416 701.166 11.4948L700.539 12.2737ZM701.629 13.5976L700.751 14.0751C700.966 14.4715 701.115 14.9446 701.182 15.5102L702.175 15.3931L703.168 15.2759C703.076 14.493 702.861 13.7692 702.508 13.1201L701.629 13.5976ZM710.736 12.8596V11.8596H709.736V12.8596H710.736ZM718 12.8596H719V11.8596H718V12.8596ZM718 24.2836V25.2836H719V24.2836H718ZM716.288 24.2836H715.288V25.2836H716.288V24.2836ZM716.288 14.5716H717.288V13.5716H716.288V14.5716ZM712.384 14.5716V13.5716H711.384V14.5716H712.384ZM712.384 24.3956V25.3956H713.384V24.3956H712.384ZM710.736 24.3956H709.736V25.3956H710.736V24.3956ZM711.536 17.1796V16.1796H710.536V17.1796H711.536ZM717.008 17.1796H718.008V16.1796H717.008V17.1796ZM717.008 18.8756V19.8756H718.008V18.8756H717.008ZM711.536 18.8756H710.536V19.8756H711.536V18.8756ZM711.536 21.7396V20.7396H710.536V21.7396H711.536ZM717.008 21.7396H718.008V20.7396H717.008V21.7396ZM717.008 23.4516V24.4516H718.008V23.4516H717.008ZM711.536 23.4516H710.536V24.4516H711.536V23.4516ZM713.408 9.35557V8.35557H712.408V9.35557H713.408ZM715.168 9.35557H716.168V8.35557H715.168V9.35557ZM715.168 13.5956V14.5956H716.168V13.5956H715.168ZM715.12 13.5956V12.5956H714.12V13.5956H715.12ZM715.12 22.7476V23.7476H716.12V22.7476H715.12ZM713.472 22.7476H712.472V23.7476H713.472V22.7476ZM713.472 13.5956H714.472V12.5956H713.472V13.5956ZM713.408 13.5956H712.408V14.5956H713.408V13.5956ZM703.568 10.9076V9.90757H702.568V10.9076H703.568ZM710.256 10.9076H711.256V9.90757H710.256V10.9076ZM710.256 12.5556V13.5556H711.256V12.5556H710.256ZM703.568 12.5556H702.568V13.5556H703.568V12.5556ZM703.392 20.1716V19.1716H702.392V20.1716H703.392ZM710.448 20.1716H711.448V19.1716H710.448V20.1716ZM710.448 21.8516V22.8516H711.448V21.8516H710.448ZM703.392 21.8516H702.392V22.8516H703.392V21.8516ZM706.08 9.37157V8.37157H705.08V9.37157H706.08ZM707.792 9.37157H708.792V8.37157H707.792V9.37157ZM707.792 14.0436V15.0436H708.792V14.0436H707.792ZM706.08 14.0436H705.08V15.0436H706.08V14.0436ZM706.272 14.0596V13.0596H705.272V14.0596H706.272ZM707.568 14.0596H708.568V13.0596H707.568V14.0596ZM707.568 18.5076H706.568V19.5076H707.568V18.5076ZM707.792 18.5076H708.792V17.5076H707.792V18.5076ZM707.792 24.3796V25.3796H708.792V24.3796H707.792ZM706.08 24.3796H705.08V25.3796H706.08V24.3796ZM706.08 18.5076V17.5076H705.08V18.5076H706.08ZM706.272 18.5076V19.5076H707.272V18.5076H706.272ZM705.296 16.9396V15.9396H704.296V16.9396H705.296ZM705.296 17.8836H704.296V18.8836H705.296V17.8836ZM708.592 17.8836V18.8836H709.592V17.8836H708.592ZM708.592 16.9396H709.592V15.9396H708.592V16.9396ZM705.296 14.7476V13.7476H704.296V14.7476H705.296ZM705.296 15.6756H704.296V16.6756H705.296V15.6756ZM708.592 15.6756V16.6756H709.592V15.6756H708.592ZM708.592 14.7476H709.592V13.7476H708.592V14.7476ZM703.92 13.4036V12.4036H702.92V13.4036H703.92ZM710.032 13.4036H711.032V12.4036H710.032V13.4036ZM710.032 19.2276V20.2276H711.032V19.2276H710.032ZM703.92 19.2276H702.92V20.2276H703.92V19.2276ZM710.736 12.8596V13.8596H718V12.8596V11.8596H710.736V12.8596ZM718 12.8596H717V24.2836H718H719V12.8596H718ZM718 24.2836V23.2836H716.288V24.2836V25.2836H718V24.2836ZM716.288 24.2836H717.288V14.5716H716.288H715.288V24.2836H716.288ZM716.288 14.5716V13.5716H712.384V14.5716V15.5716H716.288V14.5716ZM712.384 14.5716H711.384V24.3956H712.384H713.384V14.5716H712.384ZM712.384 24.3956V23.3956H710.736V24.3956V25.3956H712.384V24.3956ZM710.736 24.3956H711.736V12.8596H710.736H709.736V24.3956H710.736ZM711.536 17.1796V18.1796H717.008V17.1796V16.1796H711.536V17.1796ZM717.008 17.1796H716.008V18.8756H717.008H718.008V17.1796H717.008ZM717.008 18.8756V17.8756H711.536V18.8756V19.8756H717.008V18.8756ZM711.536 18.8756H712.536V17.1796H711.536H710.536V18.8756H711.536ZM711.536 21.7396V22.7396H717.008V21.7396V20.7396H711.536V21.7396ZM717.008 21.7396H716.008V23.4516H717.008H718.008V21.7396H717.008ZM717.008 23.4516V22.4516H711.536V23.4516V24.4516H717.008V23.4516ZM711.536 23.4516H712.536V21.7396H711.536H710.536V23.4516H711.536ZM713.408 9.35557V10.3556H715.168V9.35557V8.35557H713.408V9.35557ZM715.168 9.35557H714.168V13.5956H715.168H716.168V9.35557H715.168ZM715.168 13.5956V12.5956H715.12V13.5956V14.5956H715.168V13.5956ZM715.12 13.5956H714.12V22.7476H715.12H716.12V13.5956H715.12ZM715.12 22.7476V21.7476H713.472V22.7476V23.7476H715.12V22.7476ZM713.472 22.7476H714.472V13.5956H713.472H712.472V22.7476H713.472ZM713.472 13.5956V12.5956H713.408V13.5956V14.5956H713.472V13.5956ZM713.408 13.5956H714.408V9.35557H713.408H712.408V13.5956H713.408ZM703.568 10.9076V11.9076H710.256V10.9076V9.90757H703.568V10.9076ZM710.256 10.9076H709.256V12.5556H710.256H711.256V10.9076H710.256ZM710.256 12.5556V11.5556H703.568V12.5556V13.5556H710.256V12.5556ZM703.568 12.5556H704.568V10.9076H703.568H702.568V12.5556H703.568ZM703.392 20.1716V21.1716H710.448V20.1716V19.1716H703.392V20.1716ZM710.448 20.1716H709.448V21.8516H710.448H711.448V20.1716H710.448ZM710.448 21.8516V20.8516H703.392V21.8516V22.8516H710.448V21.8516ZM703.392 21.8516H704.392V20.1716H703.392H702.392V21.8516H703.392ZM706.08 9.37157V10.3716H707.792V9.37157V8.37157H706.08V9.37157ZM707.792 9.37157H706.792V14.0436H707.792H708.792V9.37157H707.792ZM707.792 14.0436V13.0436H706.08V14.0436V15.0436H707.792V14.0436ZM706.08 14.0436H707.08V9.37157H706.08H705.08V14.0436H706.08ZM706.272 14.0596V15.0596H707.568V14.0596V13.0596H706.272V14.0596ZM707.568 14.0596H706.568V18.5076H707.568H708.568V14.0596H707.568ZM707.568 18.5076V19.5076H707.792V18.5076V17.5076H707.568V18.5076ZM707.792 18.5076H706.792V24.3796H707.792H708.792V18.5076H707.792ZM707.792 24.3796V23.3796H706.08V24.3796V25.3796H707.792V24.3796ZM706.08 24.3796H707.08V18.5076H706.08H705.08V24.3796H706.08ZM706.08 18.5076V19.5076H706.272V18.5076V17.5076H706.08V18.5076ZM706.272 18.5076H707.272V14.0596H706.272H705.272V18.5076H706.272ZM705.296 16.9396H704.296V17.8836H705.296H706.296V16.9396H705.296ZM705.296 17.8836V18.8836H708.592V17.8836V16.8836H705.296V17.8836ZM708.592 17.8836H709.592V16.9396H708.592H707.592V17.8836H708.592ZM708.592 16.9396V15.9396H705.296V16.9396V17.9396H708.592V16.9396ZM705.296 14.7476H704.296V15.6756H705.296H706.296V14.7476H705.296ZM705.296 15.6756V16.6756H708.592V15.6756V14.6756H705.296V15.6756ZM708.592 15.6756H709.592V14.7476H708.592H707.592V15.6756H708.592ZM708.592 14.7476V13.7476H705.296V14.7476V15.7476H708.592V14.7476ZM703.92 13.4036V14.4036H710.032V13.4036V12.4036H703.92V13.4036ZM710.032 13.4036H709.032V19.2276H710.032H711.032V13.4036H710.032ZM710.032 19.2276V18.2276H703.92V19.2276V20.2276H710.032V19.2276ZM703.92 19.2276H704.92V13.4036H703.92H702.92V19.2276H703.92Z" fill="#71717A" mask="url(#path-13-outside-1_268_5712)"/>
<path d="M425.456 7H370.369H349C346.791 7 345 8.79086 345 11V14.6364V27C345 29.2091 346.791 31 349 31H449C451.209 31 453 29.2091 453 27V14.6364V11C453 8.79086 451.209 7 449 7H425.456Z" fill="#3F3F46" stroke="#A1A1A1" stroke-opacity="0.5"/>
<mask id="path-16-outside-2_268_5712" maskUnits="userSpaceOnUse" x="383.412" y="9.55566" width="28" height="18" fill="black">
<rect fill="white" x="383.412" y="9.55566" width="28" height="18"/>
<path d="M385.134 24.5557V12.9193H389.794C390.65 12.9193 391.364 13.0462 391.936 13.3C392.508 13.5538 392.937 13.906 393.225 14.3568C393.513 14.8038 393.657 15.3189 393.657 15.9023C393.657 16.3568 393.566 16.7564 393.384 17.1011C393.203 17.442 392.953 17.7223 392.634 17.942C392.32 18.1579 391.96 18.3113 391.555 18.4023V18.5159C391.998 18.5348 392.413 18.6598 392.799 18.8909C393.189 19.122 393.506 19.4458 393.748 19.8625C393.99 20.2754 394.112 20.7678 394.112 21.3398C394.112 21.9572 393.958 22.5083 393.651 22.9932C393.348 23.4742 392.9 23.8549 392.305 24.1352C391.71 24.4155 390.977 24.5557 390.106 24.5557H385.134ZM387.595 22.5443H389.6C390.286 22.5443 390.786 22.4136 391.1 22.1523C391.415 21.8871 391.572 21.5348 391.572 21.0954C391.572 20.7735 391.494 20.4894 391.339 20.2432C391.184 19.997 390.962 19.8038 390.674 19.6636C390.39 19.5235 390.051 19.4534 389.657 19.4534H387.595V22.5443ZM387.595 17.7886H389.419C389.756 17.7886 390.055 17.7299 390.316 17.6125C390.581 17.4913 390.79 17.3208 390.941 17.1011C391.097 16.8814 391.174 16.6182 391.174 16.3113C391.174 15.8909 391.025 15.5519 390.725 15.2943C390.43 15.0367 390.009 14.9079 389.464 14.9079H387.595V17.7886ZM402.509 14.4597H409.773V25.8837H408.061V16.1717H404.157V25.9957H402.509V14.4597ZM403.309 18.7797H408.781V20.4757H403.309V18.7797ZM403.309 23.3397H408.781V25.0517H403.309V23.3397ZM405.181 10.9557H406.941V15.1957H406.893V24.3477H405.245V15.1957H405.181V10.9557ZM395.341 12.5077H402.029V14.1557H395.341V12.5077ZM395.165 21.7717H402.221V23.4517H395.165V21.7717ZM397.853 10.9717H399.565V15.6437H397.853V10.9717ZM398.045 15.6597H399.341V20.1077H399.565V25.9797H397.853V20.1077H398.045V15.6597ZM397.069 18.5397V19.4837H400.365V18.5397H397.069ZM397.069 16.3477V17.2757H400.365V16.3477H397.069ZM395.693 15.0037H401.805V20.8277H395.693V15.0037Z"/>
</mask>
<path d="M385.134 24.5557V12.9193H389.794C390.65 12.9193 391.364 13.0462 391.936 13.3C392.508 13.5538 392.937 13.906 393.225 14.3568C393.513 14.8038 393.657 15.3189 393.657 15.9023C393.657 16.3568 393.566 16.7564 393.384 17.1011C393.203 17.442 392.953 17.7223 392.634 17.942C392.32 18.1579 391.96 18.3113 391.555 18.4023V18.5159C391.998 18.5348 392.413 18.6598 392.799 18.8909C393.189 19.122 393.506 19.4458 393.748 19.8625C393.99 20.2754 394.112 20.7678 394.112 21.3398C394.112 21.9572 393.958 22.5083 393.651 22.9932C393.348 23.4742 392.9 23.8549 392.305 24.1352C391.71 24.4155 390.977 24.5557 390.106 24.5557H385.134ZM387.595 22.5443H389.6C390.286 22.5443 390.786 22.4136 391.1 22.1523C391.415 21.8871 391.572 21.5348 391.572 21.0954C391.572 20.7735 391.494 20.4894 391.339 20.2432C391.184 19.997 390.962 19.8038 390.674 19.6636C390.39 19.5235 390.051 19.4534 389.657 19.4534H387.595V22.5443ZM387.595 17.7886H389.419C389.756 17.7886 390.055 17.7299 390.316 17.6125C390.581 17.4913 390.79 17.3208 390.941 17.1011C391.097 16.8814 391.174 16.6182 391.174 16.3113C391.174 15.8909 391.025 15.5519 390.725 15.2943C390.43 15.0367 390.009 14.9079 389.464 14.9079H387.595V17.7886ZM402.509 14.4597H409.773V25.8837H408.061V16.1717H404.157V25.9957H402.509V14.4597ZM403.309 18.7797H408.781V20.4757H403.309V18.7797ZM403.309 23.3397H408.781V25.0517H403.309V23.3397ZM405.181 10.9557H406.941V15.1957H406.893V24.3477H405.245V15.1957H405.181V10.9557ZM395.341 12.5077H402.029V14.1557H395.341V12.5077ZM395.165 21.7717H402.221V23.4517H395.165V21.7717ZM397.853 10.9717H399.565V15.6437H397.853V10.9717ZM398.045 15.6597H399.341V20.1077H399.565V25.9797H397.853V20.1077H398.045V15.6597ZM397.069 18.5397V19.4837H400.365V18.5397H397.069ZM397.069 16.3477V17.2757H400.365V16.3477H397.069ZM395.693 15.0037H401.805V20.8277H395.693V15.0037Z" fill="#FAFAFA"/>
<path d="M385.134 24.5557H384.134V25.5557H385.134V24.5557ZM385.134 12.9193V11.9193H384.134V12.9193H385.134ZM391.936 13.3L391.53 14.214V14.214L391.936 13.3ZM393.225 14.3568L392.383 14.8951L392.385 14.8983L393.225 14.3568ZM393.384 17.1011L394.267 17.5717L394.269 17.5677L393.384 17.1011ZM392.634 17.942L393.201 18.7664L393.203 18.7649L392.634 17.942ZM391.555 18.4023L391.336 17.4265L390.555 17.6017V18.4023H391.555ZM391.555 18.5159H390.555V19.4741L391.512 19.515L391.555 18.5159ZM392.799 18.8909L392.286 19.7491L392.29 19.7513L392.799 18.8909ZM393.748 19.8625L392.884 20.3654L392.886 20.3688L393.748 19.8625ZM393.651 22.9932L392.806 22.4584L392.805 22.4602L393.651 22.9932ZM392.305 24.1352L391.879 23.2307V23.2307L392.305 24.1352ZM387.595 22.5443H386.595V23.5443H387.595V22.5443ZM391.1 22.1523L391.74 22.9213L391.745 22.9167L391.1 22.1523ZM391.339 20.2432L390.493 20.7767V20.7767L391.339 20.2432ZM390.674 19.6636L390.232 20.5604L390.236 20.5627L390.674 19.6636ZM387.595 19.4534V18.4534H386.595V19.4534H387.595ZM387.595 17.7886H386.595V18.7886H387.595V17.7886ZM390.316 17.6125L390.726 18.5247L390.732 18.522L390.316 17.6125ZM390.941 17.1011L390.125 16.5238L390.118 16.5334L390.941 17.1011ZM390.725 15.2943L390.068 16.0481L390.073 16.0522L390.725 15.2943ZM387.595 14.9079V13.9079H386.595V14.9079H387.595ZM385.134 24.5557H386.134V12.9193H385.134H384.134V24.5557H385.134ZM385.134 12.9193V13.9193H389.794V12.9193V11.9193H385.134V12.9193ZM389.794 12.9193V13.9193C390.558 13.9193 391.124 14.0337 391.53 14.214L391.936 13.3L392.341 12.3859C391.604 12.0587 390.741 11.9193 389.794 11.9193V12.9193ZM391.936 13.3L391.53 14.214C391.954 14.402 392.217 14.6363 392.383 14.8951L393.225 14.3568L394.068 13.8186C393.658 13.1757 393.061 12.7055 392.341 12.3859L391.936 13.3ZM393.225 14.3568L392.385 14.8983C392.558 15.1682 392.657 15.4916 392.657 15.9023H393.657H394.657C394.657 15.1463 394.468 14.4393 394.066 13.8153L393.225 14.3568ZM393.657 15.9023H392.657C392.657 16.2213 392.594 16.4559 392.5 16.6346L393.384 17.1011L394.269 17.5677C394.538 17.0569 394.657 16.4923 394.657 15.9023H393.657ZM393.384 17.1011L392.502 16.6305C392.395 16.8305 392.253 16.99 392.066 17.1191L392.634 17.942L393.203 18.7649C393.652 18.4546 394.01 18.0536 394.267 17.5717L393.384 17.1011ZM392.634 17.942L392.068 17.1177C391.868 17.2553 391.628 17.361 391.336 17.4265L391.555 18.4023L391.774 19.378C392.292 19.2617 392.772 19.0606 393.201 18.7664L392.634 17.942ZM391.555 18.4023H390.555V18.5159H391.555H392.555V18.4023H391.555ZM391.555 18.5159L391.512 19.515C391.787 19.5267 392.04 19.6021 392.286 19.7491L392.799 18.8909L393.312 18.0327C392.786 17.7176 392.209 17.543 391.598 17.5168L391.555 18.5159ZM392.799 18.8909L392.29 19.7513C392.524 19.8899 392.721 20.0866 392.884 20.3654L393.748 19.8625L394.612 19.3596C394.29 18.8051 393.855 18.354 393.309 18.0305L392.799 18.8909ZM393.748 19.8625L392.886 20.3688C393.022 20.6007 393.112 20.911 393.112 21.3398H394.112H395.112C395.112 20.6245 394.959 19.95 394.61 19.3562L393.748 19.8625ZM394.112 21.3398H393.112C393.112 21.7829 393.004 22.1458 392.806 22.4584L393.651 22.9932L394.496 23.5279C394.912 22.8708 395.112 22.1315 395.112 21.3398H394.112ZM393.651 22.9932L392.805 22.4602C392.619 22.7559 392.328 23.0187 391.879 23.2307L392.305 24.1352L392.731 25.0398C393.471 24.6912 394.078 24.1925 394.498 23.5262L393.651 22.9932ZM392.305 24.1352L391.879 23.2307C391.453 23.4312 390.876 23.5557 390.106 23.5557V24.5557V25.5557C391.079 25.5557 391.967 25.3999 392.731 25.0398L392.305 24.1352ZM390.106 24.5557V23.5557H385.134V24.5557V25.5557H390.106V24.5557ZM387.595 22.5443V23.5443H389.6V22.5443V21.5443H387.595V22.5443ZM389.6 22.5443V23.5443C390.374 23.5443 391.159 23.404 391.74 22.9212L391.1 22.1523L390.461 21.3833C390.413 21.4233 390.198 21.5443 389.6 21.5443V22.5443ZM391.1 22.1523L391.745 22.9167C392.302 22.4472 392.572 21.8066 392.572 21.0954H391.572H390.572C390.572 21.2631 390.528 21.327 390.456 21.3878L391.1 22.1523ZM391.572 21.0954H392.572C392.572 20.6053 392.451 20.1322 392.185 19.7097L391.339 20.2432L390.493 20.7767C390.537 20.8465 390.572 20.9416 390.572 21.0954H391.572ZM391.339 20.2432L392.185 19.7097C391.92 19.2905 391.55 18.9777 391.112 18.7645L390.674 19.6636L390.236 20.5627C390.374 20.6298 390.447 20.7034 390.493 20.7767L391.339 20.2432ZM390.674 19.6636L391.117 18.7668C390.666 18.5443 390.168 18.4534 389.657 18.4534V19.4534V20.4534C389.934 20.4534 390.115 20.5027 390.232 20.5604L390.674 19.6636ZM389.657 19.4534V18.4534H387.595V19.4534V20.4534H389.657V19.4534ZM387.595 19.4534H386.595V22.5443H387.595H388.595V19.4534H387.595ZM387.595 17.7886V18.7886H389.419V17.7886V16.7886H387.595V17.7886ZM389.419 17.7886V18.7886C389.872 18.7886 390.315 18.7093 390.726 18.5247L390.316 17.6125L389.906 16.7003C389.795 16.7505 389.639 16.7886 389.419 16.7886V17.7886ZM390.316 17.6125L390.732 18.522C391.146 18.3329 391.501 18.0507 391.764 17.6689L390.941 17.1011L390.118 16.5334C390.078 16.5909 390.017 16.6497 389.9 16.703L390.316 17.6125ZM390.941 17.1011L391.758 17.6784C392.049 17.2668 392.174 16.7948 392.174 16.3113H391.174H390.174C390.174 16.4415 390.144 16.496 390.125 16.5239L390.941 17.1011ZM391.174 16.3113H392.174C392.174 15.6212 391.913 14.9975 391.378 14.5364L390.725 15.2943L390.073 16.0522C390.136 16.1062 390.174 16.1606 390.174 16.3113H391.174ZM390.725 15.2943L391.382 14.5405C390.845 14.0716 390.157 13.9079 389.464 13.9079V14.9079V15.9079C389.862 15.9079 390.015 16.0019 390.068 16.0481L390.725 15.2943ZM389.464 14.9079V13.9079H387.595V14.9079V15.9079H389.464V14.9079ZM387.595 14.9079H386.595V17.7886H387.595H388.595V14.9079H387.595ZM402.509 14.4597V13.4597H401.509V14.4597H402.509ZM409.773 14.4597H410.773V13.4597H409.773V14.4597ZM409.773 25.8837V26.8837H410.773V25.8837H409.773ZM408.061 25.8837H407.061V26.8837H408.061V25.8837ZM408.061 16.1717H409.061V15.1717H408.061V16.1717ZM404.157 16.1717V15.1717H403.157V16.1717H404.157ZM404.157 25.9957V26.9957H405.157V25.9957H404.157ZM402.509 25.9957H401.509V26.9957H402.509V25.9957ZM403.309 18.7797V17.7797H402.309V18.7797H403.309ZM408.781 18.7797H409.781V17.7797H408.781V18.7797ZM408.781 20.4757V21.4757H409.781V20.4757H408.781ZM403.309 20.4757H402.309V21.4757H403.309V20.4757ZM403.309 23.3397V22.3397H402.309V23.3397H403.309ZM408.781 23.3397H409.781V22.3397H408.781V23.3397ZM408.781 25.0517V26.0517H409.781V25.0517H408.781ZM403.309 25.0517H402.309V26.0517H403.309V25.0517ZM405.181 10.9557V9.95566H404.181V10.9557H405.181ZM406.941 10.9557H407.941V9.95566H406.941V10.9557ZM406.941 15.1957V16.1957H407.941V15.1957H406.941ZM406.893 15.1957V14.1957H405.893V15.1957H406.893ZM406.893 24.3477V25.3477H407.893V24.3477H406.893ZM405.245 24.3477H404.245V25.3477H405.245V24.3477ZM405.245 15.1957H406.245V14.1957H405.245V15.1957ZM405.181 15.1957H404.181V16.1957H405.181V15.1957ZM395.341 12.5077V11.5077H394.341V12.5077H395.341ZM402.029 12.5077H403.029V11.5077H402.029V12.5077ZM402.029 14.1557V15.1557H403.029V14.1557H402.029ZM395.341 14.1557H394.341V15.1557H395.341V14.1557ZM395.165 21.7717V20.7717H394.165V21.7717H395.165ZM402.221 21.7717H403.221V20.7717H402.221V21.7717ZM402.221 23.4517V24.4517H403.221V23.4517H402.221ZM395.165 23.4517H394.165V24.4517H395.165V23.4517ZM397.853 10.9717V9.97166H396.853V10.9717H397.853ZM399.565 10.9717H400.565V9.97166H399.565V10.9717ZM399.565 15.6437V16.6437H400.565V15.6437H399.565ZM397.853 15.6437H396.853V16.6437H397.853V15.6437ZM398.045 15.6597V14.6597H397.045V15.6597H398.045ZM399.341 15.6597H400.341V14.6597H399.341V15.6597ZM399.341 20.1077H398.341V21.1077H399.341V20.1077ZM399.565 20.1077H400.565V19.1077H399.565V20.1077ZM399.565 25.9797V26.9797H400.565V25.9797H399.565ZM397.853 25.9797H396.853V26.9797H397.853V25.9797ZM397.853 20.1077V19.1077H396.853V20.1077H397.853ZM398.045 20.1077V21.1077H399.045V20.1077H398.045ZM397.069 18.5397V17.5397H396.069V18.5397H397.069ZM397.069 19.4837H396.069V20.4837H397.069V19.4837ZM400.365 19.4837V20.4837H401.365V19.4837H400.365ZM400.365 18.5397H401.365V17.5397H400.365V18.5397ZM397.069 16.3477V15.3477H396.069V16.3477H397.069ZM397.069 17.2757H396.069V18.2757H397.069V17.2757ZM400.365 17.2757V18.2757H401.365V17.2757H400.365ZM400.365 16.3477H401.365V15.3477H400.365V16.3477ZM395.693 15.0037V14.0037H394.693V15.0037H395.693ZM401.805 15.0037H402.805V14.0037H401.805V15.0037ZM401.805 20.8277V21.8277H402.805V20.8277H401.805ZM395.693 20.8277H394.693V21.8277H395.693V20.8277ZM402.509 14.4597V15.4597H409.773V14.4597V13.4597H402.509V14.4597ZM409.773 14.4597H408.773V25.8837H409.773H410.773V14.4597H409.773ZM409.773 25.8837V24.8837H408.061V25.8837V26.8837H409.773V25.8837ZM408.061 25.8837H409.061V16.1717H408.061H407.061V25.8837H408.061ZM408.061 16.1717V15.1717H404.157V16.1717V17.1717H408.061V16.1717ZM404.157 16.1717H403.157V25.9957H404.157H405.157V16.1717H404.157ZM404.157 25.9957V24.9957H402.509V25.9957V26.9957H404.157V25.9957ZM402.509 25.9957H403.509V14.4597H402.509H401.509V25.9957H402.509ZM403.309 18.7797V19.7797H408.781V18.7797V17.7797H403.309V18.7797ZM408.781 18.7797H407.781V20.4757H408.781H409.781V18.7797H408.781ZM408.781 20.4757V19.4757H403.309V20.4757V21.4757H408.781V20.4757ZM403.309 20.4757H404.309V18.7797H403.309H402.309V20.4757H403.309ZM403.309 23.3397V24.3397H408.781V23.3397V22.3397H403.309V23.3397ZM408.781 23.3397H407.781V25.0517H408.781H409.781V23.3397H408.781ZM408.781 25.0517V24.0517H403.309V25.0517V26.0517H408.781V25.0517ZM403.309 25.0517H404.309V23.3397H403.309H402.309V25.0517H403.309ZM405.181 10.9557V11.9557H406.941V10.9557V9.95566H405.181V10.9557ZM406.941 10.9557H405.941V15.1957H406.941H407.941V10.9557H406.941ZM406.941 15.1957V14.1957H406.893V15.1957V16.1957H406.941V15.1957ZM406.893 15.1957H405.893V24.3477H406.893H407.893V15.1957H406.893ZM406.893 24.3477V23.3477H405.245V24.3477V25.3477H406.893V24.3477ZM405.245 24.3477H406.245V15.1957H405.245H404.245V24.3477H405.245ZM405.245 15.1957V14.1957H405.181V15.1957V16.1957H405.245V15.1957ZM405.181 15.1957H406.181V10.9557H405.181H404.181V15.1957H405.181ZM395.341 12.5077V13.5077H402.029V12.5077V11.5077H395.341V12.5077ZM402.029 12.5077H401.029V14.1557H402.029H403.029V12.5077H402.029ZM402.029 14.1557V13.1557H395.341V14.1557V15.1557H402.029V14.1557ZM395.341 14.1557H396.341V12.5077H395.341H394.341V14.1557H395.341ZM395.165 21.7717V22.7717H402.221V21.7717V20.7717H395.165V21.7717ZM402.221 21.7717H401.221V23.4517H402.221H403.221V21.7717H402.221ZM402.221 23.4517V22.4517H395.165V23.4517V24.4517H402.221V23.4517ZM395.165 23.4517H396.165V21.7717H395.165H394.165V23.4517H395.165ZM397.853 10.9717V11.9717H399.565V10.9717V9.97166H397.853V10.9717ZM399.565 10.9717H398.565V15.6437H399.565H400.565V10.9717H399.565ZM399.565 15.6437V14.6437H397.853V15.6437V16.6437H399.565V15.6437ZM397.853 15.6437H398.853V10.9717H397.853H396.853V15.6437H397.853ZM398.045 15.6597V16.6597H399.341V15.6597V14.6597H398.045V15.6597ZM399.341 15.6597H398.341V20.1077H399.341H400.341V15.6597H399.341ZM399.341 20.1077V21.1077H399.565V20.1077V19.1077H399.341V20.1077ZM399.565 20.1077H398.565V25.9797H399.565H400.565V20.1077H399.565ZM399.565 25.9797V24.9797H397.853V25.9797V26.9797H399.565V25.9797ZM397.853 25.9797H398.853V20.1077H397.853H396.853V25.9797H397.853ZM397.853 20.1077V21.1077H398.045V20.1077V19.1077H397.853V20.1077ZM398.045 20.1077H399.045V15.6597H398.045H397.045V20.1077H398.045ZM397.069 18.5397H396.069V19.4837H397.069H398.069V18.5397H397.069ZM397.069 19.4837V20.4837H400.365V19.4837V18.4837H397.069V19.4837ZM400.365 19.4837H401.365V18.5397H400.365H399.365V19.4837H400.365ZM400.365 18.5397V17.5397H397.069V18.5397V19.5397H400.365V18.5397ZM397.069 16.3477H396.069V17.2757H397.069H398.069V16.3477H397.069ZM397.069 17.2757V18.2757H400.365V17.2757V16.2757H397.069V17.2757ZM400.365 17.2757H401.365V16.3477H400.365H399.365V17.2757H400.365ZM400.365 16.3477V15.3477H397.069V16.3477V17.3477H400.365V16.3477ZM395.693 15.0037V16.0037H401.805V15.0037V14.0037H395.693V15.0037ZM401.805 15.0037H400.805V20.8277H401.805H402.805V15.0037H401.805ZM401.805 20.8277V19.8277H395.693V20.8277V21.8277H401.805V20.8277ZM395.693 20.8277H396.693V15.0037H395.693H394.693V20.8277H395.693Z" fill="#71717A" mask="url(#path-16-outside-2_268_5712)"/>
<path d="M587.646 55.9395L284.558 55.9395L211.765 72.8188L553 72.9395L587.646 55.9395Z" fill="#3F3939" fill-opacity="0.5"/>
<rect x="211.26" y="73" width="23.3965" height="110" fill="#0081CC"/>
<rect x="531.012" y="73" width="23.3965" height="110" fill="#0081CC"/>
<rect x="554.408" y="73" width="12" height="343.148" transform="rotate(90 554.408 73)" fill="#0081CC"/>
<path d="M425.456 147H370.369H349C346.791 147 345 148.791 345 151V158.455V179C345 181.209 346.791 183 349 183H449C451.209 183 453 181.209 453 179V158.455V151C453 148.791 451.209 147 449 147H425.456Z" fill="#3F3F46" stroke="#A1A1A1" stroke-opacity="0.5"/>
<mask id="path-23-outside-3_268_5712" maskUnits="userSpaceOnUse" x="384.412" y="155.333" width="28" height="18" fill="black">
<rect fill="white" x="384.412" y="155.333" width="28" height="18"/>
<path d="M389.655 170.333H385.53V158.697H389.689C390.86 158.697 391.867 158.93 392.712 159.396C393.557 159.858 394.206 160.522 394.661 161.39C395.119 162.257 395.349 163.295 395.349 164.503C395.349 165.716 395.119 166.757 394.661 167.628C394.206 168.5 393.553 169.168 392.701 169.634C391.852 170.1 390.837 170.333 389.655 170.333ZM387.991 168.225H389.553C390.28 168.225 390.892 168.096 391.388 167.839C391.888 167.577 392.263 167.174 392.513 166.628C392.767 166.079 392.894 165.371 392.894 164.503C392.894 163.644 392.767 162.941 392.513 162.396C392.263 161.85 391.89 161.449 391.394 161.191C390.898 160.933 390.286 160.805 389.559 160.805H387.991V168.225ZM403.968 160.237H411.232V171.661H409.52V161.949H405.616V171.773H403.968V160.237ZM404.768 164.557H410.24V166.253H404.768V164.557ZM404.768 169.117H410.24V170.829H404.768V169.117ZM406.64 156.733H408.4V160.973H408.352V170.125H406.704V160.973H406.64V156.733ZM396.8 158.285H403.488V159.933H396.8V158.285ZM396.624 167.549H403.68V169.229H396.624V167.549ZM399.312 156.749H401.024V161.421H399.312V156.749ZM399.504 161.437H400.8V165.885H401.024V171.757H399.312V165.885H399.504V161.437ZM398.528 164.317V165.261H401.824V164.317H398.528ZM398.528 162.125V163.053H401.824V162.125H398.528ZM397.152 160.781H403.264V166.605H397.152V160.781Z"/>
</mask>
<path d="M389.655 170.333H385.53V158.697H389.689C390.86 158.697 391.867 158.93 392.712 159.396C393.557 159.858 394.206 160.522 394.661 161.39C395.119 162.257 395.349 163.295 395.349 164.503C395.349 165.716 395.119 166.757 394.661 167.628C394.206 168.5 393.553 169.168 392.701 169.634C391.852 170.1 390.837 170.333 389.655 170.333ZM387.991 168.225H389.553C390.28 168.225 390.892 168.096 391.388 167.839C391.888 167.577 392.263 167.174 392.513 166.628C392.767 166.079 392.894 165.371 392.894 164.503C392.894 163.644 392.767 162.941 392.513 162.396C392.263 161.85 391.89 161.449 391.394 161.191C390.898 160.933 390.286 160.805 389.559 160.805H387.991V168.225ZM403.968 160.237H411.232V171.661H409.52V161.949H405.616V171.773H403.968V160.237ZM404.768 164.557H410.24V166.253H404.768V164.557ZM404.768 169.117H410.24V170.829H404.768V169.117ZM406.64 156.733H408.4V160.973H408.352V170.125H406.704V160.973H406.64V156.733ZM396.8 158.285H403.488V159.933H396.8V158.285ZM396.624 167.549H403.68V169.229H396.624V167.549ZM399.312 156.749H401.024V161.421H399.312V156.749ZM399.504 161.437H400.8V165.885H401.024V171.757H399.312V165.885H399.504V161.437ZM398.528 164.317V165.261H401.824V164.317H398.528ZM398.528 162.125V163.053H401.824V162.125H398.528ZM397.152 160.781H403.264V166.605H397.152V160.781Z" fill="#FAFAFA"/>
<path d="M385.53 170.333H384.53V171.333H385.53V170.333ZM385.53 158.697V157.697H384.53V158.697H385.53ZM392.712 159.396L392.229 160.271L392.232 160.273L392.712 159.396ZM394.661 161.39L393.775 161.854L393.777 161.857L394.661 161.39ZM394.661 167.628L393.776 167.163L393.774 167.166L394.661 167.628ZM392.701 169.634L392.221 168.757L392.219 168.758L392.701 169.634ZM387.991 168.225H386.991V169.225H387.991V168.225ZM391.388 167.839L391.849 168.726L391.852 168.725L391.388 167.839ZM392.513 166.628L391.605 166.209L391.604 166.212L392.513 166.628ZM392.513 162.396L391.604 162.812L391.607 162.817L392.513 162.396ZM391.394 161.191L391.855 160.303H391.855L391.394 161.191ZM387.991 160.805V159.805H386.991V160.805H387.991ZM389.655 170.333V169.333H385.53V170.333V171.333H389.655V170.333ZM385.53 170.333H386.53V158.697H385.53H384.53V170.333H385.53ZM385.53 158.697V159.697H389.689V158.697V157.697H385.53V158.697ZM389.689 158.697V159.697C390.727 159.697 391.561 159.903 392.229 160.271L392.712 159.396L393.195 158.52C392.174 157.957 390.993 157.697 389.689 157.697V158.697ZM392.712 159.396L392.232 160.273C392.901 160.639 393.411 161.158 393.775 161.854L394.661 161.39L395.547 160.926C395.002 159.887 394.213 159.077 393.192 158.518L392.712 159.396ZM394.661 161.39L393.777 161.857C394.143 162.551 394.349 163.421 394.349 164.503H395.349H396.349C396.349 163.169 396.095 161.964 395.545 160.923L394.661 161.39ZM395.349 164.503H394.349C394.349 165.59 394.143 166.465 393.776 167.163L394.661 167.628L395.546 168.094C396.095 167.05 396.349 165.841 396.349 164.503H395.349ZM394.661 167.628L393.774 167.166C393.41 167.864 392.898 168.387 392.221 168.757L392.701 169.634L393.18 170.512C394.209 169.95 395.003 169.136 395.548 168.091L394.661 167.628ZM392.701 169.634L392.219 168.758C391.548 169.126 390.706 169.333 389.655 169.333V170.333V171.333C390.969 171.333 392.157 171.074 393.182 170.511L392.701 169.634ZM387.991 168.225V169.225H389.553V168.225V167.225H387.991V168.225ZM389.553 168.225V169.225C390.394 169.225 391.174 169.077 391.849 168.726L391.388 167.839L390.928 166.951C390.61 167.116 390.167 167.225 389.553 167.225V168.225ZM391.388 167.839L391.852 168.725C392.561 168.354 393.086 167.779 393.422 167.045L392.513 166.628L391.604 166.212C391.44 166.569 391.216 166.801 390.925 166.952L391.388 167.839ZM392.513 166.628L393.421 167.048C393.756 166.323 393.894 165.458 393.894 164.503H392.894H391.894C391.894 165.284 391.778 165.835 391.606 166.209L392.513 166.628ZM392.894 164.503H393.894C393.894 163.556 393.756 162.695 393.42 161.974L392.513 162.396L391.607 162.817C391.778 163.187 391.894 163.731 391.894 164.503H392.894ZM392.513 162.396L393.422 161.979C393.087 161.247 392.564 160.671 391.855 160.303L391.394 161.191L390.933 162.079C391.217 162.226 391.44 162.453 391.604 162.812L392.513 162.396ZM391.394 161.191L391.855 160.303C391.18 159.953 390.4 159.805 389.559 159.805V160.805V161.805C390.172 161.805 390.616 161.914 390.933 162.079L391.394 161.191ZM389.559 160.805V159.805H387.991V160.805V161.805H389.559V160.805ZM387.991 160.805H386.991V168.225H387.991H388.991V160.805H387.991ZM403.968 160.237V159.237H402.968V160.237H403.968ZM411.232 160.237H412.232V159.237H411.232V160.237ZM411.232 171.661V172.661H412.232V171.661H411.232ZM409.52 171.661H408.52V172.661H409.52V171.661ZM409.52 161.949H410.52V160.949H409.52V161.949ZM405.616 161.949V160.949H404.616V161.949H405.616ZM405.616 171.773V172.773H406.616V171.773H405.616ZM403.968 171.773H402.968V172.773H403.968V171.773ZM404.768 164.557V163.557H403.768V164.557H404.768ZM410.24 164.557H411.24V163.557H410.24V164.557ZM410.24 166.253V167.253H411.24V166.253H410.24ZM404.768 166.253H403.768V167.253H404.768V166.253ZM404.768 169.117V168.117H403.768V169.117H404.768ZM410.24 169.117H411.24V168.117H410.24V169.117ZM410.24 170.829V171.829H411.24V170.829H410.24ZM404.768 170.829H403.768V171.829H404.768V170.829ZM406.64 156.733V155.733H405.64V156.733H406.64ZM408.4 156.733H409.4V155.733H408.4V156.733ZM408.4 160.973V161.973H409.4V160.973H408.4ZM408.352 160.973V159.973H407.352V160.973H408.352ZM408.352 170.125V171.125H409.352V170.125H408.352ZM406.704 170.125H405.704V171.125H406.704V170.125ZM406.704 160.973H407.704V159.973H406.704V160.973ZM406.64 160.973H405.64V161.973H406.64V160.973ZM396.8 158.285V157.285H395.8V158.285H396.8ZM403.488 158.285H404.488V157.285H403.488V158.285ZM403.488 159.933V160.933H404.488V159.933H403.488ZM396.8 159.933H395.8V160.933H396.8V159.933ZM396.624 167.549V166.549H395.624V167.549H396.624ZM403.68 167.549H404.68V166.549H403.68V167.549ZM403.68 169.229V170.229H404.68V169.229H403.68ZM396.624 169.229H395.624V170.229H396.624V169.229ZM399.312 156.749V155.749H398.312V156.749H399.312ZM401.024 156.749H402.024V155.749H401.024V156.749ZM401.024 161.421V162.421H402.024V161.421H401.024ZM399.312 161.421H398.312V162.421H399.312V161.421ZM399.504 161.437V160.437H398.504V161.437H399.504ZM400.8 161.437H401.8V160.437H400.8V161.437ZM400.8 165.885H399.8V166.885H400.8V165.885ZM401.024 165.885H402.024V164.885H401.024V165.885ZM401.024 171.757V172.757H402.024V171.757H401.024ZM399.312 171.757H398.312V172.757H399.312V171.757ZM399.312 165.885V164.885H398.312V165.885H399.312ZM399.504 165.885V166.885H400.504V165.885H399.504ZM398.528 164.317V163.317H397.528V164.317H398.528ZM398.528 165.261H397.528V166.261H398.528V165.261ZM401.824 165.261V166.261H402.824V165.261H401.824ZM401.824 164.317H402.824V163.317H401.824V164.317ZM398.528 162.125V161.125H397.528V162.125H398.528ZM398.528 163.053H397.528V164.053H398.528V163.053ZM401.824 163.053V164.053H402.824V163.053H401.824ZM401.824 162.125H402.824V161.125H401.824V162.125ZM397.152 160.781V159.781H396.152V160.781H397.152ZM403.264 160.781H404.264V159.781H403.264V160.781ZM403.264 166.605V167.605H404.264V166.605H403.264ZM397.152 166.605H396.152V167.605H397.152V166.605ZM403.968 160.237V161.237H411.232V160.237V159.237H403.968V160.237ZM411.232 160.237H410.232V171.661H411.232H412.232V160.237H411.232ZM411.232 171.661V170.661H409.52V171.661V172.661H411.232V171.661ZM409.52 171.661H410.52V161.949H409.52H408.52V171.661H409.52ZM409.52 161.949V160.949H405.616V161.949V162.949H409.52V161.949ZM405.616 161.949H404.616V171.773H405.616H406.616V161.949H405.616ZM405.616 171.773V170.773H403.968V171.773V172.773H405.616V171.773ZM403.968 171.773H404.968V160.237H403.968H402.968V171.773H403.968ZM404.768 164.557V165.557H410.24V164.557V163.557H404.768V164.557ZM410.24 164.557H409.24V166.253H410.24H411.24V164.557H410.24ZM410.24 166.253V165.253H404.768V166.253V167.253H410.24V166.253ZM404.768 166.253H405.768V164.557H404.768H403.768V166.253H404.768ZM404.768 169.117V170.117H410.24V169.117V168.117H404.768V169.117ZM410.24 169.117H409.24V170.829H410.24H411.24V169.117H410.24ZM410.24 170.829V169.829H404.768V170.829V171.829H410.24V170.829ZM404.768 170.829H405.768V169.117H404.768H403.768V170.829H404.768ZM406.64 156.733V157.733H408.4V156.733V155.733H406.64V156.733ZM408.4 156.733H407.4V160.973H408.4H409.4V156.733H408.4ZM408.4 160.973V159.973H408.352V160.973V161.973H408.4V160.973ZM408.352 160.973H407.352V170.125H408.352H409.352V160.973H408.352ZM408.352 170.125V169.125H406.704V170.125V171.125H408.352V170.125ZM406.704 170.125H407.704V160.973H406.704H405.704V170.125H406.704ZM406.704 160.973V159.973H406.64V160.973V161.973H406.704V160.973ZM406.64 160.973H407.64V156.733H406.64H405.64V160.973H406.64ZM396.8 158.285V159.285H403.488V158.285V157.285H396.8V158.285ZM403.488 158.285H402.488V159.933H403.488H404.488V158.285H403.488ZM403.488 159.933V158.933H396.8V159.933V160.933H403.488V159.933ZM396.8 159.933H397.8V158.285H396.8H395.8V159.933H396.8ZM396.624 167.549V168.549H403.68V167.549V166.549H396.624V167.549ZM403.68 167.549H402.68V169.229H403.68H404.68V167.549H403.68ZM403.68 169.229V168.229H396.624V169.229V170.229H403.68V169.229ZM396.624 169.229H397.624V167.549H396.624H395.624V169.229H396.624ZM399.312 156.749V157.749H401.024V156.749V155.749H399.312V156.749ZM401.024 156.749H400.024V161.421H401.024H402.024V156.749H401.024ZM401.024 161.421V160.421H399.312V161.421V162.421H401.024V161.421ZM399.312 161.421H400.312V156.749H399.312H398.312V161.421H399.312ZM399.504 161.437V162.437H400.8V161.437V160.437H399.504V161.437ZM400.8 161.437H399.8V165.885H400.8H401.8V161.437H400.8ZM400.8 165.885V166.885H401.024V165.885V164.885H400.8V165.885ZM401.024 165.885H400.024V171.757H401.024H402.024V165.885H401.024ZM401.024 171.757V170.757H399.312V171.757V172.757H401.024V171.757ZM399.312 171.757H400.312V165.885H399.312H398.312V171.757H399.312ZM399.312 165.885V166.885H399.504V165.885V164.885H399.312V165.885ZM399.504 165.885H400.504V161.437H399.504H398.504V165.885H399.504ZM398.528 164.317H397.528V165.261H398.528H399.528V164.317H398.528ZM398.528 165.261V166.261H401.824V165.261V164.261H398.528V165.261ZM401.824 165.261H402.824V164.317H401.824H400.824V165.261H401.824ZM401.824 164.317V163.317H398.528V164.317V165.317H401.824V164.317ZM398.528 162.125H397.528V163.053H398.528H399.528V162.125H398.528ZM398.528 163.053V164.053H401.824V163.053V162.053H398.528V163.053ZM401.824 163.053H402.824V162.125H401.824H400.824V163.053H401.824ZM401.824 162.125V161.125H398.528V162.125V163.125H401.824V162.125ZM397.152 160.781V161.781H403.264V160.781V159.781H397.152V160.781ZM403.264 160.781H402.264V166.605H403.264H404.264V160.781H403.264ZM403.264 166.605V165.605H397.152V166.605V167.605H403.264V166.605ZM397.152 166.605H398.152V160.781H397.152H396.152V166.605H397.152Z" fill="#71717A" mask="url(#path-23-outside-3_268_5712)"/>
<path d="M118.456 6H63.3691H42C39.7909 6 38 7.79086 38 10V13.6364V26C38 28.2091 39.7909 30 42 30H142C144.209 30 146 28.2091 146 26V13.6364V10C146 7.79086 144.209 6 142 6H118.456Z" fill="#3F3F46" stroke="#A1A1A1" stroke-opacity="0.5"/>
<mask id="path-26-outside-4_268_5712" maskUnits="userSpaceOnUse" x="74.4121" y="8.55566" width="31" height="18" fill="black">
<rect fill="white" x="74.4121" y="8.55566" width="31" height="18"/>
<path d="M79.4448 23.5557H76.8084L80.8255 11.9193H83.9959L88.0073 23.5557H85.3709L82.4561 14.5784H82.3652L79.4448 23.5557ZM79.28 18.9818H85.5073V20.9023H79.28V18.9818ZM96.2045 13.4597H103.468V24.8837H101.756V15.1717H97.8525V24.9957H96.2045V13.4597ZM97.0045 17.7797H102.476V19.4757H97.0045V17.7797ZM97.0045 22.3397H102.476V24.0517H97.0045V22.3397ZM98.8765 9.95566H100.636V14.1957H100.588V23.3477H98.9405V14.1957H98.8765V9.95566ZM89.0365 11.5077H95.7245V13.1557H89.0365V11.5077ZM88.8605 20.7717H95.9165V22.4517H88.8605V20.7717ZM91.5485 9.97166H93.2605V14.6437H91.5485V9.97166ZM91.7405 14.6597H93.0365V19.1077H93.2605V24.9797H91.5485V19.1077H91.7405V14.6597ZM90.7645 17.5397V18.4837H94.0605V17.5397H90.7645ZM90.7645 15.3477V16.2757H94.0605V15.3477H90.7645ZM89.3885 14.0037H95.5005V19.8277H89.3885V14.0037Z"/>
</mask>
<path d="M79.4448 23.5557H76.8084L80.8255 11.9193H83.9959L88.0073 23.5557H85.3709L82.4561 14.5784H82.3652L79.4448 23.5557ZM79.28 18.9818H85.5073V20.9023H79.28V18.9818ZM96.2045 13.4597H103.468V24.8837H101.756V15.1717H97.8525V24.9957H96.2045V13.4597ZM97.0045 17.7797H102.476V19.4757H97.0045V17.7797ZM97.0045 22.3397H102.476V24.0517H97.0045V22.3397ZM98.8765 9.95566H100.636V14.1957H100.588V23.3477H98.9405V14.1957H98.8765V9.95566ZM89.0365 11.5077H95.7245V13.1557H89.0365V11.5077ZM88.8605 20.7717H95.9165V22.4517H88.8605V20.7717ZM91.5485 9.97166H93.2605V14.6437H91.5485V9.97166ZM91.7405 14.6597H93.0365V19.1077H93.2605V24.9797H91.5485V19.1077H91.7405V14.6597ZM90.7645 17.5397V18.4837H94.0605V17.5397H90.7645ZM90.7645 15.3477V16.2757H94.0605V15.3477H90.7645ZM89.3885 14.0037H95.5005V19.8277H89.3885V14.0037Z" fill="#FAFAFA"/>
<path d="M79.4448 23.5557V24.5557H80.171L80.3957 23.865L79.4448 23.5557ZM76.8084 23.5557L75.8632 23.2293L75.4053 24.5557H76.8084V23.5557ZM80.8255 11.9193V10.9193H80.1128L79.8802 11.593L80.8255 11.9193ZM83.9959 11.9193L84.9413 11.5934L84.7089 10.9193H83.9959V11.9193ZM88.0073 23.5557V24.5557H89.4098L88.9527 23.2298L88.0073 23.5557ZM85.3709 23.5557L84.4198 23.8645L84.6442 24.5557H85.3709V23.5557ZM82.4561 14.5784L83.4073 14.2696L83.1828 13.5784H82.4561V14.5784ZM82.3652 14.5784V13.5784H81.639L81.4143 14.269L82.3652 14.5784ZM79.28 18.9818V17.9818H78.28V18.9818H79.28ZM85.5073 18.9818H86.5073V17.9818H85.5073V18.9818ZM85.5073 20.9023V21.9023H86.5073V20.9023H85.5073ZM79.28 20.9023H78.28V21.9023H79.28V20.9023ZM79.4448 23.5557V22.5557H76.8084V23.5557V24.5557H79.4448V23.5557ZM76.8084 23.5557L77.7537 23.882L81.7707 12.2456L80.8255 11.9193L79.8802 11.593L75.8632 23.2293L76.8084 23.5557ZM80.8255 11.9193V12.9193H83.9959V11.9193V10.9193H80.8255V11.9193ZM83.9959 11.9193L83.0505 12.2452L87.0619 23.8816L88.0073 23.5557L88.9527 23.2298L84.9413 11.5934L83.9959 11.9193ZM88.0073 23.5557V22.5557H85.3709V23.5557V24.5557H88.0073V23.5557ZM85.3709 23.5557L86.322 23.2469L83.4073 14.2696L82.4561 14.5784L81.505 14.8872L84.4198 23.8645L85.3709 23.5557ZM82.4561 14.5784V13.5784H82.3652V14.5784V15.5784H82.4561V14.5784ZM82.3652 14.5784L81.4143 14.269L78.4938 23.2463L79.4448 23.5557L80.3957 23.865L83.3162 14.8877L82.3652 14.5784ZM79.28 18.9818V19.9818H85.5073V18.9818V17.9818H79.28V18.9818ZM85.5073 18.9818H84.5073V20.9023H85.5073H86.5073V18.9818H85.5073ZM85.5073 20.9023V19.9023H79.28V20.9023V21.9023H85.5073V20.9023ZM79.28 20.9023H80.28V18.9818H79.28H78.28V20.9023H79.28ZM96.2045 13.4597V12.4597H95.2045V13.4597H96.2045ZM103.468 13.4597H104.468V12.4597H103.468V13.4597ZM103.468 24.8837V25.8837H104.468V24.8837H103.468ZM101.756 24.8837H100.756V25.8837H101.756V24.8837ZM101.756 15.1717H102.756V14.1717H101.756V15.1717ZM97.8525 15.1717V14.1717H96.8525V15.1717H97.8525ZM97.8525 24.9957V25.9957H98.8525V24.9957H97.8525ZM96.2045 24.9957H95.2045V25.9957H96.2045V24.9957ZM97.0045 17.7797V16.7797H96.0045V17.7797H97.0045ZM102.476 17.7797H103.476V16.7797H102.476V17.7797ZM102.476 19.4757V20.4757H103.476V19.4757H102.476ZM97.0045 19.4757H96.0045V20.4757H97.0045V19.4757ZM97.0045 22.3397V21.3397H96.0045V22.3397H97.0045ZM102.476 22.3397H103.476V21.3397H102.476V22.3397ZM102.476 24.0517V25.0517H103.476V24.0517H102.476ZM97.0045 24.0517H96.0045V25.0517H97.0045V24.0517ZM98.8765 9.95566V8.95566H97.8765V9.95566H98.8765ZM100.636 9.95566H101.636V8.95566H100.636V9.95566ZM100.636 14.1957V15.1957H101.636V14.1957H100.636ZM100.588 14.1957V13.1957H99.5885V14.1957H100.588ZM100.588 23.3477V24.3477H101.588V23.3477H100.588ZM98.9405 23.3477H97.9405V24.3477H98.9405V23.3477ZM98.9405 14.1957H99.9405V13.1957H98.9405V14.1957ZM98.8765 14.1957H97.8765V15.1957H98.8765V14.1957ZM89.0365 11.5077V10.5077H88.0365V11.5077H89.0365ZM95.7245 11.5077H96.7245V10.5077H95.7245V11.5077ZM95.7245 13.1557V14.1557H96.7245V13.1557H95.7245ZM89.0365 13.1557H88.0365V14.1557H89.0365V13.1557ZM88.8605 20.7717V19.7717H87.8605V20.7717H88.8605ZM95.9165 20.7717H96.9165V19.7717H95.9165V20.7717ZM95.9165 22.4517V23.4517H96.9165V22.4517H95.9165ZM88.8605 22.4517H87.8605V23.4517H88.8605V22.4517ZM91.5485 9.97166V8.97166H90.5485V9.97166H91.5485ZM93.2605 9.97166H94.2605V8.97166H93.2605V9.97166ZM93.2605 14.6437V15.6437H94.2605V14.6437H93.2605ZM91.5485 14.6437H90.5485V15.6437H91.5485V14.6437ZM91.7405 14.6597V13.6597H90.7405V14.6597H91.7405ZM93.0365 14.6597H94.0365V13.6597H93.0365V14.6597ZM93.0365 19.1077H92.0365V20.1077H93.0365V19.1077ZM93.2605 19.1077H94.2605V18.1077H93.2605V19.1077ZM93.2605 24.9797V25.9797H94.2605V24.9797H93.2605ZM91.5485 24.9797H90.5485V25.9797H91.5485V24.9797ZM91.5485 19.1077V18.1077H90.5485V19.1077H91.5485ZM91.7405 19.1077V20.1077H92.7405V19.1077H91.7405ZM90.7645 17.5397V16.5397H89.7645V17.5397H90.7645ZM90.7645 18.4837H89.7645V19.4837H90.7645V18.4837ZM94.0605 18.4837V19.4837H95.0605V18.4837H94.0605ZM94.0605 17.5397H95.0605V16.5397H94.0605V17.5397ZM90.7645 15.3477V14.3477H89.7645V15.3477H90.7645ZM90.7645 16.2757H89.7645V17.2757H90.7645V16.2757ZM94.0605 16.2757V17.2757H95.0605V16.2757H94.0605ZM94.0605 15.3477H95.0605V14.3477H94.0605V15.3477ZM89.3885 14.0037V13.0037H88.3885V14.0037H89.3885ZM95.5005 14.0037H96.5005V13.0037H95.5005V14.0037ZM95.5005 19.8277V20.8277H96.5005V19.8277H95.5005ZM89.3885 19.8277H88.3885V20.8277H89.3885V19.8277ZM96.2045 13.4597V14.4597H103.468V13.4597V12.4597H96.2045V13.4597ZM103.468 13.4597H102.468V24.8837H103.468H104.468V13.4597H103.468ZM103.468 24.8837V23.8837H101.756V24.8837V25.8837H103.468V24.8837ZM101.756 24.8837H102.756V15.1717H101.756H100.756V24.8837H101.756ZM101.756 15.1717V14.1717H97.8525V15.1717V16.1717H101.756V15.1717ZM97.8525 15.1717H96.8525V24.9957H97.8525H98.8525V15.1717H97.8525ZM97.8525 24.9957V23.9957H96.2045V24.9957V25.9957H97.8525V24.9957ZM96.2045 24.9957H97.2045V13.4597H96.2045H95.2045V24.9957H96.2045ZM97.0045 17.7797V18.7797H102.476V17.7797V16.7797H97.0045V17.7797ZM102.476 17.7797H101.476V19.4757H102.476H103.476V17.7797H102.476ZM102.476 19.4757V18.4757H97.0045V19.4757V20.4757H102.476V19.4757ZM97.0045 19.4757H98.0045V17.7797H97.0045H96.0045V19.4757H97.0045ZM97.0045 22.3397V23.3397H102.476V22.3397V21.3397H97.0045V22.3397ZM102.476 22.3397H101.476V24.0517H102.476H103.476V22.3397H102.476ZM102.476 24.0517V23.0517H97.0045V24.0517V25.0517H102.476V24.0517ZM97.0045 24.0517H98.0045V22.3397H97.0045H96.0045V24.0517H97.0045ZM98.8765 9.95566V10.9557H100.636V9.95566V8.95566H98.8765V9.95566ZM100.636 9.95566H99.6365V14.1957H100.636H101.636V9.95566H100.636ZM100.636 14.1957V13.1957H100.588V14.1957V15.1957H100.636V14.1957ZM100.588 14.1957H99.5885V23.3477H100.588H101.588V14.1957H100.588ZM100.588 23.3477V22.3477H98.9405V23.3477V24.3477H100.588V23.3477ZM98.9405 23.3477H99.9405V14.1957H98.9405H97.9405V23.3477H98.9405ZM98.9405 14.1957V13.1957H98.8765V14.1957V15.1957H98.9405V14.1957ZM98.8765 14.1957H99.8765V9.95566H98.8765H97.8765V14.1957H98.8765ZM89.0365 11.5077V12.5077H95.7245V11.5077V10.5077H89.0365V11.5077ZM95.7245 11.5077H94.7245V13.1557H95.7245H96.7245V11.5077H95.7245ZM95.7245 13.1557V12.1557H89.0365V13.1557V14.1557H95.7245V13.1557ZM89.0365 13.1557H90.0365V11.5077H89.0365H88.0365V13.1557H89.0365ZM88.8605 20.7717V21.7717H95.9165V20.7717V19.7717H88.8605V20.7717ZM95.9165 20.7717H94.9165V22.4517H95.9165H96.9165V20.7717H95.9165ZM95.9165 22.4517V21.4517H88.8605V22.4517V23.4517H95.9165V22.4517ZM88.8605 22.4517H89.8605V20.7717H88.8605H87.8605V22.4517H88.8605ZM91.5485 9.97166V10.9717H93.2605V9.97166V8.97166H91.5485V9.97166ZM93.2605 9.97166H92.2605V14.6437H93.2605H94.2605V9.97166H93.2605ZM93.2605 14.6437V13.6437H91.5485V14.6437V15.6437H93.2605V14.6437ZM91.5485 14.6437H92.5485V9.97166H91.5485H90.5485V14.6437H91.5485ZM91.7405 14.6597V15.6597H93.0365V14.6597V13.6597H91.7405V14.6597ZM93.0365 14.6597H92.0365V19.1077H93.0365H94.0365V14.6597H93.0365ZM93.0365 19.1077V20.1077H93.2605V19.1077V18.1077H93.0365V19.1077ZM93.2605 19.1077H92.2605V24.9797H93.2605H94.2605V19.1077H93.2605ZM93.2605 24.9797V23.9797H91.5485V24.9797V25.9797H93.2605V24.9797ZM91.5485 24.9797H92.5485V19.1077H91.5485H90.5485V24.9797H91.5485ZM91.5485 19.1077V20.1077H91.7405V19.1077V18.1077H91.5485V19.1077ZM91.7405 19.1077H92.7405V14.6597H91.7405H90.7405V19.1077H91.7405ZM90.7645 17.5397H89.7645V18.4837H90.7645H91.7645V17.5397H90.7645ZM90.7645 18.4837V19.4837H94.0605V18.4837V17.4837H90.7645V18.4837ZM94.0605 18.4837H95.0605V17.5397H94.0605H93.0605V18.4837H94.0605ZM94.0605 17.5397V16.5397H90.7645V17.5397V18.5397H94.0605V17.5397ZM90.7645 15.3477H89.7645V16.2757H90.7645H91.7645V15.3477H90.7645ZM90.7645 16.2757V17.2757H94.0605V16.2757V15.2757H90.7645V16.2757ZM94.0605 16.2757H95.0605V15.3477H94.0605H93.0605V16.2757H94.0605ZM94.0605 15.3477V14.3477H90.7645V15.3477V16.3477H94.0605V15.3477ZM89.3885 14.0037V15.0037H95.5005V14.0037V13.0037H89.3885V14.0037ZM95.5005 14.0037H94.5005V19.8277H95.5005H96.5005V14.0037H95.5005ZM95.5005 19.8277V18.8277H89.3885V19.8277V20.8277H95.5005V19.8277ZM89.3885 19.8277H90.3885V14.0037H89.3885H88.3885V19.8277H89.3885Z" fill="#71717A" mask="url(#path-26-outside-4_268_5712)"/>
<path d="M554.408 72.0076L587.553 56V72.0076L554.408 89V72.0076Z" fill="#363030" fill-opacity="0.5"/>
</svg>
