<svg width="799" height="223" viewBox="0 0 799 223" fill="none" xmlns="http://www.w3.org/2000/svg">
<path d="M554.202 85L230.202 85L230.202 183H554.202V85Z" fill="#4D4D4D" fill-opacity="0.5"/>
<path d="M211.202 34L0.202148 34L0.202148 183L211.202 183L211.202 34Z" fill="#ECECEC" fill-opacity="0.5"/>
<path d="M798.403 183.201L0 183.201L0 222.392L798.403 222.392V183.201Z" fill="#808080" fill-opacity="0.5"/>
<path d="M798.202 73L534.202 73V183H798.202V73Z" fill="#ECECEC" fill-opacity="0.5"/>
<path d="M798.202 34L211.202 34L211.202 73L798.202 73V34Z" fill="#ECECEC" fill-opacity="0.5"/>
<path d="M587.554 183L587.554 72L587.554 183Z" fill="#666666"/>
<path d="M587.554 183L587.554 72" stroke="#4D4D4D" stroke-width="0.23" stroke-miterlimit="5"/>
<path d="M287.244 0L0 0L0 34L41.6738 34L287.244 0Z" fill="#0081CC" fill-opacity="0.8"/>
<path d="M798.404 0L287.126 0L38.4502 34L224.221 34L295.837 34L798.404 34V0Z" fill="#0081CC" fill-opacity="0.8"/>
<path d="M732.456 6H677.369H656C653.791 6 652 7.79086 652 10V13.6364V26C652 28.2091 653.791 30 656 30H756C758.209 30 760 28.2091 760 26V13.6364V10C760 7.79086 758.209 6 756 6H732.456Z" fill="#3F3F46" stroke="#A1A1A1" stroke-opacity="0.5"/>
<mask id="path-11-outside-1_268_5780" maskUnits="userSpaceOnUse" x="690.412" y="7.95557" width="29" height="18" fill="black">
<rect fill="white" x="690.412" y="7.95557" width="29" height="18"/>
<path d="M702.175 15.3931H699.686C699.641 15.0711 699.548 14.7851 699.408 14.5351C699.268 14.2813 699.088 14.0654 698.868 13.8874C698.648 13.7094 698.395 13.573 698.107 13.4783C697.823 13.3836 697.514 13.3362 697.181 13.3362C696.578 13.3362 696.054 13.4859 695.607 13.7851C695.16 14.0806 694.813 14.5124 694.567 15.0806C694.321 15.645 694.198 16.3306 694.198 17.1374C694.198 17.9669 694.321 18.6639 694.567 19.2283C694.817 19.7927 695.165 20.2188 695.612 20.5067C696.059 20.7946 696.576 20.9385 697.164 20.9385C697.493 20.9385 697.798 20.895 698.078 20.8078C698.362 20.7207 698.614 20.5938 698.834 20.4272C699.054 20.2567 699.236 20.0503 699.379 19.8078C699.527 19.5654 699.629 19.2889 699.686 18.9783L702.175 18.9897C702.111 19.5237 701.95 20.0389 701.692 20.5351C701.438 21.0275 701.095 21.4688 700.664 21.859C700.235 22.2453 699.724 22.5522 699.129 22.7794C698.539 23.0029 697.87 23.1147 697.124 23.1147C696.086 23.1147 695.158 22.8798 694.34 22.4101C693.525 21.9404 692.881 21.2605 692.408 20.3703C691.938 19.4802 691.703 18.4025 691.703 17.1374C691.703 15.8684 691.942 14.7889 692.419 13.8987C692.896 13.0086 693.544 12.3306 694.362 11.8647C695.181 11.395 696.101 11.1601 697.124 11.1601C697.798 11.1601 698.423 11.2548 698.999 11.4442C699.578 11.6336 700.092 11.9101 700.539 12.2737C700.985 12.6336 701.349 13.0749 701.629 13.5976C701.914 14.1203 702.095 14.7188 702.175 15.3931ZM710.736 12.8596H718V24.2836H716.288V14.5716H712.384V24.3956H710.736V12.8596ZM711.536 17.1796H717.008V18.8756H711.536V17.1796ZM711.536 21.7396H717.008V23.4516H711.536V21.7396ZM713.408 9.35557H715.168V13.5956H715.12V22.7476H713.472V13.5956H713.408V9.35557ZM703.568 10.9076H710.256V12.5556H703.568V10.9076ZM703.392 20.1716H710.448V21.8516H703.392V20.1716ZM706.08 9.37157H707.792V14.0436H706.08V9.37157ZM706.272 14.0596H707.568V18.5076H707.792V24.3796H706.08V18.5076H706.272V14.0596ZM705.296 16.9396V17.8836H708.592V16.9396H705.296ZM705.296 14.7476V15.6756H708.592V14.7476H705.296ZM703.92 13.4036H710.032V19.2276H703.92V13.4036Z"/>
</mask>
<path d="M702.175 15.3931H699.686C699.641 15.0711 699.548 14.7851 699.408 14.5351C699.268 14.2813 699.088 14.0654 698.868 13.8874C698.648 13.7094 698.395 13.573 698.107 13.4783C697.823 13.3836 697.514 13.3362 697.181 13.3362C696.578 13.3362 696.054 13.4859 695.607 13.7851C695.16 14.0806 694.813 14.5124 694.567 15.0806C694.321 15.645 694.198 16.3306 694.198 17.1374C694.198 17.9669 694.321 18.6639 694.567 19.2283C694.817 19.7927 695.165 20.2188 695.612 20.5067C696.059 20.7946 696.576 20.9385 697.164 20.9385C697.493 20.9385 697.798 20.895 698.078 20.8078C698.362 20.7207 698.614 20.5938 698.834 20.4272C699.054 20.2567 699.236 20.0503 699.379 19.8078C699.527 19.5654 699.629 19.2889 699.686 18.9783L702.175 18.9897C702.111 19.5237 701.95 20.0389 701.692 20.5351C701.438 21.0275 701.095 21.4688 700.664 21.859C700.235 22.2453 699.724 22.5522 699.129 22.7794C698.539 23.0029 697.87 23.1147 697.124 23.1147C696.086 23.1147 695.158 22.8798 694.34 22.4101C693.525 21.9404 692.881 21.2605 692.408 20.3703C691.938 19.4802 691.703 18.4025 691.703 17.1374C691.703 15.8684 691.942 14.7889 692.419 13.8987C692.896 13.0086 693.544 12.3306 694.362 11.8647C695.181 11.395 696.101 11.1601 697.124 11.1601C697.798 11.1601 698.423 11.2548 698.999 11.4442C699.578 11.6336 700.092 11.9101 700.539 12.2737C700.985 12.6336 701.349 13.0749 701.629 13.5976C701.914 14.1203 702.095 14.7188 702.175 15.3931ZM710.736 12.8596H718V24.2836H716.288V14.5716H712.384V24.3956H710.736V12.8596ZM711.536 17.1796H717.008V18.8756H711.536V17.1796ZM711.536 21.7396H717.008V23.4516H711.536V21.7396ZM713.408 9.35557H715.168V13.5956H715.12V22.7476H713.472V13.5956H713.408V9.35557ZM703.568 10.9076H710.256V12.5556H703.568V10.9076ZM703.392 20.1716H710.448V21.8516H703.392V20.1716ZM706.08 9.37157H707.792V14.0436H706.08V9.37157ZM706.272 14.0596H707.568V18.5076H707.792V24.3796H706.08V18.5076H706.272V14.0596ZM705.296 16.9396V17.8836H708.592V16.9396H705.296ZM705.296 14.7476V15.6756H708.592V14.7476H705.296ZM703.92 13.4036H710.032V19.2276H703.92V13.4036Z" fill="#FAFAFA"/>
<path d="M702.175 15.3931V16.3931H703.3L703.168 15.2759L702.175 15.3931ZM699.686 15.3931L698.696 15.5329L698.818 16.3931H699.686V15.3931ZM699.408 14.5351L698.532 15.0185L698.536 15.0241L699.408 14.5351ZM698.868 13.8874L698.238 14.6643L698.238 14.6643L698.868 13.8874ZM698.107 13.4783L697.79 14.427L697.794 14.4282L698.107 13.4783ZM695.607 13.7851L696.158 14.6193L696.163 14.6161L695.607 13.7851ZM694.567 15.0806L695.484 15.4804L695.484 15.4782L694.567 15.0806ZM694.567 19.2283L693.65 19.6282L693.653 19.6333L694.567 19.2283ZM695.612 20.5067L695.071 21.3474H695.071L695.612 20.5067ZM698.078 20.8078L697.785 19.8518L697.781 19.8529L698.078 20.8078ZM698.834 20.4272L699.438 21.2239L699.447 21.2172L698.834 20.4272ZM699.379 19.8078L698.525 19.2874L698.52 19.2973L699.379 19.8078ZM699.686 18.9783L699.691 17.9783L698.853 17.9745L698.703 18.7984L699.686 18.9783ZM702.175 18.9897L703.168 19.1094L703.302 17.9948L702.179 17.9897L702.175 18.9897ZM701.692 20.5351L700.804 20.0744L700.803 20.077L701.692 20.5351ZM700.664 21.859L701.334 22.6013L701.334 22.601L700.664 21.859ZM699.129 22.7794L699.483 23.7148L699.486 23.7135L699.129 22.7794ZM694.34 22.4101L693.84 23.2764L693.842 23.2774L694.34 22.4101ZM692.408 20.3703L691.523 20.837L691.525 20.84L692.408 20.3703ZM692.419 13.8987L693.301 14.3713L693.301 14.3713L692.419 13.8987ZM694.362 11.8647L694.857 12.7336L694.86 12.7319L694.362 11.8647ZM698.999 11.4442L698.686 12.3941L698.688 12.3947L698.999 11.4442ZM700.539 12.2737L699.907 13.0495L699.911 13.0527L700.539 12.2737ZM701.629 13.5976L700.748 14.0702L700.751 14.0751L701.629 13.5976ZM702.175 15.3931V14.3931H699.686V15.3931V16.3931H702.175V15.3931ZM699.686 15.3931L700.676 15.2533C700.616 14.825 700.488 14.4177 700.28 14.0461L699.408 14.5351L698.536 15.0241C698.608 15.1525 698.666 15.3172 698.696 15.5329L699.686 15.3931ZM699.408 14.5351L700.283 14.0517C700.082 13.6881 699.82 13.3716 699.498 13.1105L698.868 13.8874L698.238 14.6643C698.356 14.7592 698.453 14.8746 698.532 15.0185L699.408 14.5351ZM698.868 13.8874L699.498 13.1105C699.177 12.8507 698.814 12.6583 698.419 12.5284L698.107 13.4783L697.794 14.4282C697.975 14.4877 698.12 14.5681 698.238 14.6643L698.868 13.8874ZM698.107 13.4783L698.423 12.5296C698.026 12.3973 697.609 12.3362 697.181 12.3362V13.3362V14.3362C697.418 14.3362 697.619 14.3699 697.79 14.427L698.107 13.4783ZM697.181 13.3362V12.3362C696.405 12.3362 695.681 12.5318 695.05 12.9541L695.607 13.7851L696.163 14.6161C696.426 14.44 696.752 14.3362 697.181 14.3362V13.3362ZM695.607 13.7851L695.055 12.9509C694.422 13.3692 693.96 13.9652 693.649 14.683L694.567 15.0806L695.484 15.4782C695.666 15.0596 695.897 14.792 696.158 14.6193L695.607 13.7851ZM694.567 15.0806L693.65 14.6807C693.335 15.4039 693.198 16.2337 693.198 17.1374H694.198H695.198C695.198 16.4275 695.307 15.8861 695.484 15.4804L694.567 15.0806ZM694.198 17.1374H693.198C693.198 18.0594 693.334 18.902 693.65 19.6281L694.567 19.2283L695.484 18.8284C695.308 18.4258 695.198 17.8744 695.198 17.1374H694.198ZM694.567 19.2283L693.653 19.6333C693.969 20.3468 694.435 20.9376 695.071 21.3474L695.612 20.5067L696.154 19.666C695.896 19.5 695.665 19.2386 695.481 18.8233L694.567 19.2283ZM695.612 20.5067L695.071 21.3474C695.696 21.75 696.405 21.9385 697.164 21.9385V20.9385V19.9385C696.748 19.9385 696.423 19.8392 696.154 19.666L695.612 20.5067ZM697.164 20.9385V21.9385C697.582 21.9385 697.988 21.8832 698.375 21.7628L698.078 20.8078L697.781 19.8529C697.608 19.9067 697.405 19.9385 697.164 19.9385V20.9385ZM698.078 20.8078L698.371 21.7639C698.759 21.645 699.118 21.4668 699.438 21.2238L698.834 20.4272L698.23 19.6305C698.11 19.7208 697.966 19.7964 697.785 19.8518L698.078 20.8078ZM698.834 20.4272L699.447 21.2172C699.767 20.9688 700.032 20.6671 700.239 20.3184L699.379 19.8078L698.52 19.2973C698.439 19.4334 698.34 19.5446 698.221 19.6371L698.834 20.4272ZM699.379 19.8078L700.233 20.3282C700.452 19.9701 700.594 19.5758 700.67 19.1582L699.686 18.9783L698.703 18.7984C698.665 19.002 698.603 19.1607 698.525 19.2875L699.379 19.8078ZM699.686 18.9783L699.682 19.9783L702.17 19.9896L702.175 18.9897L702.179 17.9897L699.691 17.9783L699.686 18.9783ZM702.175 18.9897L701.182 18.87C701.133 19.2803 701.009 19.6804 700.804 20.0744L701.692 20.5351L702.579 20.9958C702.89 20.3974 703.088 19.7672 703.168 19.1094L702.175 18.9897ZM701.692 20.5351L700.803 20.077C700.607 20.4571 700.34 20.8034 699.993 21.117L700.664 21.859L701.334 22.601C701.851 22.1342 702.269 21.598 702.581 20.9932L701.692 20.5351ZM700.664 21.859L699.993 21.1167C699.666 21.4121 699.264 21.6575 698.772 21.8453L699.129 22.7794L699.486 23.7135C700.184 23.4468 700.805 23.0785 701.334 22.6013L700.664 21.859ZM699.129 22.7794L698.776 21.8441C698.316 22.0178 697.771 22.1147 697.124 22.1147V23.1147V24.1147C697.969 24.1147 698.761 23.988 699.483 23.7148L699.129 22.7794ZM697.124 23.1147V22.1147C696.243 22.1147 695.489 21.9171 694.838 21.5429L694.34 22.4101L693.842 23.2774C694.826 23.8426 695.929 24.1147 697.124 24.1147V23.1147ZM694.34 22.4101L694.839 21.5439C694.199 21.1747 693.683 20.6378 693.291 19.9007L692.408 20.3703L691.525 20.84C692.08 21.8831 692.851 22.7062 693.84 23.2764L694.34 22.4101ZM692.408 20.3703L693.292 19.9037C692.916 19.1897 692.703 18.2808 692.703 17.1374H691.703H690.703C690.703 18.5243 690.961 19.7707 691.523 20.837L692.408 20.3703ZM691.703 17.1374H692.703C692.703 15.9919 692.919 15.0835 693.301 14.3713L692.419 13.8987L691.538 13.4262C690.965 14.4943 690.703 15.745 690.703 17.1374H691.703ZM692.419 13.8987L693.301 14.3713C693.696 13.6344 694.215 13.0996 694.857 12.7336L694.362 11.8647L693.868 10.9957C692.874 11.5615 692.097 12.3828 691.538 13.4262L692.419 13.8987ZM694.362 11.8647L694.86 12.7319C695.514 12.3564 696.261 12.1601 697.124 12.1601V11.1601V10.1601C695.941 10.1601 694.847 10.4335 693.865 10.9974L694.362 11.8647ZM697.124 11.1601V12.1601C697.704 12.1601 698.222 12.2414 698.686 12.3941L698.999 11.4442L699.311 10.4943C698.624 10.2682 697.892 10.1601 697.124 10.1601V11.1601ZM698.999 11.4442L698.688 12.3947C699.158 12.5482 699.561 12.7677 699.907 13.0495L700.539 12.2737L701.17 11.498C700.622 11.0525 699.999 10.7189 699.309 10.4937L698.999 11.4442ZM700.539 12.2737L699.911 13.0527C700.25 13.3256 700.529 13.6615 700.748 14.0702L701.629 13.5976L702.511 13.125C702.169 12.4883 701.721 11.9416 701.166 11.4948L700.539 12.2737ZM701.629 13.5976L700.751 14.0751C700.966 14.4715 701.115 14.9446 701.182 15.5102L702.175 15.3931L703.168 15.2759C703.076 14.493 702.861 13.7692 702.508 13.1201L701.629 13.5976ZM710.736 12.8596V11.8596H709.736V12.8596H710.736ZM718 12.8596H719V11.8596H718V12.8596ZM718 24.2836V25.2836H719V24.2836H718ZM716.288 24.2836H715.288V25.2836H716.288V24.2836ZM716.288 14.5716H717.288V13.5716H716.288V14.5716ZM712.384 14.5716V13.5716H711.384V14.5716H712.384ZM712.384 24.3956V25.3956H713.384V24.3956H712.384ZM710.736 24.3956H709.736V25.3956H710.736V24.3956ZM711.536 17.1796V16.1796H710.536V17.1796H711.536ZM717.008 17.1796H718.008V16.1796H717.008V17.1796ZM717.008 18.8756V19.8756H718.008V18.8756H717.008ZM711.536 18.8756H710.536V19.8756H711.536V18.8756ZM711.536 21.7396V20.7396H710.536V21.7396H711.536ZM717.008 21.7396H718.008V20.7396H717.008V21.7396ZM717.008 23.4516V24.4516H718.008V23.4516H717.008ZM711.536 23.4516H710.536V24.4516H711.536V23.4516ZM713.408 9.35557V8.35557H712.408V9.35557H713.408ZM715.168 9.35557H716.168V8.35557H715.168V9.35557ZM715.168 13.5956V14.5956H716.168V13.5956H715.168ZM715.12 13.5956V12.5956H714.12V13.5956H715.12ZM715.12 22.7476V23.7476H716.12V22.7476H715.12ZM713.472 22.7476H712.472V23.7476H713.472V22.7476ZM713.472 13.5956H714.472V12.5956H713.472V13.5956ZM713.408 13.5956H712.408V14.5956H713.408V13.5956ZM703.568 10.9076V9.90757H702.568V10.9076H703.568ZM710.256 10.9076H711.256V9.90757H710.256V10.9076ZM710.256 12.5556V13.5556H711.256V12.5556H710.256ZM703.568 12.5556H702.568V13.5556H703.568V12.5556ZM703.392 20.1716V19.1716H702.392V20.1716H703.392ZM710.448 20.1716H711.448V19.1716H710.448V20.1716ZM710.448 21.8516V22.8516H711.448V21.8516H710.448ZM703.392 21.8516H702.392V22.8516H703.392V21.8516ZM706.08 9.37157V8.37157H705.08V9.37157H706.08ZM707.792 9.37157H708.792V8.37157H707.792V9.37157ZM707.792 14.0436V15.0436H708.792V14.0436H707.792ZM706.08 14.0436H705.08V15.0436H706.08V14.0436ZM706.272 14.0596V13.0596H705.272V14.0596H706.272ZM707.568 14.0596H708.568V13.0596H707.568V14.0596ZM707.568 18.5076H706.568V19.5076H707.568V18.5076ZM707.792 18.5076H708.792V17.5076H707.792V18.5076ZM707.792 24.3796V25.3796H708.792V24.3796H707.792ZM706.08 24.3796H705.08V25.3796H706.08V24.3796ZM706.08 18.5076V17.5076H705.08V18.5076H706.08ZM706.272 18.5076V19.5076H707.272V18.5076H706.272ZM705.296 16.9396V15.9396H704.296V16.9396H705.296ZM705.296 17.8836H704.296V18.8836H705.296V17.8836ZM708.592 17.8836V18.8836H709.592V17.8836H708.592ZM708.592 16.9396H709.592V15.9396H708.592V16.9396ZM705.296 14.7476V13.7476H704.296V14.7476H705.296ZM705.296 15.6756H704.296V16.6756H705.296V15.6756ZM708.592 15.6756V16.6756H709.592V15.6756H708.592ZM708.592 14.7476H709.592V13.7476H708.592V14.7476ZM703.92 13.4036V12.4036H702.92V13.4036H703.92ZM710.032 13.4036H711.032V12.4036H710.032V13.4036ZM710.032 19.2276V20.2276H711.032V19.2276H710.032ZM703.92 19.2276H702.92V20.2276H703.92V19.2276ZM710.736 12.8596V13.8596H718V12.8596V11.8596H710.736V12.8596ZM718 12.8596H717V24.2836H718H719V12.8596H718ZM718 24.2836V23.2836H716.288V24.2836V25.2836H718V24.2836ZM716.288 24.2836H717.288V14.5716H716.288H715.288V24.2836H716.288ZM716.288 14.5716V13.5716H712.384V14.5716V15.5716H716.288V14.5716ZM712.384 14.5716H711.384V24.3956H712.384H713.384V14.5716H712.384ZM712.384 24.3956V23.3956H710.736V24.3956V25.3956H712.384V24.3956ZM710.736 24.3956H711.736V12.8596H710.736H709.736V24.3956H710.736ZM711.536 17.1796V18.1796H717.008V17.1796V16.1796H711.536V17.1796ZM717.008 17.1796H716.008V18.8756H717.008H718.008V17.1796H717.008ZM717.008 18.8756V17.8756H711.536V18.8756V19.8756H717.008V18.8756ZM711.536 18.8756H712.536V17.1796H711.536H710.536V18.8756H711.536ZM711.536 21.7396V22.7396H717.008V21.7396V20.7396H711.536V21.7396ZM717.008 21.7396H716.008V23.4516H717.008H718.008V21.7396H717.008ZM717.008 23.4516V22.4516H711.536V23.4516V24.4516H717.008V23.4516ZM711.536 23.4516H712.536V21.7396H711.536H710.536V23.4516H711.536ZM713.408 9.35557V10.3556H715.168V9.35557V8.35557H713.408V9.35557ZM715.168 9.35557H714.168V13.5956H715.168H716.168V9.35557H715.168ZM715.168 13.5956V12.5956H715.12V13.5956V14.5956H715.168V13.5956ZM715.12 13.5956H714.12V22.7476H715.12H716.12V13.5956H715.12ZM715.12 22.7476V21.7476H713.472V22.7476V23.7476H715.12V22.7476ZM713.472 22.7476H714.472V13.5956H713.472H712.472V22.7476H713.472ZM713.472 13.5956V12.5956H713.408V13.5956V14.5956H713.472V13.5956ZM713.408 13.5956H714.408V9.35557H713.408H712.408V13.5956H713.408ZM703.568 10.9076V11.9076H710.256V10.9076V9.90757H703.568V10.9076ZM710.256 10.9076H709.256V12.5556H710.256H711.256V10.9076H710.256ZM710.256 12.5556V11.5556H703.568V12.5556V13.5556H710.256V12.5556ZM703.568 12.5556H704.568V10.9076H703.568H702.568V12.5556H703.568ZM703.392 20.1716V21.1716H710.448V20.1716V19.1716H703.392V20.1716ZM710.448 20.1716H709.448V21.8516H710.448H711.448V20.1716H710.448ZM710.448 21.8516V20.8516H703.392V21.8516V22.8516H710.448V21.8516ZM703.392 21.8516H704.392V20.1716H703.392H702.392V21.8516H703.392ZM706.08 9.37157V10.3716H707.792V9.37157V8.37157H706.08V9.37157ZM707.792 9.37157H706.792V14.0436H707.792H708.792V9.37157H707.792ZM707.792 14.0436V13.0436H706.08V14.0436V15.0436H707.792V14.0436ZM706.08 14.0436H707.08V9.37157H706.08H705.08V14.0436H706.08ZM706.272 14.0596V15.0596H707.568V14.0596V13.0596H706.272V14.0596ZM707.568 14.0596H706.568V18.5076H707.568H708.568V14.0596H707.568ZM707.568 18.5076V19.5076H707.792V18.5076V17.5076H707.568V18.5076ZM707.792 18.5076H706.792V24.3796H707.792H708.792V18.5076H707.792ZM707.792 24.3796V23.3796H706.08V24.3796V25.3796H707.792V24.3796ZM706.08 24.3796H707.08V18.5076H706.08H705.08V24.3796H706.08ZM706.08 18.5076V19.5076H706.272V18.5076V17.5076H706.08V18.5076ZM706.272 18.5076H707.272V14.0596H706.272H705.272V18.5076H706.272ZM705.296 16.9396H704.296V17.8836H705.296H706.296V16.9396H705.296ZM705.296 17.8836V18.8836H708.592V17.8836V16.8836H705.296V17.8836ZM708.592 17.8836H709.592V16.9396H708.592H707.592V17.8836H708.592ZM708.592 16.9396V15.9396H705.296V16.9396V17.9396H708.592V16.9396ZM705.296 14.7476H704.296V15.6756H705.296H706.296V14.7476H705.296ZM705.296 15.6756V16.6756H708.592V15.6756V14.6756H705.296V15.6756ZM708.592 15.6756H709.592V14.7476H708.592H707.592V15.6756H708.592ZM708.592 14.7476V13.7476H705.296V14.7476V15.7476H708.592V14.7476ZM703.92 13.4036V14.4036H710.032V13.4036V12.4036H703.92V13.4036ZM710.032 13.4036H709.032V19.2276H710.032H711.032V13.4036H710.032ZM710.032 19.2276V18.2276H703.92V19.2276V20.2276H710.032V19.2276ZM703.92 19.2276H704.92V13.4036H703.92H702.92V19.2276H703.92Z" fill="#71717A" mask="url(#path-11-outside-1_268_5780)"/>
<path d="M410.456 7H355.369H334C331.791 7 330 8.79086 330 11V14.6364V27C330 29.2091 331.791 31 334 31H434C436.209 31 438 29.2091 438 27V14.6364V11C438 8.79086 436.209 7 434 7H410.456Z" fill="#3F3F46" stroke="#A1A1A1" stroke-opacity="0.5"/>
<mask id="path-14-outside-2_268_5780" maskUnits="userSpaceOnUse" x="368.412" y="9.55566" width="28" height="18" fill="black">
<rect fill="white" x="368.412" y="9.55566" width="28" height="18"/>
<path d="M370.134 24.5557V12.9193H374.794C375.65 12.9193 376.364 13.0462 376.936 13.3C377.508 13.5538 377.937 13.906 378.225 14.3568C378.513 14.8038 378.657 15.3189 378.657 15.9023C378.657 16.3568 378.566 16.7564 378.384 17.1011C378.203 17.442 377.953 17.7223 377.634 17.942C377.32 18.1579 376.96 18.3113 376.555 18.4023V18.5159C376.998 18.5348 377.413 18.6598 377.799 18.8909C378.189 19.122 378.506 19.4458 378.748 19.8625C378.99 20.2754 379.112 20.7678 379.112 21.3398C379.112 21.9572 378.958 22.5083 378.651 22.9932C378.348 23.4742 377.9 23.8549 377.305 24.1352C376.71 24.4155 375.977 24.5557 375.106 24.5557H370.134ZM372.595 22.5443H374.6C375.286 22.5443 375.786 22.4136 376.1 22.1523C376.415 21.8871 376.572 21.5348 376.572 21.0954C376.572 20.7735 376.494 20.4894 376.339 20.2432C376.184 19.997 375.962 19.8038 375.674 19.6636C375.39 19.5235 375.051 19.4534 374.657 19.4534H372.595V22.5443ZM372.595 17.7886H374.419C374.756 17.7886 375.055 17.7299 375.316 17.6125C375.581 17.4913 375.79 17.3208 375.941 17.1011C376.097 16.8814 376.174 16.6182 376.174 16.3113C376.174 15.8909 376.025 15.5519 375.725 15.2943C375.43 15.0367 375.009 14.9079 374.464 14.9079H372.595V17.7886ZM387.509 14.4597H394.773V25.8837H393.061V16.1717H389.157V25.9957H387.509V14.4597ZM388.309 18.7797H393.781V20.4757H388.309V18.7797ZM388.309 23.3397H393.781V25.0517H388.309V23.3397ZM390.181 10.9557H391.941V15.1957H391.893V24.3477H390.245V15.1957H390.181V10.9557ZM380.341 12.5077H387.029V14.1557H380.341V12.5077ZM380.165 21.7717H387.221V23.4517H380.165V21.7717ZM382.853 10.9717H384.565V15.6437H382.853V10.9717ZM383.045 15.6597H384.341V20.1077H384.565V25.9797H382.853V20.1077H383.045V15.6597ZM382.069 18.5397V19.4837H385.365V18.5397H382.069ZM382.069 16.3477V17.2757H385.365V16.3477H382.069ZM380.693 15.0037H386.805V20.8277H380.693V15.0037Z"/>
</mask>
<path d="M370.134 24.5557V12.9193H374.794C375.65 12.9193 376.364 13.0462 376.936 13.3C377.508 13.5538 377.937 13.906 378.225 14.3568C378.513 14.8038 378.657 15.3189 378.657 15.9023C378.657 16.3568 378.566 16.7564 378.384 17.1011C378.203 17.442 377.953 17.7223 377.634 17.942C377.32 18.1579 376.96 18.3113 376.555 18.4023V18.5159C376.998 18.5348 377.413 18.6598 377.799 18.8909C378.189 19.122 378.506 19.4458 378.748 19.8625C378.99 20.2754 379.112 20.7678 379.112 21.3398C379.112 21.9572 378.958 22.5083 378.651 22.9932C378.348 23.4742 377.9 23.8549 377.305 24.1352C376.71 24.4155 375.977 24.5557 375.106 24.5557H370.134ZM372.595 22.5443H374.6C375.286 22.5443 375.786 22.4136 376.1 22.1523C376.415 21.8871 376.572 21.5348 376.572 21.0954C376.572 20.7735 376.494 20.4894 376.339 20.2432C376.184 19.997 375.962 19.8038 375.674 19.6636C375.39 19.5235 375.051 19.4534 374.657 19.4534H372.595V22.5443ZM372.595 17.7886H374.419C374.756 17.7886 375.055 17.7299 375.316 17.6125C375.581 17.4913 375.79 17.3208 375.941 17.1011C376.097 16.8814 376.174 16.6182 376.174 16.3113C376.174 15.8909 376.025 15.5519 375.725 15.2943C375.43 15.0367 375.009 14.9079 374.464 14.9079H372.595V17.7886ZM387.509 14.4597H394.773V25.8837H393.061V16.1717H389.157V25.9957H387.509V14.4597ZM388.309 18.7797H393.781V20.4757H388.309V18.7797ZM388.309 23.3397H393.781V25.0517H388.309V23.3397ZM390.181 10.9557H391.941V15.1957H391.893V24.3477H390.245V15.1957H390.181V10.9557ZM380.341 12.5077H387.029V14.1557H380.341V12.5077ZM380.165 21.7717H387.221V23.4517H380.165V21.7717ZM382.853 10.9717H384.565V15.6437H382.853V10.9717ZM383.045 15.6597H384.341V20.1077H384.565V25.9797H382.853V20.1077H383.045V15.6597ZM382.069 18.5397V19.4837H385.365V18.5397H382.069ZM382.069 16.3477V17.2757H385.365V16.3477H382.069ZM380.693 15.0037H386.805V20.8277H380.693V15.0037Z" fill="#FAFAFA"/>
<path d="M370.134 24.5557H369.134V25.5557H370.134V24.5557ZM370.134 12.9193V11.9193H369.134V12.9193H370.134ZM376.936 13.3L376.53 14.214V14.214L376.936 13.3ZM378.225 14.3568L377.383 14.8951L377.385 14.8983L378.225 14.3568ZM378.384 17.1011L379.267 17.5717L379.269 17.5677L378.384 17.1011ZM377.634 17.942L378.201 18.7664L378.203 18.7649L377.634 17.942ZM376.555 18.4023L376.336 17.4265L375.555 17.6017V18.4023H376.555ZM376.555 18.5159H375.555V19.4741L376.512 19.515L376.555 18.5159ZM377.799 18.8909L377.286 19.7491L377.29 19.7513L377.799 18.8909ZM378.748 19.8625L377.884 20.3654L377.886 20.3688L378.748 19.8625ZM378.651 22.9932L377.806 22.4584L377.805 22.4602L378.651 22.9932ZM377.305 24.1352L376.879 23.2307V23.2307L377.305 24.1352ZM372.595 22.5443H371.595V23.5443H372.595V22.5443ZM376.1 22.1523L376.74 22.9213L376.745 22.9167L376.1 22.1523ZM376.339 20.2432L375.493 20.7767V20.7767L376.339 20.2432ZM375.674 19.6636L375.232 20.5604L375.236 20.5627L375.674 19.6636ZM372.595 19.4534V18.4534H371.595V19.4534H372.595ZM372.595 17.7886H371.595V18.7886H372.595V17.7886ZM375.316 17.6125L375.726 18.5247L375.732 18.522L375.316 17.6125ZM375.941 17.1011L375.125 16.5238L375.118 16.5334L375.941 17.1011ZM375.725 15.2943L375.068 16.0481L375.073 16.0522L375.725 15.2943ZM372.595 14.9079V13.9079H371.595V14.9079H372.595ZM370.134 24.5557H371.134V12.9193H370.134H369.134V24.5557H370.134ZM370.134 12.9193V13.9193H374.794V12.9193V11.9193H370.134V12.9193ZM374.794 12.9193V13.9193C375.558 13.9193 376.124 14.0337 376.53 14.214L376.936 13.3L377.341 12.3859C376.604 12.0587 375.741 11.9193 374.794 11.9193V12.9193ZM376.936 13.3L376.53 14.214C376.954 14.402 377.217 14.6363 377.383 14.8951L378.225 14.3568L379.068 13.8186C378.658 13.1757 378.061 12.7055 377.341 12.3859L376.936 13.3ZM378.225 14.3568L377.385 14.8983C377.558 15.1682 377.657 15.4916 377.657 15.9023H378.657H379.657C379.657 15.1463 379.468 14.4393 379.066 13.8153L378.225 14.3568ZM378.657 15.9023H377.657C377.657 16.2213 377.594 16.4559 377.5 16.6346L378.384 17.1011L379.269 17.5677C379.538 17.0569 379.657 16.4923 379.657 15.9023H378.657ZM378.384 17.1011L377.502 16.6305C377.395 16.8305 377.253 16.99 377.066 17.1191L377.634 17.942L378.203 18.7649C378.652 18.4546 379.01 18.0536 379.267 17.5717L378.384 17.1011ZM377.634 17.942L377.068 17.1177C376.868 17.2553 376.628 17.361 376.336 17.4265L376.555 18.4023L376.774 19.378C377.292 19.2617 377.772 19.0606 378.201 18.7664L377.634 17.942ZM376.555 18.4023H375.555V18.5159H376.555H377.555V18.4023H376.555ZM376.555 18.5159L376.512 19.515C376.787 19.5267 377.04 19.6021 377.286 19.7491L377.799 18.8909L378.312 18.0327C377.786 17.7176 377.209 17.543 376.598 17.5168L376.555 18.5159ZM377.799 18.8909L377.29 19.7513C377.524 19.8899 377.721 20.0866 377.884 20.3654L378.748 19.8625L379.612 19.3596C379.29 18.8051 378.855 18.354 378.309 18.0305L377.799 18.8909ZM378.748 19.8625L377.886 20.3688C378.022 20.6007 378.112 20.911 378.112 21.3398H379.112H380.112C380.112 20.6245 379.959 19.95 379.61 19.3562L378.748 19.8625ZM379.112 21.3398H378.112C378.112 21.7829 378.004 22.1458 377.806 22.4584L378.651 22.9932L379.496 23.5279C379.912 22.8708 380.112 22.1315 380.112 21.3398H379.112ZM378.651 22.9932L377.805 22.4602C377.619 22.7559 377.328 23.0187 376.879 23.2307L377.305 24.1352L377.731 25.0398C378.471 24.6912 379.078 24.1925 379.498 23.5262L378.651 22.9932ZM377.305 24.1352L376.879 23.2307C376.453 23.4312 375.876 23.5557 375.106 23.5557V24.5557V25.5557C376.079 25.5557 376.967 25.3999 377.731 25.0398L377.305 24.1352ZM375.106 24.5557V23.5557H370.134V24.5557V25.5557H375.106V24.5557ZM372.595 22.5443V23.5443H374.6V22.5443V21.5443H372.595V22.5443ZM374.6 22.5443V23.5443C375.374 23.5443 376.159 23.404 376.74 22.9212L376.1 22.1523L375.461 21.3833C375.413 21.4233 375.198 21.5443 374.6 21.5443V22.5443ZM376.1 22.1523L376.745 22.9167C377.302 22.4472 377.572 21.8066 377.572 21.0954H376.572H375.572C375.572 21.2631 375.528 21.327 375.456 21.3878L376.1 22.1523ZM376.572 21.0954H377.572C377.572 20.6053 377.451 20.1322 377.185 19.7097L376.339 20.2432L375.493 20.7767C375.537 20.8465 375.572 20.9416 375.572 21.0954H376.572ZM376.339 20.2432L377.185 19.7097C376.92 19.2905 376.55 18.9777 376.112 18.7645L375.674 19.6636L375.236 20.5627C375.374 20.6298 375.447 20.7034 375.493 20.7767L376.339 20.2432ZM375.674 19.6636L376.117 18.7668C375.666 18.5443 375.168 18.4534 374.657 18.4534V19.4534V20.4534C374.934 20.4534 375.115 20.5027 375.232 20.5604L375.674 19.6636ZM374.657 19.4534V18.4534H372.595V19.4534V20.4534H374.657V19.4534ZM372.595 19.4534H371.595V22.5443H372.595H373.595V19.4534H372.595ZM372.595 17.7886V18.7886H374.419V17.7886V16.7886H372.595V17.7886ZM374.419 17.7886V18.7886C374.872 18.7886 375.315 18.7093 375.726 18.5247L375.316 17.6125L374.906 16.7003C374.795 16.7505 374.639 16.7886 374.419 16.7886V17.7886ZM375.316 17.6125L375.732 18.522C376.146 18.3329 376.501 18.0507 376.764 17.6689L375.941 17.1011L375.118 16.5334C375.078 16.5909 375.017 16.6497 374.9 16.703L375.316 17.6125ZM375.941 17.1011L376.758 17.6784C377.049 17.2668 377.174 16.7948 377.174 16.3113H376.174H375.174C375.174 16.4415 375.144 16.496 375.125 16.5239L375.941 17.1011ZM376.174 16.3113H377.174C377.174 15.6212 376.913 14.9975 376.378 14.5364L375.725 15.2943L375.073 16.0522C375.136 16.1062 375.174 16.1606 375.174 16.3113H376.174ZM375.725 15.2943L376.382 14.5405C375.845 14.0716 375.157 13.9079 374.464 13.9079V14.9079V15.9079C374.862 15.9079 375.015 16.0019 375.068 16.0481L375.725 15.2943ZM374.464 14.9079V13.9079H372.595V14.9079V15.9079H374.464V14.9079ZM372.595 14.9079H371.595V17.7886H372.595H373.595V14.9079H372.595ZM387.509 14.4597V13.4597H386.509V14.4597H387.509ZM394.773 14.4597H395.773V13.4597H394.773V14.4597ZM394.773 25.8837V26.8837H395.773V25.8837H394.773ZM393.061 25.8837H392.061V26.8837H393.061V25.8837ZM393.061 16.1717H394.061V15.1717H393.061V16.1717ZM389.157 16.1717V15.1717H388.157V16.1717H389.157ZM389.157 25.9957V26.9957H390.157V25.9957H389.157ZM387.509 25.9957H386.509V26.9957H387.509V25.9957ZM388.309 18.7797V17.7797H387.309V18.7797H388.309ZM393.781 18.7797H394.781V17.7797H393.781V18.7797ZM393.781 20.4757V21.4757H394.781V20.4757H393.781ZM388.309 20.4757H387.309V21.4757H388.309V20.4757ZM388.309 23.3397V22.3397H387.309V23.3397H388.309ZM393.781 23.3397H394.781V22.3397H393.781V23.3397ZM393.781 25.0517V26.0517H394.781V25.0517H393.781ZM388.309 25.0517H387.309V26.0517H388.309V25.0517ZM390.181 10.9557V9.95566H389.181V10.9557H390.181ZM391.941 10.9557H392.941V9.95566H391.941V10.9557ZM391.941 15.1957V16.1957H392.941V15.1957H391.941ZM391.893 15.1957V14.1957H390.893V15.1957H391.893ZM391.893 24.3477V25.3477H392.893V24.3477H391.893ZM390.245 24.3477H389.245V25.3477H390.245V24.3477ZM390.245 15.1957H391.245V14.1957H390.245V15.1957ZM390.181 15.1957H389.181V16.1957H390.181V15.1957ZM380.341 12.5077V11.5077H379.341V12.5077H380.341ZM387.029 12.5077H388.029V11.5077H387.029V12.5077ZM387.029 14.1557V15.1557H388.029V14.1557H387.029ZM380.341 14.1557H379.341V15.1557H380.341V14.1557ZM380.165 21.7717V20.7717H379.165V21.7717H380.165ZM387.221 21.7717H388.221V20.7717H387.221V21.7717ZM387.221 23.4517V24.4517H388.221V23.4517H387.221ZM380.165 23.4517H379.165V24.4517H380.165V23.4517ZM382.853 10.9717V9.97166H381.853V10.9717H382.853ZM384.565 10.9717H385.565V9.97166H384.565V10.9717ZM384.565 15.6437V16.6437H385.565V15.6437H384.565ZM382.853 15.6437H381.853V16.6437H382.853V15.6437ZM383.045 15.6597V14.6597H382.045V15.6597H383.045ZM384.341 15.6597H385.341V14.6597H384.341V15.6597ZM384.341 20.1077H383.341V21.1077H384.341V20.1077ZM384.565 20.1077H385.565V19.1077H384.565V20.1077ZM384.565 25.9797V26.9797H385.565V25.9797H384.565ZM382.853 25.9797H381.853V26.9797H382.853V25.9797ZM382.853 20.1077V19.1077H381.853V20.1077H382.853ZM383.045 20.1077V21.1077H384.045V20.1077H383.045ZM382.069 18.5397V17.5397H381.069V18.5397H382.069ZM382.069 19.4837H381.069V20.4837H382.069V19.4837ZM385.365 19.4837V20.4837H386.365V19.4837H385.365ZM385.365 18.5397H386.365V17.5397H385.365V18.5397ZM382.069 16.3477V15.3477H381.069V16.3477H382.069ZM382.069 17.2757H381.069V18.2757H382.069V17.2757ZM385.365 17.2757V18.2757H386.365V17.2757H385.365ZM385.365 16.3477H386.365V15.3477H385.365V16.3477ZM380.693 15.0037V14.0037H379.693V15.0037H380.693ZM386.805 15.0037H387.805V14.0037H386.805V15.0037ZM386.805 20.8277V21.8277H387.805V20.8277H386.805ZM380.693 20.8277H379.693V21.8277H380.693V20.8277ZM387.509 14.4597V15.4597H394.773V14.4597V13.4597H387.509V14.4597ZM394.773 14.4597H393.773V25.8837H394.773H395.773V14.4597H394.773ZM394.773 25.8837V24.8837H393.061V25.8837V26.8837H394.773V25.8837ZM393.061 25.8837H394.061V16.1717H393.061H392.061V25.8837H393.061ZM393.061 16.1717V15.1717H389.157V16.1717V17.1717H393.061V16.1717ZM389.157 16.1717H388.157V25.9957H389.157H390.157V16.1717H389.157ZM389.157 25.9957V24.9957H387.509V25.9957V26.9957H389.157V25.9957ZM387.509 25.9957H388.509V14.4597H387.509H386.509V25.9957H387.509ZM388.309 18.7797V19.7797H393.781V18.7797V17.7797H388.309V18.7797ZM393.781 18.7797H392.781V20.4757H393.781H394.781V18.7797H393.781ZM393.781 20.4757V19.4757H388.309V20.4757V21.4757H393.781V20.4757ZM388.309 20.4757H389.309V18.7797H388.309H387.309V20.4757H388.309ZM388.309 23.3397V24.3397H393.781V23.3397V22.3397H388.309V23.3397ZM393.781 23.3397H392.781V25.0517H393.781H394.781V23.3397H393.781ZM393.781 25.0517V24.0517H388.309V25.0517V26.0517H393.781V25.0517ZM388.309 25.0517H389.309V23.3397H388.309H387.309V25.0517H388.309ZM390.181 10.9557V11.9557H391.941V10.9557V9.95566H390.181V10.9557ZM391.941 10.9557H390.941V15.1957H391.941H392.941V10.9557H391.941ZM391.941 15.1957V14.1957H391.893V15.1957V16.1957H391.941V15.1957ZM391.893 15.1957H390.893V24.3477H391.893H392.893V15.1957H391.893ZM391.893 24.3477V23.3477H390.245V24.3477V25.3477H391.893V24.3477ZM390.245 24.3477H391.245V15.1957H390.245H389.245V24.3477H390.245ZM390.245 15.1957V14.1957H390.181V15.1957V16.1957H390.245V15.1957ZM390.181 15.1957H391.181V10.9557H390.181H389.181V15.1957H390.181ZM380.341 12.5077V13.5077H387.029V12.5077V11.5077H380.341V12.5077ZM387.029 12.5077H386.029V14.1557H387.029H388.029V12.5077H387.029ZM387.029 14.1557V13.1557H380.341V14.1557V15.1557H387.029V14.1557ZM380.341 14.1557H381.341V12.5077H380.341H379.341V14.1557H380.341ZM380.165 21.7717V22.7717H387.221V21.7717V20.7717H380.165V21.7717ZM387.221 21.7717H386.221V23.4517H387.221H388.221V21.7717H387.221ZM387.221 23.4517V22.4517H380.165V23.4517V24.4517H387.221V23.4517ZM380.165 23.4517H381.165V21.7717H380.165H379.165V23.4517H380.165ZM382.853 10.9717V11.9717H384.565V10.9717V9.97166H382.853V10.9717ZM384.565 10.9717H383.565V15.6437H384.565H385.565V10.9717H384.565ZM384.565 15.6437V14.6437H382.853V15.6437V16.6437H384.565V15.6437ZM382.853 15.6437H383.853V10.9717H382.853H381.853V15.6437H382.853ZM383.045 15.6597V16.6597H384.341V15.6597V14.6597H383.045V15.6597ZM384.341 15.6597H383.341V20.1077H384.341H385.341V15.6597H384.341ZM384.341 20.1077V21.1077H384.565V20.1077V19.1077H384.341V20.1077ZM384.565 20.1077H383.565V25.9797H384.565H385.565V20.1077H384.565ZM384.565 25.9797V24.9797H382.853V25.9797V26.9797H384.565V25.9797ZM382.853 25.9797H383.853V20.1077H382.853H381.853V25.9797H382.853ZM382.853 20.1077V21.1077H383.045V20.1077V19.1077H382.853V20.1077ZM383.045 20.1077H384.045V15.6597H383.045H382.045V20.1077H383.045ZM382.069 18.5397H381.069V19.4837H382.069H383.069V18.5397H382.069ZM382.069 19.4837V20.4837H385.365V19.4837V18.4837H382.069V19.4837ZM385.365 19.4837H386.365V18.5397H385.365H384.365V19.4837H385.365ZM385.365 18.5397V17.5397H382.069V18.5397V19.5397H385.365V18.5397ZM382.069 16.3477H381.069V17.2757H382.069H383.069V16.3477H382.069ZM382.069 17.2757V18.2757H385.365V17.2757V16.2757H382.069V17.2757ZM385.365 17.2757H386.365V16.3477H385.365H384.365V17.2757H385.365ZM385.365 16.3477V15.3477H382.069V16.3477V17.3477H385.365V16.3477ZM380.693 15.0037V16.0037H386.805V15.0037V14.0037H380.693V15.0037ZM386.805 15.0037H385.805V20.8277H386.805H387.805V15.0037H386.805ZM386.805 20.8277V19.8277H380.693V20.8277V21.8277H386.805V20.8277ZM380.693 20.8277H381.693V15.0037H380.693H379.693V20.8277H380.693Z" fill="#71717A" mask="url(#path-14-outside-2_268_5780)"/>
<path d="M587.646 55.9395L284.558 55.9395L211.765 72.8188L553 72.9395L587.646 55.9395Z" fill="#3F3939" fill-opacity="0.5"/>
<rect x="211.261" y="73" width="23.3965" height="110" fill="#71717A"/>
<rect x="531.012" y="73" width="23.3965" height="110" fill="#71717A"/>
<rect x="554.408" y="73" width="12" height="343.148" transform="rotate(90 554.408 73)" fill="#71717A"/>
<path d="M413.659 147H358.571H337.202C334.993 147 333.202 148.791 333.202 151V158.455V179C333.202 181.209 334.993 183 337.202 183H437.202C439.411 183 441.202 181.209 441.202 179V158.455V151C441.202 148.791 439.411 147 437.202 147H413.659Z" fill="#3F3F46" stroke="#A1A1A1" stroke-opacity="0.5"/>
<mask id="path-21-outside-3_268_5780" maskUnits="userSpaceOnUse" x="372.614" y="155.333" width="28" height="18" fill="black">
<rect fill="white" x="372.614" y="155.333" width="28" height="18"/>
<path d="M377.857 170.333H373.732V158.697H377.892C379.062 158.697 380.07 158.93 380.914 159.396C381.759 159.858 382.409 160.522 382.863 161.39C383.321 162.257 383.551 163.295 383.551 164.503C383.551 165.716 383.321 166.757 382.863 167.628C382.409 168.5 381.755 169.168 380.903 169.634C380.054 170.1 379.039 170.333 377.857 170.333ZM376.193 168.225H377.755C378.482 168.225 379.094 168.096 379.59 167.839C380.09 167.577 380.465 167.174 380.715 166.628C380.969 166.079 381.096 165.371 381.096 164.503C381.096 163.644 380.969 162.941 380.715 162.396C380.465 161.85 380.092 161.449 379.596 161.191C379.1 160.933 378.488 160.805 377.761 160.805H376.193V168.225ZM392.17 160.237H399.434V171.661H397.722V161.949H393.818V171.773H392.17V160.237ZM392.97 164.557H398.442V166.253H392.97V164.557ZM392.97 169.117H398.442V170.829H392.97V169.117ZM394.842 156.733H396.602V160.973H396.554V170.125H394.906V160.973H394.842V156.733ZM385.002 158.285H391.69V159.933H385.002V158.285ZM384.826 167.549H391.882V169.229H384.826V167.549ZM387.514 156.749H389.226V161.421H387.514V156.749ZM387.706 161.437H389.002V165.885H389.226V171.757H387.514V165.885H387.706V161.437ZM386.73 164.317V165.261H390.026V164.317H386.73ZM386.73 162.125V163.053H390.026V162.125H386.73ZM385.354 160.781H391.466V166.605H385.354V160.781Z"/>
</mask>
<path d="M377.857 170.333H373.732V158.697H377.892C379.062 158.697 380.07 158.93 380.914 159.396C381.759 159.858 382.409 160.522 382.863 161.39C383.321 162.257 383.551 163.295 383.551 164.503C383.551 165.716 383.321 166.757 382.863 167.628C382.409 168.5 381.755 169.168 380.903 169.634C380.054 170.1 379.039 170.333 377.857 170.333ZM376.193 168.225H377.755C378.482 168.225 379.094 168.096 379.59 167.839C380.09 167.577 380.465 167.174 380.715 166.628C380.969 166.079 381.096 165.371 381.096 164.503C381.096 163.644 380.969 162.941 380.715 162.396C380.465 161.85 380.092 161.449 379.596 161.191C379.1 160.933 378.488 160.805 377.761 160.805H376.193V168.225ZM392.17 160.237H399.434V171.661H397.722V161.949H393.818V171.773H392.17V160.237ZM392.97 164.557H398.442V166.253H392.97V164.557ZM392.97 169.117H398.442V170.829H392.97V169.117ZM394.842 156.733H396.602V160.973H396.554V170.125H394.906V160.973H394.842V156.733ZM385.002 158.285H391.69V159.933H385.002V158.285ZM384.826 167.549H391.882V169.229H384.826V167.549ZM387.514 156.749H389.226V161.421H387.514V156.749ZM387.706 161.437H389.002V165.885H389.226V171.757H387.514V165.885H387.706V161.437ZM386.73 164.317V165.261H390.026V164.317H386.73ZM386.73 162.125V163.053H390.026V162.125H386.73ZM385.354 160.781H391.466V166.605H385.354V160.781Z" fill="#FAFAFA"/>
<path d="M373.732 170.333H372.732V171.333H373.732V170.333ZM373.732 158.697V157.697H372.732V158.697H373.732ZM380.914 159.396L380.431 160.271L380.434 160.273L380.914 159.396ZM382.863 161.39L381.977 161.854L381.979 161.857L382.863 161.39ZM382.863 167.628L381.978 167.163L381.977 167.166L382.863 167.628ZM380.903 169.634L380.423 168.757L380.422 168.758L380.903 169.634ZM376.193 168.225H375.193V169.225H376.193V168.225ZM379.59 167.839L380.051 168.726L380.054 168.725L379.59 167.839ZM380.715 166.628L379.808 166.209L379.806 166.212L380.715 166.628ZM380.715 162.396L379.806 162.812L379.809 162.817L380.715 162.396ZM379.596 161.191L380.057 160.303H380.057L379.596 161.191ZM376.193 160.805V159.805H375.193V160.805H376.193ZM377.857 170.333V169.333H373.732V170.333V171.333H377.857V170.333ZM373.732 170.333H374.732V158.697H373.732H372.732V170.333H373.732ZM373.732 158.697V159.697H377.892V158.697V157.697H373.732V158.697ZM377.892 158.697V159.697C378.929 159.697 379.763 159.903 380.431 160.271L380.914 159.396L381.397 158.52C380.376 157.957 379.195 157.697 377.892 157.697V158.697ZM380.914 159.396L380.434 160.273C381.103 160.639 381.613 161.158 381.977 161.854L382.863 161.39L383.749 160.926C383.204 159.887 382.415 159.077 381.394 158.518L380.914 159.396ZM382.863 161.39L381.979 161.857C382.346 162.551 382.551 163.421 382.551 164.503H383.551H384.551C384.551 163.169 384.297 161.964 383.747 160.923L382.863 161.39ZM383.551 164.503H382.551C382.551 165.59 382.345 166.465 381.978 167.163L382.863 167.628L383.748 168.094C384.298 167.05 384.551 165.841 384.551 164.503H383.551ZM382.863 167.628L381.977 167.166C381.612 167.864 381.1 168.387 380.423 168.757L380.903 169.634L381.383 170.512C382.411 169.95 383.205 169.136 383.75 168.091L382.863 167.628ZM380.903 169.634L380.422 168.758C379.75 169.126 378.908 169.333 377.857 169.333V170.333V171.333C379.171 171.333 380.359 171.074 381.384 170.511L380.903 169.634ZM376.193 168.225V169.225H377.755V168.225V167.225H376.193V168.225ZM377.755 168.225V169.225C378.596 169.225 379.376 169.077 380.051 168.726L379.59 167.839L379.13 166.951C378.812 167.116 378.369 167.225 377.755 167.225V168.225ZM379.59 167.839L380.054 168.725C380.763 168.354 381.288 167.779 381.624 167.045L380.715 166.628L379.806 166.212C379.642 166.569 379.418 166.801 379.127 166.952L379.59 167.839ZM380.715 166.628L381.623 167.048C381.958 166.323 382.096 165.458 382.096 164.503H381.096H380.096C380.096 165.284 379.98 165.835 379.808 166.209L380.715 166.628ZM381.096 164.503H382.096C382.096 163.556 381.958 162.695 381.622 161.974L380.715 162.396L379.809 162.817C379.981 163.187 380.096 163.731 380.096 164.503H381.096ZM380.715 162.396L381.624 161.979C381.289 161.247 380.766 160.671 380.057 160.303L379.596 161.191L379.135 162.079C379.419 162.226 379.642 162.453 379.806 162.812L380.715 162.396ZM379.596 161.191L380.057 160.303C379.382 159.953 378.602 159.805 377.761 159.805V160.805V161.805C378.374 161.805 378.818 161.914 379.135 162.079L379.596 161.191ZM377.761 160.805V159.805H376.193V160.805V161.805H377.761V160.805ZM376.193 160.805H375.193V168.225H376.193H377.193V160.805H376.193ZM392.17 160.237V159.237H391.17V160.237H392.17ZM399.434 160.237H400.434V159.237H399.434V160.237ZM399.434 171.661V172.661H400.434V171.661H399.434ZM397.722 171.661H396.722V172.661H397.722V171.661ZM397.722 161.949H398.722V160.949H397.722V161.949ZM393.818 161.949V160.949H392.818V161.949H393.818ZM393.818 171.773V172.773H394.818V171.773H393.818ZM392.17 171.773H391.17V172.773H392.17V171.773ZM392.97 164.557V163.557H391.97V164.557H392.97ZM398.442 164.557H399.442V163.557H398.442V164.557ZM398.442 166.253V167.253H399.442V166.253H398.442ZM392.97 166.253H391.97V167.253H392.97V166.253ZM392.97 169.117V168.117H391.97V169.117H392.97ZM398.442 169.117H399.442V168.117H398.442V169.117ZM398.442 170.829V171.829H399.442V170.829H398.442ZM392.97 170.829H391.97V171.829H392.97V170.829ZM394.842 156.733V155.733H393.842V156.733H394.842ZM396.602 156.733H397.602V155.733H396.602V156.733ZM396.602 160.973V161.973H397.602V160.973H396.602ZM396.554 160.973V159.973H395.554V160.973H396.554ZM396.554 170.125V171.125H397.554V170.125H396.554ZM394.906 170.125H393.906V171.125H394.906V170.125ZM394.906 160.973H395.906V159.973H394.906V160.973ZM394.842 160.973H393.842V161.973H394.842V160.973ZM385.002 158.285V157.285H384.002V158.285H385.002ZM391.69 158.285H392.69V157.285H391.69V158.285ZM391.69 159.933V160.933H392.69V159.933H391.69ZM385.002 159.933H384.002V160.933H385.002V159.933ZM384.826 167.549V166.549H383.826V167.549H384.826ZM391.882 167.549H392.882V166.549H391.882V167.549ZM391.882 169.229V170.229H392.882V169.229H391.882ZM384.826 169.229H383.826V170.229H384.826V169.229ZM387.514 156.749V155.749H386.514V156.749H387.514ZM389.226 156.749H390.226V155.749H389.226V156.749ZM389.226 161.421V162.421H390.226V161.421H389.226ZM387.514 161.421H386.514V162.421H387.514V161.421ZM387.706 161.437V160.437H386.706V161.437H387.706ZM389.002 161.437H390.002V160.437H389.002V161.437ZM389.002 165.885H388.002V166.885H389.002V165.885ZM389.226 165.885H390.226V164.885H389.226V165.885ZM389.226 171.757V172.757H390.226V171.757H389.226ZM387.514 171.757H386.514V172.757H387.514V171.757ZM387.514 165.885V164.885H386.514V165.885H387.514ZM387.706 165.885V166.885H388.706V165.885H387.706ZM386.73 164.317V163.317H385.73V164.317H386.73ZM386.73 165.261H385.73V166.261H386.73V165.261ZM390.026 165.261V166.261H391.026V165.261H390.026ZM390.026 164.317H391.026V163.317H390.026V164.317ZM386.73 162.125V161.125H385.73V162.125H386.73ZM386.73 163.053H385.73V164.053H386.73V163.053ZM390.026 163.053V164.053H391.026V163.053H390.026ZM390.026 162.125H391.026V161.125H390.026V162.125ZM385.354 160.781V159.781H384.354V160.781H385.354ZM391.466 160.781H392.466V159.781H391.466V160.781ZM391.466 166.605V167.605H392.466V166.605H391.466ZM385.354 166.605H384.354V167.605H385.354V166.605ZM392.17 160.237V161.237H399.434V160.237V159.237H392.17V160.237ZM399.434 160.237H398.434V171.661H399.434H400.434V160.237H399.434ZM399.434 171.661V170.661H397.722V171.661V172.661H399.434V171.661ZM397.722 171.661H398.722V161.949H397.722H396.722V171.661H397.722ZM397.722 161.949V160.949H393.818V161.949V162.949H397.722V161.949ZM393.818 161.949H392.818V171.773H393.818H394.818V161.949H393.818ZM393.818 171.773V170.773H392.17V171.773V172.773H393.818V171.773ZM392.17 171.773H393.17V160.237H392.17H391.17V171.773H392.17ZM392.97 164.557V165.557H398.442V164.557V163.557H392.97V164.557ZM398.442 164.557H397.442V166.253H398.442H399.442V164.557H398.442ZM398.442 166.253V165.253H392.97V166.253V167.253H398.442V166.253ZM392.97 166.253H393.97V164.557H392.97H391.97V166.253H392.97ZM392.97 169.117V170.117H398.442V169.117V168.117H392.97V169.117ZM398.442 169.117H397.442V170.829H398.442H399.442V169.117H398.442ZM398.442 170.829V169.829H392.97V170.829V171.829H398.442V170.829ZM392.97 170.829H393.97V169.117H392.97H391.97V170.829H392.97ZM394.842 156.733V157.733H396.602V156.733V155.733H394.842V156.733ZM396.602 156.733H395.602V160.973H396.602H397.602V156.733H396.602ZM396.602 160.973V159.973H396.554V160.973V161.973H396.602V160.973ZM396.554 160.973H395.554V170.125H396.554H397.554V160.973H396.554ZM396.554 170.125V169.125H394.906V170.125V171.125H396.554V170.125ZM394.906 170.125H395.906V160.973H394.906H393.906V170.125H394.906ZM394.906 160.973V159.973H394.842V160.973V161.973H394.906V160.973ZM394.842 160.973H395.842V156.733H394.842H393.842V160.973H394.842ZM385.002 158.285V159.285H391.69V158.285V157.285H385.002V158.285ZM391.69 158.285H390.69V159.933H391.69H392.69V158.285H391.69ZM391.69 159.933V158.933H385.002V159.933V160.933H391.69V159.933ZM385.002 159.933H386.002V158.285H385.002H384.002V159.933H385.002ZM384.826 167.549V168.549H391.882V167.549V166.549H384.826V167.549ZM391.882 167.549H390.882V169.229H391.882H392.882V167.549H391.882ZM391.882 169.229V168.229H384.826V169.229V170.229H391.882V169.229ZM384.826 169.229H385.826V167.549H384.826H383.826V169.229H384.826ZM387.514 156.749V157.749H389.226V156.749V155.749H387.514V156.749ZM389.226 156.749H388.226V161.421H389.226H390.226V156.749H389.226ZM389.226 161.421V160.421H387.514V161.421V162.421H389.226V161.421ZM387.514 161.421H388.514V156.749H387.514H386.514V161.421H387.514ZM387.706 161.437V162.437H389.002V161.437V160.437H387.706V161.437ZM389.002 161.437H388.002V165.885H389.002H390.002V161.437H389.002ZM389.002 165.885V166.885H389.226V165.885V164.885H389.002V165.885ZM389.226 165.885H388.226V171.757H389.226H390.226V165.885H389.226ZM389.226 171.757V170.757H387.514V171.757V172.757H389.226V171.757ZM387.514 171.757H388.514V165.885H387.514H386.514V171.757H387.514ZM387.514 165.885V166.885H387.706V165.885V164.885H387.514V165.885ZM387.706 165.885H388.706V161.437H387.706H386.706V165.885H387.706ZM386.73 164.317H385.73V165.261H386.73H387.73V164.317H386.73ZM386.73 165.261V166.261H390.026V165.261V164.261H386.73V165.261ZM390.026 165.261H391.026V164.317H390.026H389.026V165.261H390.026ZM390.026 164.317V163.317H386.73V164.317V165.317H390.026V164.317ZM386.73 162.125H385.73V163.053H386.73H387.73V162.125H386.73ZM386.73 163.053V164.053H390.026V163.053V162.053H386.73V163.053ZM390.026 163.053H391.026V162.125H390.026H389.026V163.053H390.026ZM390.026 162.125V161.125H386.73V162.125V163.125H390.026V162.125ZM385.354 160.781V161.781H391.466V160.781V159.781H385.354V160.781ZM391.466 160.781H390.466V166.605H391.466H392.466V160.781H391.466ZM391.466 166.605V165.605H385.354V166.605V167.605H391.466V166.605ZM385.354 166.605H386.354V160.781H385.354H384.354V166.605H385.354Z" fill="#71717A" mask="url(#path-21-outside-3_268_5780)"/>
<path d="M118.456 6H63.3691H42C39.7909 6 38 7.79086 38 10V13.6364V26C38 28.2091 39.7909 30 42 30H142C144.209 30 146 28.2091 146 26V13.6364V10C146 7.79086 144.209 6 142 6H118.456Z" fill="#3F3F46" stroke="#A1A1A1" stroke-opacity="0.5"/>
<mask id="path-24-outside-4_268_5780" maskUnits="userSpaceOnUse" x="74.4121" y="8.55566" width="31" height="18" fill="black">
<rect fill="white" x="74.4121" y="8.55566" width="31" height="18"/>
<path d="M79.4448 23.5557H76.8084L80.8255 11.9193H83.9959L88.0073 23.5557H85.3709L82.4561 14.5784H82.3652L79.4448 23.5557ZM79.28 18.9818H85.5073V20.9023H79.28V18.9818ZM96.2045 13.4597H103.468V24.8837H101.756V15.1717H97.8525V24.9957H96.2045V13.4597ZM97.0045 17.7797H102.476V19.4757H97.0045V17.7797ZM97.0045 22.3397H102.476V24.0517H97.0045V22.3397ZM98.8765 9.95566H100.636V14.1957H100.588V23.3477H98.9405V14.1957H98.8765V9.95566ZM89.0365 11.5077H95.7245V13.1557H89.0365V11.5077ZM88.8605 20.7717H95.9165V22.4517H88.8605V20.7717ZM91.5485 9.97166H93.2605V14.6437H91.5485V9.97166ZM91.7405 14.6597H93.0365V19.1077H93.2605V24.9797H91.5485V19.1077H91.7405V14.6597ZM90.7645 17.5397V18.4837H94.0605V17.5397H90.7645ZM90.7645 15.3477V16.2757H94.0605V15.3477H90.7645ZM89.3885 14.0037H95.5005V19.8277H89.3885V14.0037Z"/>
</mask>
<path d="M79.4448 23.5557H76.8084L80.8255 11.9193H83.9959L88.0073 23.5557H85.3709L82.4561 14.5784H82.3652L79.4448 23.5557ZM79.28 18.9818H85.5073V20.9023H79.28V18.9818ZM96.2045 13.4597H103.468V24.8837H101.756V15.1717H97.8525V24.9957H96.2045V13.4597ZM97.0045 17.7797H102.476V19.4757H97.0045V17.7797ZM97.0045 22.3397H102.476V24.0517H97.0045V22.3397ZM98.8765 9.95566H100.636V14.1957H100.588V23.3477H98.9405V14.1957H98.8765V9.95566ZM89.0365 11.5077H95.7245V13.1557H89.0365V11.5077ZM88.8605 20.7717H95.9165V22.4517H88.8605V20.7717ZM91.5485 9.97166H93.2605V14.6437H91.5485V9.97166ZM91.7405 14.6597H93.0365V19.1077H93.2605V24.9797H91.5485V19.1077H91.7405V14.6597ZM90.7645 17.5397V18.4837H94.0605V17.5397H90.7645ZM90.7645 15.3477V16.2757H94.0605V15.3477H90.7645ZM89.3885 14.0037H95.5005V19.8277H89.3885V14.0037Z" fill="#FAFAFA"/>
<path d="M79.4448 23.5557V24.5557H80.171L80.3957 23.865L79.4448 23.5557ZM76.8084 23.5557L75.8632 23.2293L75.4053 24.5557H76.8084V23.5557ZM80.8255 11.9193V10.9193H80.1128L79.8802 11.593L80.8255 11.9193ZM83.9959 11.9193L84.9413 11.5934L84.7089 10.9193H83.9959V11.9193ZM88.0073 23.5557V24.5557H89.4098L88.9527 23.2298L88.0073 23.5557ZM85.3709 23.5557L84.4198 23.8645L84.6442 24.5557H85.3709V23.5557ZM82.4561 14.5784L83.4073 14.2696L83.1828 13.5784H82.4561V14.5784ZM82.3652 14.5784V13.5784H81.639L81.4143 14.269L82.3652 14.5784ZM79.28 18.9818V17.9818H78.28V18.9818H79.28ZM85.5073 18.9818H86.5073V17.9818H85.5073V18.9818ZM85.5073 20.9023V21.9023H86.5073V20.9023H85.5073ZM79.28 20.9023H78.28V21.9023H79.28V20.9023ZM79.4448 23.5557V22.5557H76.8084V23.5557V24.5557H79.4448V23.5557ZM76.8084 23.5557L77.7537 23.882L81.7707 12.2456L80.8255 11.9193L79.8802 11.593L75.8632 23.2293L76.8084 23.5557ZM80.8255 11.9193V12.9193H83.9959V11.9193V10.9193H80.8255V11.9193ZM83.9959 11.9193L83.0505 12.2452L87.0619 23.8816L88.0073 23.5557L88.9527 23.2298L84.9413 11.5934L83.9959 11.9193ZM88.0073 23.5557V22.5557H85.3709V23.5557V24.5557H88.0073V23.5557ZM85.3709 23.5557L86.322 23.2469L83.4073 14.2696L82.4561 14.5784L81.505 14.8872L84.4198 23.8645L85.3709 23.5557ZM82.4561 14.5784V13.5784H82.3652V14.5784V15.5784H82.4561V14.5784ZM82.3652 14.5784L81.4143 14.269L78.4938 23.2463L79.4448 23.5557L80.3957 23.865L83.3162 14.8877L82.3652 14.5784ZM79.28 18.9818V19.9818H85.5073V18.9818V17.9818H79.28V18.9818ZM85.5073 18.9818H84.5073V20.9023H85.5073H86.5073V18.9818H85.5073ZM85.5073 20.9023V19.9023H79.28V20.9023V21.9023H85.5073V20.9023ZM79.28 20.9023H80.28V18.9818H79.28H78.28V20.9023H79.28ZM96.2045 13.4597V12.4597H95.2045V13.4597H96.2045ZM103.468 13.4597H104.468V12.4597H103.468V13.4597ZM103.468 24.8837V25.8837H104.468V24.8837H103.468ZM101.756 24.8837H100.756V25.8837H101.756V24.8837ZM101.756 15.1717H102.756V14.1717H101.756V15.1717ZM97.8525 15.1717V14.1717H96.8525V15.1717H97.8525ZM97.8525 24.9957V25.9957H98.8525V24.9957H97.8525ZM96.2045 24.9957H95.2045V25.9957H96.2045V24.9957ZM97.0045 17.7797V16.7797H96.0045V17.7797H97.0045ZM102.476 17.7797H103.476V16.7797H102.476V17.7797ZM102.476 19.4757V20.4757H103.476V19.4757H102.476ZM97.0045 19.4757H96.0045V20.4757H97.0045V19.4757ZM97.0045 22.3397V21.3397H96.0045V22.3397H97.0045ZM102.476 22.3397H103.476V21.3397H102.476V22.3397ZM102.476 24.0517V25.0517H103.476V24.0517H102.476ZM97.0045 24.0517H96.0045V25.0517H97.0045V24.0517ZM98.8765 9.95566V8.95566H97.8765V9.95566H98.8765ZM100.636 9.95566H101.636V8.95566H100.636V9.95566ZM100.636 14.1957V15.1957H101.636V14.1957H100.636ZM100.588 14.1957V13.1957H99.5885V14.1957H100.588ZM100.588 23.3477V24.3477H101.588V23.3477H100.588ZM98.9405 23.3477H97.9405V24.3477H98.9405V23.3477ZM98.9405 14.1957H99.9405V13.1957H98.9405V14.1957ZM98.8765 14.1957H97.8765V15.1957H98.8765V14.1957ZM89.0365 11.5077V10.5077H88.0365V11.5077H89.0365ZM95.7245 11.5077H96.7245V10.5077H95.7245V11.5077ZM95.7245 13.1557V14.1557H96.7245V13.1557H95.7245ZM89.0365 13.1557H88.0365V14.1557H89.0365V13.1557ZM88.8605 20.7717V19.7717H87.8605V20.7717H88.8605ZM95.9165 20.7717H96.9165V19.7717H95.9165V20.7717ZM95.9165 22.4517V23.4517H96.9165V22.4517H95.9165ZM88.8605 22.4517H87.8605V23.4517H88.8605V22.4517ZM91.5485 9.97166V8.97166H90.5485V9.97166H91.5485ZM93.2605 9.97166H94.2605V8.97166H93.2605V9.97166ZM93.2605 14.6437V15.6437H94.2605V14.6437H93.2605ZM91.5485 14.6437H90.5485V15.6437H91.5485V14.6437ZM91.7405 14.6597V13.6597H90.7405V14.6597H91.7405ZM93.0365 14.6597H94.0365V13.6597H93.0365V14.6597ZM93.0365 19.1077H92.0365V20.1077H93.0365V19.1077ZM93.2605 19.1077H94.2605V18.1077H93.2605V19.1077ZM93.2605 24.9797V25.9797H94.2605V24.9797H93.2605ZM91.5485 24.9797H90.5485V25.9797H91.5485V24.9797ZM91.5485 19.1077V18.1077H90.5485V19.1077H91.5485ZM91.7405 19.1077V20.1077H92.7405V19.1077H91.7405ZM90.7645 17.5397V16.5397H89.7645V17.5397H90.7645ZM90.7645 18.4837H89.7645V19.4837H90.7645V18.4837ZM94.0605 18.4837V19.4837H95.0605V18.4837H94.0605ZM94.0605 17.5397H95.0605V16.5397H94.0605V17.5397ZM90.7645 15.3477V14.3477H89.7645V15.3477H90.7645ZM90.7645 16.2757H89.7645V17.2757H90.7645V16.2757ZM94.0605 16.2757V17.2757H95.0605V16.2757H94.0605ZM94.0605 15.3477H95.0605V14.3477H94.0605V15.3477ZM89.3885 14.0037V13.0037H88.3885V14.0037H89.3885ZM95.5005 14.0037H96.5005V13.0037H95.5005V14.0037ZM95.5005 19.8277V20.8277H96.5005V19.8277H95.5005ZM89.3885 19.8277H88.3885V20.8277H89.3885V19.8277ZM96.2045 13.4597V14.4597H103.468V13.4597V12.4597H96.2045V13.4597ZM103.468 13.4597H102.468V24.8837H103.468H104.468V13.4597H103.468ZM103.468 24.8837V23.8837H101.756V24.8837V25.8837H103.468V24.8837ZM101.756 24.8837H102.756V15.1717H101.756H100.756V24.8837H101.756ZM101.756 15.1717V14.1717H97.8525V15.1717V16.1717H101.756V15.1717ZM97.8525 15.1717H96.8525V24.9957H97.8525H98.8525V15.1717H97.8525ZM97.8525 24.9957V23.9957H96.2045V24.9957V25.9957H97.8525V24.9957ZM96.2045 24.9957H97.2045V13.4597H96.2045H95.2045V24.9957H96.2045ZM97.0045 17.7797V18.7797H102.476V17.7797V16.7797H97.0045V17.7797ZM102.476 17.7797H101.476V19.4757H102.476H103.476V17.7797H102.476ZM102.476 19.4757V18.4757H97.0045V19.4757V20.4757H102.476V19.4757ZM97.0045 19.4757H98.0045V17.7797H97.0045H96.0045V19.4757H97.0045ZM97.0045 22.3397V23.3397H102.476V22.3397V21.3397H97.0045V22.3397ZM102.476 22.3397H101.476V24.0517H102.476H103.476V22.3397H102.476ZM102.476 24.0517V23.0517H97.0045V24.0517V25.0517H102.476V24.0517ZM97.0045 24.0517H98.0045V22.3397H97.0045H96.0045V24.0517H97.0045ZM98.8765 9.95566V10.9557H100.636V9.95566V8.95566H98.8765V9.95566ZM100.636 9.95566H99.6365V14.1957H100.636H101.636V9.95566H100.636ZM100.636 14.1957V13.1957H100.588V14.1957V15.1957H100.636V14.1957ZM100.588 14.1957H99.5885V23.3477H100.588H101.588V14.1957H100.588ZM100.588 23.3477V22.3477H98.9405V23.3477V24.3477H100.588V23.3477ZM98.9405 23.3477H99.9405V14.1957H98.9405H97.9405V23.3477H98.9405ZM98.9405 14.1957V13.1957H98.8765V14.1957V15.1957H98.9405V14.1957ZM98.8765 14.1957H99.8765V9.95566H98.8765H97.8765V14.1957H98.8765ZM89.0365 11.5077V12.5077H95.7245V11.5077V10.5077H89.0365V11.5077ZM95.7245 11.5077H94.7245V13.1557H95.7245H96.7245V11.5077H95.7245ZM95.7245 13.1557V12.1557H89.0365V13.1557V14.1557H95.7245V13.1557ZM89.0365 13.1557H90.0365V11.5077H89.0365H88.0365V13.1557H89.0365ZM88.8605 20.7717V21.7717H95.9165V20.7717V19.7717H88.8605V20.7717ZM95.9165 20.7717H94.9165V22.4517H95.9165H96.9165V20.7717H95.9165ZM95.9165 22.4517V21.4517H88.8605V22.4517V23.4517H95.9165V22.4517ZM88.8605 22.4517H89.8605V20.7717H88.8605H87.8605V22.4517H88.8605ZM91.5485 9.97166V10.9717H93.2605V9.97166V8.97166H91.5485V9.97166ZM93.2605 9.97166H92.2605V14.6437H93.2605H94.2605V9.97166H93.2605ZM93.2605 14.6437V13.6437H91.5485V14.6437V15.6437H93.2605V14.6437ZM91.5485 14.6437H92.5485V9.97166H91.5485H90.5485V14.6437H91.5485ZM91.7405 14.6597V15.6597H93.0365V14.6597V13.6597H91.7405V14.6597ZM93.0365 14.6597H92.0365V19.1077H93.0365H94.0365V14.6597H93.0365ZM93.0365 19.1077V20.1077H93.2605V19.1077V18.1077H93.0365V19.1077ZM93.2605 19.1077H92.2605V24.9797H93.2605H94.2605V19.1077H93.2605ZM93.2605 24.9797V23.9797H91.5485V24.9797V25.9797H93.2605V24.9797ZM91.5485 24.9797H92.5485V19.1077H91.5485H90.5485V24.9797H91.5485ZM91.5485 19.1077V20.1077H91.7405V19.1077V18.1077H91.5485V19.1077ZM91.7405 19.1077H92.7405V14.6597H91.7405H90.7405V19.1077H91.7405ZM90.7645 17.5397H89.7645V18.4837H90.7645H91.7645V17.5397H90.7645ZM90.7645 18.4837V19.4837H94.0605V18.4837V17.4837H90.7645V18.4837ZM94.0605 18.4837H95.0605V17.5397H94.0605H93.0605V18.4837H94.0605ZM94.0605 17.5397V16.5397H90.7645V17.5397V18.5397H94.0605V17.5397ZM90.7645 15.3477H89.7645V16.2757H90.7645H91.7645V15.3477H90.7645ZM90.7645 16.2757V17.2757H94.0605V16.2757V15.2757H90.7645V16.2757ZM94.0605 16.2757H95.0605V15.3477H94.0605H93.0605V16.2757H94.0605ZM94.0605 15.3477V14.3477H90.7645V15.3477V16.3477H94.0605V15.3477ZM89.3885 14.0037V15.0037H95.5005V14.0037V13.0037H89.3885V14.0037ZM95.5005 14.0037H94.5005V19.8277H95.5005H96.5005V14.0037H95.5005ZM95.5005 19.8277V18.8277H89.3885V19.8277V20.8277H95.5005V19.8277ZM89.3885 19.8277H90.3885V14.0037H89.3885H88.3885V19.8277H89.3885Z" fill="#71717A" mask="url(#path-24-outside-4_268_5780)"/>
<path d="M554.408 72.0076L587.553 56V72.0076L554.408 89V72.0076Z" fill="#363030" fill-opacity="0.5"/>
</svg>
