<svg width="320" height="91" viewBox="0 0 320 91" fill="none" xmlns="http://www.w3.org/2000/svg">
<path d="M222.124 35.0679L92.2651 35.0679L92.2651 74.3462H222.124L222.124 35.0679Z" fill="#4D4D4D" fill-opacity="0.5"/>
<path d="M85.8522 14.627L0.0810547 14.627L0.0810547 74.3461L85.8522 74.3461L85.8522 14.627Z" fill="#ECECEC" fill-opacity="0.5"/>
<path d="M320 74.4268L0 74.4268L0 90.1344L320 90.1344V74.4268Z" fill="#808080" fill-opacity="0.5"/>
<path d="M319.919 30.2583L214.108 30.2583L214.108 74.3463H319.919V30.2583Z" fill="#ECECEC" fill-opacity="0.5"/>
<path d="M319.919 14.627L85.8521 14.627V30.2581L319.919 30.2581V14.627Z" fill="#ECECEC" fill-opacity="0.5"/>
<path d="M235.491 74.3462L235.491 29.8574Z" fill="#666666"/>
<path d="M235.491 74.3462L235.491 29.8574" stroke="#4D4D4D" stroke-width="0.23" stroke-miterlimit="5"/>
<path d="M115.127 1L0 1L0 14.6272L16.7029 14.6272L115.127 1Z" fill="#0081CC" fill-opacity="0.8"/>
<path d="M320 1L115.08 1L15.4106 14.6272L89.8677 14.6272L118.571 14.6272L320 14.6272V1Z" fill="#0081CC" fill-opacity="0.8"/>
<path d="M293.779 1H271.336H265C262.791 1 261 2.79086 261 5V6.09091V13C261 15.2091 262.791 17 265 17H301C303.209 17 305 15.2091 305 13V6.09091V5C305 2.79086 303.209 1 301 1H293.779Z" fill="#3F3F46" stroke="#A1A1A1" stroke-opacity="0.5"/>
<mask id="path-11-outside-1_268_5809" maskUnits="userSpaceOnUse" x="270.717" y="0" width="23" height="15" fill="black">
<rect fill="white" x="270.717" width="23" height="15"/>
<path d="M280.012 6.1108H278.683C278.631 5.8267 278.536 5.5767 278.397 5.3608C278.258 5.14489 278.087 4.96165 277.886 4.81108C277.684 4.66051 277.458 4.54687 277.208 4.47017C276.961 4.39347 276.698 4.35511 276.42 4.35511C275.917 4.35511 275.467 4.48153 275.069 4.73438C274.674 4.98722 274.362 5.35795 274.131 5.84659C273.904 6.33523 273.79 6.93182 273.79 7.63636C273.79 8.34659 273.904 8.94602 274.131 9.43466C274.362 9.9233 274.675 10.2926 275.073 10.5426C275.471 10.7926 275.918 10.9176 276.415 10.9176C276.691 10.9176 276.952 10.8807 277.2 10.8068C277.45 10.7301 277.675 10.6179 277.877 10.4702C278.079 10.3224 278.249 10.142 278.388 9.92898C278.531 9.71307 278.629 9.46591 278.683 9.1875L280.012 9.19176C279.941 9.62074 279.803 10.0156 279.599 10.3764C279.397 10.7344 279.137 11.044 278.819 11.3054C278.504 11.5639 278.143 11.7642 277.737 11.9062C277.33 12.0483 276.887 12.1193 276.407 12.1193C275.651 12.1193 274.978 11.9403 274.387 11.5824C273.796 11.2216 273.33 10.706 272.989 10.0355C272.651 9.36506 272.482 8.56534 272.482 7.63636C272.482 6.70455 272.653 5.90483 272.994 5.23722C273.335 4.56676 273.8 4.05256 274.391 3.6946C274.982 3.33381 275.654 3.15341 276.407 3.15341C276.87 3.15341 277.302 3.22017 277.702 3.35369C278.106 3.48437 278.468 3.67756 278.789 3.93324C279.11 4.18608 279.376 4.49574 279.586 4.86222C279.796 5.22585 279.938 5.64205 280.012 6.1108ZM286.545 4.452H291.861V12.936H290.841V5.472H287.517V13.008H286.545V4.452ZM287.013 7.776H291.285V8.796H287.013V7.776ZM287.013 11.304H291.285V12.324H287.013V11.304ZM288.621 1.872H289.665V4.92H289.641V11.904H288.645V4.92H288.621V1.872ZM281.181 3.108H286.161V4.104H281.181V3.108ZM281.049 9.996H286.305V10.992H281.049V9.996ZM283.173 1.872H284.193V5.256H283.173V1.872ZM283.281 5.28H284.085V8.712H284.193V13.02H283.173V8.712H283.281V5.28ZM282.321 7.392V8.316H285.093V7.392H282.321ZM282.321 5.7V6.612H285.093V5.7H282.321ZM281.469 4.884H285.969V9.132H281.469V4.884Z"/>
</mask>
<path d="M280.012 6.1108H278.683C278.631 5.8267 278.536 5.5767 278.397 5.3608C278.258 5.14489 278.087 4.96165 277.886 4.81108C277.684 4.66051 277.458 4.54687 277.208 4.47017C276.961 4.39347 276.698 4.35511 276.42 4.35511C275.917 4.35511 275.467 4.48153 275.069 4.73438C274.674 4.98722 274.362 5.35795 274.131 5.84659C273.904 6.33523 273.79 6.93182 273.79 7.63636C273.79 8.34659 273.904 8.94602 274.131 9.43466C274.362 9.9233 274.675 10.2926 275.073 10.5426C275.471 10.7926 275.918 10.9176 276.415 10.9176C276.691 10.9176 276.952 10.8807 277.2 10.8068C277.45 10.7301 277.675 10.6179 277.877 10.4702C278.079 10.3224 278.249 10.142 278.388 9.92898C278.531 9.71307 278.629 9.46591 278.683 9.1875L280.012 9.19176C279.941 9.62074 279.803 10.0156 279.599 10.3764C279.397 10.7344 279.137 11.044 278.819 11.3054C278.504 11.5639 278.143 11.7642 277.737 11.9062C277.33 12.0483 276.887 12.1193 276.407 12.1193C275.651 12.1193 274.978 11.9403 274.387 11.5824C273.796 11.2216 273.33 10.706 272.989 10.0355C272.651 9.36506 272.482 8.56534 272.482 7.63636C272.482 6.70455 272.653 5.90483 272.994 5.23722C273.335 4.56676 273.8 4.05256 274.391 3.6946C274.982 3.33381 275.654 3.15341 276.407 3.15341C276.87 3.15341 277.302 3.22017 277.702 3.35369C278.106 3.48437 278.468 3.67756 278.789 3.93324C279.11 4.18608 279.376 4.49574 279.586 4.86222C279.796 5.22585 279.938 5.64205 280.012 6.1108ZM286.545 4.452H291.861V12.936H290.841V5.472H287.517V13.008H286.545V4.452ZM287.013 7.776H291.285V8.796H287.013V7.776ZM287.013 11.304H291.285V12.324H287.013V11.304ZM288.621 1.872H289.665V4.92H289.641V11.904H288.645V4.92H288.621V1.872ZM281.181 3.108H286.161V4.104H281.181V3.108ZM281.049 9.996H286.305V10.992H281.049V9.996ZM283.173 1.872H284.193V5.256H283.173V1.872ZM283.281 5.28H284.085V8.712H284.193V13.02H283.173V8.712H283.281V5.28ZM282.321 7.392V8.316H285.093V7.392H282.321ZM282.321 5.7V6.612H285.093V5.7H282.321ZM281.469 4.884H285.969V9.132H281.469V4.884Z" fill="#FAFAFA"/>
<path d="M280.012 6.1108V7.1108H281.182L281 5.95514L280.012 6.1108ZM278.683 6.1108L277.698 6.28795L277.846 7.1108H278.683V6.1108ZM277.886 4.81108L278.484 4.00973L278.484 4.00973L277.886 4.81108ZM277.208 4.47017L276.912 5.42524L276.915 5.42618L277.208 4.47017ZM275.069 4.73438L274.532 3.89046L274.53 3.89221L275.069 4.73438ZM274.131 5.84659L273.227 5.42054L273.225 5.42486L274.131 5.84659ZM274.131 9.43466L273.225 9.85639L273.227 9.86071L274.131 9.43466ZM275.073 10.5426L274.541 11.3892H274.541L275.073 10.5426ZM277.2 10.8068L277.486 11.765L277.493 11.7628L277.2 10.8068ZM278.388 9.92898L277.553 9.37936L277.551 9.38203L278.388 9.92898ZM278.683 9.1875L278.686 8.18751L277.858 8.18485L277.701 8.99717L278.683 9.1875ZM280.012 9.19176L280.999 9.3551L281.191 8.19553L280.015 8.19177L280.012 9.19176ZM279.599 10.3764L278.729 9.88323L278.728 9.8855L279.599 10.3764ZM278.819 11.3054L279.453 12.0787L279.454 12.0781L278.819 11.3054ZM277.737 11.9062L278.067 12.8502V12.8502L277.737 11.9062ZM274.387 11.5824L273.866 12.4359L273.869 12.4377L274.387 11.5824ZM272.989 10.0355L272.096 10.4858L272.098 10.4888L272.989 10.0355ZM272.994 5.23722L273.884 5.69199L273.885 5.69046L272.994 5.23722ZM274.391 3.6946L274.909 4.54992L274.912 4.54809L274.391 3.6946ZM277.702 3.35369L277.386 4.30241L277.394 4.30502L277.702 3.35369ZM278.789 3.93324L278.166 4.71547L278.17 4.71883L278.789 3.93324ZM279.586 4.86222L278.719 5.3598L278.72 5.36272L279.586 4.86222ZM280.012 6.1108V5.1108H278.683V6.1108V7.1108H280.012V6.1108ZM278.683 6.1108L279.667 5.93364C279.595 5.53571 279.457 5.15864 279.237 4.81892L278.397 5.3608L277.557 5.90267C277.616 5.99477 277.668 6.1177 277.698 6.28795L278.683 6.1108ZM278.397 5.3608L279.237 4.81892C279.035 4.50487 278.783 4.23313 278.484 4.00973L277.886 4.81108L277.287 5.61243C277.392 5.69016 277.481 5.7849 277.557 5.90267L278.397 5.3608ZM277.886 4.81108L278.484 4.00973C278.187 3.78783 277.857 3.62321 277.501 3.51416L277.208 4.47017L276.915 5.42618C277.059 5.47054 277.181 5.53319 277.287 5.61243L277.886 4.81108ZM277.208 4.47017L277.504 3.51511C277.154 3.40644 276.791 3.35511 276.42 3.35511V4.35511V5.35511C276.605 5.35511 276.768 5.38049 276.912 5.42523L277.208 4.47017ZM276.42 4.35511V3.35511C275.74 3.35511 275.101 3.52877 274.532 3.89047L275.069 4.73438L275.605 5.57828C275.832 5.4343 276.094 5.35511 276.42 5.35511V4.35511ZM275.069 4.73438L274.53 3.89221C273.953 4.26126 273.525 4.78799 273.227 5.42054L274.131 5.84659L275.036 6.27264C275.198 5.92792 275.395 5.71317 275.608 5.57654L275.069 4.73438ZM274.131 5.84659L273.225 5.42486C272.92 6.07964 272.79 6.82902 272.79 7.63636H273.79H274.79C274.79 7.03462 274.888 6.59082 275.038 6.26832L274.131 5.84659ZM273.79 7.63636H272.79C272.79 8.44804 272.92 9.20068 273.225 9.85639L274.131 9.43466L275.038 9.01293C274.889 8.69137 274.79 8.24514 274.79 7.63636H273.79ZM274.131 9.43466L273.227 9.86071C273.526 10.4958 273.958 11.023 274.541 11.3892L275.073 10.5426L275.605 9.69598C275.393 9.56224 275.197 9.35084 275.036 9.00861L274.131 9.43466ZM275.073 10.5426L274.541 11.3892C275.108 11.7454 275.742 11.9176 276.415 11.9176V10.9176V9.91761C276.095 9.91761 275.834 9.83983 275.605 9.69598L275.073 10.5426ZM276.415 10.9176V11.9176C276.781 11.9176 277.14 11.8684 277.486 11.7649L277.2 10.8068L276.913 9.84869C276.765 9.89295 276.601 9.91761 276.415 9.91761V10.9176ZM277.2 10.8068L277.493 11.7628C277.845 11.6549 278.172 11.4937 278.468 11.2769L277.877 10.4702L277.286 9.6634C277.179 9.74211 277.054 9.80536 276.906 9.8508L277.2 10.8068ZM277.877 10.4702L278.468 11.2769C278.769 11.0568 279.022 10.7879 279.226 10.4759L278.388 9.92898L277.551 9.38203C277.477 9.49623 277.389 9.58805 277.286 9.6634L277.877 10.4702ZM278.388 9.92898L279.224 10.4786C279.444 10.1434 279.588 9.77188 279.664 9.37783L278.683 9.1875L277.701 8.99717C277.669 9.15994 277.617 9.28269 277.553 9.37936L278.388 9.92898ZM278.683 9.1875L278.679 10.1875L280.009 10.1918L280.012 9.19176L280.015 8.19177L278.686 8.18751L278.683 9.1875ZM280.012 9.19176L279.026 9.02842C278.973 9.34713 278.873 9.62957 278.729 9.88323L279.599 10.3764L280.469 10.8696C280.734 10.4017 280.909 9.89435 280.999 9.3551L280.012 9.19176ZM279.599 10.3764L278.728 9.8855C278.587 10.1355 278.407 10.3496 278.184 10.5327L278.819 11.3054L279.454 12.0781C279.867 11.7384 280.207 11.3333 280.47 10.8673L279.599 10.3764ZM278.819 11.3054L278.185 10.5321C277.965 10.7123 277.708 10.8567 277.406 10.9623L277.737 11.9062L278.067 12.8502C278.577 12.6717 279.042 12.4155 279.453 12.0787L278.819 11.3054ZM277.737 11.9062L277.406 10.9623C277.118 11.0632 276.788 11.1193 276.407 11.1193V12.1193V13.1193C276.987 13.1193 277.543 13.0334 278.067 12.8502L277.737 11.9062ZM276.407 12.1193V11.1193C275.816 11.1193 275.325 10.9816 274.905 10.7271L274.387 11.5824L273.869 12.4377C274.631 12.8991 275.486 13.1193 276.407 13.1193V12.1193ZM274.387 11.5824L274.908 10.7289C274.489 10.4729 274.145 10.1024 273.881 9.58226L272.989 10.0355L272.098 10.4888C272.515 11.3096 273.103 11.9702 273.866 12.4359L274.387 11.5824ZM272.989 10.0355L273.882 9.58527C273.629 9.08368 273.482 8.44534 273.482 7.63636H272.482H271.482C271.482 8.68534 271.673 9.64644 272.096 10.4857L272.989 10.0355ZM272.482 7.63636H273.482C273.482 6.82499 273.631 6.18869 273.884 5.69199L272.994 5.23722L272.103 4.78244C271.675 5.62097 271.482 6.58411 271.482 7.63636H272.482ZM272.994 5.23722L273.885 5.69046C274.149 5.17092 274.492 4.80275 274.909 4.54991L274.391 3.6946L273.873 2.83929C273.109 3.30237 272.52 3.9626 272.102 4.78397L272.994 5.23722ZM274.391 3.6946L274.912 4.54809C275.333 4.29143 275.821 4.15341 276.407 4.15341V3.15341V2.15341C275.487 2.15341 274.632 2.37619 273.87 2.84112L274.391 3.6946ZM276.407 3.15341V4.15341C276.773 4.15341 277.097 4.20597 277.386 4.30238L277.702 3.35369L278.019 2.40501C277.507 2.23438 276.967 2.15341 276.407 2.15341V3.15341ZM277.702 3.35369L277.394 4.30502C277.687 4.39995 277.942 4.53708 278.166 4.71546L278.789 3.93324L279.412 3.15102C278.994 2.81803 278.524 2.5688 278.011 2.40236L277.702 3.35369ZM278.789 3.93324L278.17 4.71883C278.387 4.88978 278.57 5.10052 278.719 5.3598L279.586 4.86222L280.453 4.36463C280.182 3.89096 279.833 3.48238 279.408 3.14764L278.789 3.93324ZM279.586 4.86222L278.72 5.36272C278.861 5.60699 278.967 5.90353 279.024 6.26645L280.012 6.1108L281 5.95514C280.909 5.38056 280.731 4.84472 280.452 4.36171L279.586 4.86222ZM286.545 4.452V3.452H285.545V4.452H286.545ZM291.861 4.452H292.861V3.452H291.861V4.452ZM291.861 12.936V13.936H292.861V12.936H291.861ZM290.841 12.936H289.841V13.936H290.841V12.936ZM290.841 5.472H291.841V4.472H290.841V5.472ZM287.517 5.472V4.472H286.517V5.472H287.517ZM287.517 13.008V14.008H288.517V13.008H287.517ZM286.545 13.008H285.545V14.008H286.545V13.008ZM287.013 7.776V6.776H286.013V7.776H287.013ZM291.285 7.776H292.285V6.776H291.285V7.776ZM291.285 8.796V9.796H292.285V8.796H291.285ZM287.013 8.796H286.013V9.796H287.013V8.796ZM287.013 11.304V10.304H286.013V11.304H287.013ZM291.285 11.304H292.285V10.304H291.285V11.304ZM291.285 12.324V13.324H292.285V12.324H291.285ZM287.013 12.324H286.013V13.324H287.013V12.324ZM288.621 1.872V0.872H287.621V1.872H288.621ZM289.665 1.872H290.665V0.872H289.665V1.872ZM289.665 4.92V5.92H290.665V4.92H289.665ZM289.641 4.92V3.92H288.641V4.92H289.641ZM289.641 11.904V12.904H290.641V11.904H289.641ZM288.645 11.904H287.645V12.904H288.645V11.904ZM288.645 4.92H289.645V3.92H288.645V4.92ZM288.621 4.92H287.621V5.92H288.621V4.92ZM281.181 3.108V2.108H280.181V3.108H281.181ZM286.161 3.108H287.161V2.108H286.161V3.108ZM286.161 4.104V5.104H287.161V4.104H286.161ZM281.181 4.104H280.181V5.104H281.181V4.104ZM281.049 9.996V8.996H280.049V9.996H281.049ZM286.305 9.996H287.305V8.996H286.305V9.996ZM286.305 10.992V11.992H287.305V10.992H286.305ZM281.049 10.992H280.049V11.992H281.049V10.992ZM283.173 1.872V0.872H282.173V1.872H283.173ZM284.193 1.872H285.193V0.872H284.193V1.872ZM284.193 5.256V6.256H285.193V5.256H284.193ZM283.173 5.256H282.173V6.256H283.173V5.256ZM283.281 5.28V4.28H282.281V5.28H283.281ZM284.085 5.28H285.085V4.28H284.085V5.28ZM284.085 8.712H283.085V9.712H284.085V8.712ZM284.193 8.712H285.193V7.712H284.193V8.712ZM284.193 13.02V14.02H285.193V13.02H284.193ZM283.173 13.02H282.173V14.02H283.173V13.02ZM283.173 8.712V7.712H282.173V8.712H283.173ZM283.281 8.712V9.712H284.281V8.712H283.281ZM282.321 7.392V6.392H281.321V7.392H282.321ZM282.321 8.316H281.321V9.316H282.321V8.316ZM285.093 8.316V9.316H286.093V8.316H285.093ZM285.093 7.392H286.093V6.392H285.093V7.392ZM282.321 5.7V4.7H281.321V5.7H282.321ZM282.321 6.612H281.321V7.612H282.321V6.612ZM285.093 6.612V7.612H286.093V6.612H285.093ZM285.093 5.7H286.093V4.7H285.093V5.7ZM281.469 4.884V3.884H280.469V4.884H281.469ZM285.969 4.884H286.969V3.884H285.969V4.884ZM285.969 9.132V10.132H286.969V9.132H285.969ZM281.469 9.132H280.469V10.132H281.469V9.132ZM286.545 4.452V5.452H291.861V4.452V3.452H286.545V4.452ZM291.861 4.452H290.861V12.936H291.861H292.861V4.452H291.861ZM291.861 12.936V11.936H290.841V12.936V13.936H291.861V12.936ZM290.841 12.936H291.841V5.472H290.841H289.841V12.936H290.841ZM290.841 5.472V4.472H287.517V5.472V6.472H290.841V5.472ZM287.517 5.472H286.517V13.008H287.517H288.517V5.472H287.517ZM287.517 13.008V12.008H286.545V13.008V14.008H287.517V13.008ZM286.545 13.008H287.545V4.452H286.545H285.545V13.008H286.545ZM287.013 7.776V8.776H291.285V7.776V6.776H287.013V7.776ZM291.285 7.776H290.285V8.796H291.285H292.285V7.776H291.285ZM291.285 8.796V7.796H287.013V8.796V9.796H291.285V8.796ZM287.013 8.796H288.013V7.776H287.013H286.013V8.796H287.013ZM287.013 11.304V12.304H291.285V11.304V10.304H287.013V11.304ZM291.285 11.304H290.285V12.324H291.285H292.285V11.304H291.285ZM291.285 12.324V11.324H287.013V12.324V13.324H291.285V12.324ZM287.013 12.324H288.013V11.304H287.013H286.013V12.324H287.013ZM288.621 1.872V2.872H289.665V1.872V0.872H288.621V1.872ZM289.665 1.872H288.665V4.92H289.665H290.665V1.872H289.665ZM289.665 4.92V3.92H289.641V4.92V5.92H289.665V4.92ZM289.641 4.92H288.641V11.904H289.641H290.641V4.92H289.641ZM289.641 11.904V10.904H288.645V11.904V12.904H289.641V11.904ZM288.645 11.904H289.645V4.92H288.645H287.645V11.904H288.645ZM288.645 4.92V3.92H288.621V4.92V5.92H288.645V4.92ZM288.621 4.92H289.621V1.872H288.621H287.621V4.92H288.621ZM281.181 3.108V4.108H286.161V3.108V2.108H281.181V3.108ZM286.161 3.108H285.161V4.104H286.161H287.161V3.108H286.161ZM286.161 4.104V3.104H281.181V4.104V5.104H286.161V4.104ZM281.181 4.104H282.181V3.108H281.181H280.181V4.104H281.181ZM281.049 9.996V10.996H286.305V9.996V8.996H281.049V9.996ZM286.305 9.996H285.305V10.992H286.305H287.305V9.996H286.305ZM286.305 10.992V9.992H281.049V10.992V11.992H286.305V10.992ZM281.049 10.992H282.049V9.996H281.049H280.049V10.992H281.049ZM283.173 1.872V2.872H284.193V1.872V0.872H283.173V1.872ZM284.193 1.872H283.193V5.256H284.193H285.193V1.872H284.193ZM284.193 5.256V4.256H283.173V5.256V6.256H284.193V5.256ZM283.173 5.256H284.173V1.872H283.173H282.173V5.256H283.173ZM283.281 5.28V6.28H284.085V5.28V4.28H283.281V5.28ZM284.085 5.28H283.085V8.712H284.085H285.085V5.28H284.085ZM284.085 8.712V9.712H284.193V8.712V7.712H284.085V8.712ZM284.193 8.712H283.193V13.02H284.193H285.193V8.712H284.193ZM284.193 13.02V12.02H283.173V13.02V14.02H284.193V13.02ZM283.173 13.02H284.173V8.712H283.173H282.173V13.02H283.173ZM283.173 8.712V9.712H283.281V8.712V7.712H283.173V8.712ZM283.281 8.712H284.281V5.28H283.281H282.281V8.712H283.281ZM282.321 7.392H281.321V8.316H282.321H283.321V7.392H282.321ZM282.321 8.316V9.316H285.093V8.316V7.316H282.321V8.316ZM285.093 8.316H286.093V7.392H285.093H284.093V8.316H285.093ZM285.093 7.392V6.392H282.321V7.392V8.392H285.093V7.392ZM282.321 5.7H281.321V6.612H282.321H283.321V5.7H282.321ZM282.321 6.612V7.612H285.093V6.612V5.612H282.321V6.612ZM285.093 6.612H286.093V5.7H285.093H284.093V6.612H285.093ZM285.093 5.7V4.7H282.321V5.7V6.7H285.093V5.7ZM281.469 4.884V5.884H285.969V4.884V3.884H281.469V4.884ZM285.969 4.884H284.969V9.132H285.969H286.969V4.884H285.969ZM285.969 9.132V8.132H281.469V9.132V10.132H285.969V9.132ZM281.469 9.132H282.469V4.884H281.469H280.469V9.132H281.469Z" fill="#71717A" mask="url(#path-11-outside-1_268_5809)"/>
<path d="M170.779 4H148.336H142C139.791 4 138 5.79086 138 8V9.09091V16C138 18.2091 139.791 20 142 20H178C180.209 20 182 18.2091 182 16V9.09091V8C182 5.79086 180.209 4 178 4H170.779Z" fill="#3F3F46" stroke="#A1A1A1" stroke-opacity="0.5"/>
<mask id="path-14-outside-2_268_5809" maskUnits="userSpaceOnUse" x="148.671" y="4" width="21" height="15" fill="black">
<rect fill="white" x="148.671" y="4" width="21" height="15"/>
<path d="M149.704 16V7.27273H152.9C153.52 7.27273 154.033 7.375 154.439 7.57955C154.845 7.78125 155.149 8.0554 155.351 8.40199C155.552 8.74574 155.653 9.13352 155.653 9.56534C155.653 9.92898 155.587 10.2358 155.453 10.4858C155.319 10.733 155.14 10.9318 154.916 11.0824C154.694 11.2301 154.45 11.3381 154.183 11.4062V11.4915C154.473 11.5057 154.756 11.5994 155.031 11.7727C155.31 11.9432 155.54 12.1861 155.721 12.5014C155.903 12.8168 155.994 13.2003 155.994 13.652C155.994 14.098 155.889 14.4986 155.679 14.8537C155.471 15.206 155.15 15.4858 154.716 15.6932C154.281 15.8977 153.726 16 153.05 16H149.704ZM151.021 14.8707H152.922C153.552 14.8707 154.004 14.7486 154.277 14.5043C154.55 14.2599 154.686 13.9545 154.686 13.5881C154.686 13.3125 154.616 13.0597 154.477 12.8295C154.338 12.5994 154.139 12.4162 153.881 12.2798C153.625 12.1435 153.321 12.0753 152.969 12.0753H151.021V14.8707ZM151.021 11.0483H152.785C153.081 11.0483 153.346 10.9915 153.582 10.8778C153.821 10.7642 154.01 10.6051 154.149 10.4006C154.291 10.1932 154.362 9.94886 154.362 9.66761C154.362 9.30682 154.236 9.00426 153.983 8.75994C153.73 8.51562 153.342 8.39347 152.819 8.39347H151.021V11.0483ZM162.513 8.452H167.829V16.936H166.809V9.472H163.485V17.008H162.513V8.452ZM162.981 11.776H167.253V12.796H162.981V11.776ZM162.981 15.304H167.253V16.324H162.981V15.304ZM164.589 5.872H165.633V8.92H165.609V15.904H164.613V8.92H164.589V5.872ZM157.149 7.108H162.129V8.104H157.149V7.108ZM157.017 13.996H162.273V14.992H157.017V13.996ZM159.141 5.872H160.161V9.256H159.141V5.872ZM159.249 9.28H160.053V12.712H160.161V17.02H159.141V12.712H159.249V9.28ZM158.289 11.392V12.316H161.061V11.392H158.289ZM158.289 9.7V10.612H161.061V9.7H158.289ZM157.437 8.884H161.937V13.132H157.437V8.884Z"/>
</mask>
<path d="M149.704 16V7.27273H152.9C153.52 7.27273 154.033 7.375 154.439 7.57955C154.845 7.78125 155.149 8.0554 155.351 8.40199C155.552 8.74574 155.653 9.13352 155.653 9.56534C155.653 9.92898 155.587 10.2358 155.453 10.4858C155.319 10.733 155.14 10.9318 154.916 11.0824C154.694 11.2301 154.45 11.3381 154.183 11.4062V11.4915C154.473 11.5057 154.756 11.5994 155.031 11.7727C155.31 11.9432 155.54 12.1861 155.721 12.5014C155.903 12.8168 155.994 13.2003 155.994 13.652C155.994 14.098 155.889 14.4986 155.679 14.8537C155.471 15.206 155.15 15.4858 154.716 15.6932C154.281 15.8977 153.726 16 153.05 16H149.704ZM151.021 14.8707H152.922C153.552 14.8707 154.004 14.7486 154.277 14.5043C154.55 14.2599 154.686 13.9545 154.686 13.5881C154.686 13.3125 154.616 13.0597 154.477 12.8295C154.338 12.5994 154.139 12.4162 153.881 12.2798C153.625 12.1435 153.321 12.0753 152.969 12.0753H151.021V14.8707ZM151.021 11.0483H152.785C153.081 11.0483 153.346 10.9915 153.582 10.8778C153.821 10.7642 154.01 10.6051 154.149 10.4006C154.291 10.1932 154.362 9.94886 154.362 9.66761C154.362 9.30682 154.236 9.00426 153.983 8.75994C153.73 8.51562 153.342 8.39347 152.819 8.39347H151.021V11.0483ZM162.513 8.452H167.829V16.936H166.809V9.472H163.485V17.008H162.513V8.452ZM162.981 11.776H167.253V12.796H162.981V11.776ZM162.981 15.304H167.253V16.324H162.981V15.304ZM164.589 5.872H165.633V8.92H165.609V15.904H164.613V8.92H164.589V5.872ZM157.149 7.108H162.129V8.104H157.149V7.108ZM157.017 13.996H162.273V14.992H157.017V13.996ZM159.141 5.872H160.161V9.256H159.141V5.872ZM159.249 9.28H160.053V12.712H160.161V17.02H159.141V12.712H159.249V9.28ZM158.289 11.392V12.316H161.061V11.392H158.289ZM158.289 9.7V10.612H161.061V9.7H158.289ZM157.437 8.884H161.937V13.132H157.437V8.884Z" fill="#FAFAFA"/>
<path d="M149.704 16H148.704V17H149.704V16ZM149.704 7.27273V6.27273H148.704V7.27273H149.704ZM154.439 7.57955L153.989 8.47273L153.994 8.47522L154.439 7.57955ZM155.351 8.40199L154.486 8.90498L154.488 8.90807L155.351 8.40199ZM155.453 10.4858L156.333 10.9611L156.335 10.9569L155.453 10.4858ZM154.916 11.0824L155.471 11.9144L155.473 11.9128L154.916 11.0824ZM154.183 11.4062L153.936 10.4373L153.183 10.6295V11.4062H154.183ZM154.183 11.4915H153.183V12.4437L154.134 12.4903L154.183 11.4915ZM155.031 11.7727L154.499 12.6193L154.509 12.6256L155.031 11.7727ZM155.721 12.5014L156.588 12.0019L156.588 12.0019L155.721 12.5014ZM155.679 14.8537L154.818 14.3443L154.817 14.3464L155.679 14.8537ZM154.716 15.6932L155.142 16.598L155.146 16.5957L154.716 15.6932ZM151.021 14.8707H150.021V15.8707H151.021V14.8707ZM154.277 14.5043L153.61 13.7594H153.61L154.277 14.5043ZM154.477 12.8295L153.622 13.3471H153.622L154.477 12.8295ZM153.881 12.2798L153.41 13.1622L153.414 13.1643L153.881 12.2798ZM151.021 12.0753V11.0753H150.021V12.0753H151.021ZM151.021 11.0483H150.021V12.0483H151.021V11.0483ZM153.582 10.8778L153.152 9.97497L153.148 9.977L153.582 10.8778ZM154.149 10.4006L153.324 9.83548L153.322 9.83794L154.149 10.4006ZM153.983 8.75994L153.288 9.47907L153.288 9.47907L153.983 8.75994ZM151.021 8.39347V7.39347H150.021V8.39347H151.021ZM149.704 16H150.704V7.27273H149.704H148.704V16H149.704ZM149.704 7.27273V8.27273H152.9V7.27273V6.27273H149.704V7.27273ZM152.9 7.27273V8.27273C153.417 8.27273 153.763 8.3591 153.989 8.47272L154.439 7.57955L154.888 6.68637C154.302 6.3909 153.622 6.27273 152.9 6.27273V7.27273ZM154.439 7.57955L153.994 8.47522C154.249 8.60167 154.396 8.74903 154.486 8.90498L155.351 8.40199L156.215 7.899C155.902 7.36177 155.441 6.96083 154.883 6.68387L154.439 7.57955ZM155.351 8.40199L154.488 8.90807C154.592 9.08566 154.653 9.29611 154.653 9.56534H155.653H156.653C156.653 8.97094 156.512 8.40582 156.213 7.8959L155.351 8.40199ZM155.653 9.56534H154.653C154.653 9.80991 154.608 9.94492 154.571 10.0147L155.453 10.4858L156.335 10.9569C156.565 10.5267 156.653 10.048 156.653 9.56534H155.653ZM155.453 10.4858L154.573 10.0105C154.514 10.1207 154.443 10.1954 154.359 10.252L154.916 11.0824L155.473 11.9128C155.838 11.6682 156.125 11.3452 156.333 10.9611L155.453 10.4858ZM154.916 11.0824L154.361 10.2503C154.237 10.3332 154.097 10.3961 153.936 10.4373L154.183 11.4062L154.43 12.3752C154.803 12.28 155.152 12.127 155.471 11.9144L154.916 11.0824ZM154.183 11.4062H153.183V11.4915H154.183H155.183V11.4062H154.183ZM154.183 11.4915L154.134 12.4903C154.232 12.4951 154.35 12.526 154.499 12.6193L155.031 11.7727L155.563 10.9262C155.161 10.6729 154.714 10.5163 154.232 10.4927L154.183 11.4915ZM155.031 11.7727L154.509 12.6256C154.629 12.6992 154.747 12.8133 154.855 13.0009L155.721 12.5014L156.588 12.0019C156.332 11.5589 155.99 11.1872 155.553 10.9199L155.031 11.7727ZM155.721 12.5014L154.855 13.0009C154.931 13.1318 154.994 13.3338 154.994 13.652H155.994H156.994C156.994 13.0668 156.876 12.5017 156.588 12.0019L155.721 12.5014ZM155.994 13.652H154.994C154.994 13.9338 154.93 14.1558 154.818 14.3443L155.679 14.8537L156.539 15.3631C156.848 14.8414 156.994 14.2623 156.994 13.652H155.994ZM155.679 14.8537L154.817 14.3464C154.728 14.4981 154.573 14.6535 154.285 14.7906L154.716 15.6932L155.146 16.5957C155.728 16.3181 156.215 15.9139 156.541 15.361L155.679 14.8537ZM154.716 15.6932L154.29 14.7884C154.031 14.9101 153.635 15 153.05 15V16V17C153.817 17 154.531 16.8854 155.142 16.598L154.716 15.6932ZM153.05 16V15H149.704V16V17H153.05V16ZM151.021 14.8707V15.8707H152.922V14.8707V13.8707H151.021V14.8707ZM152.922 14.8707V15.8707C153.635 15.8707 154.395 15.7412 154.944 15.2491L154.277 14.5043L153.61 13.7594C153.617 13.7525 153.588 13.7825 153.472 13.8138C153.355 13.8455 153.177 13.8707 152.922 13.8707V14.8707ZM154.277 14.5043L154.944 15.2491C155.429 14.8149 155.686 14.2386 155.686 13.5881H154.686H153.686C153.686 13.6705 153.67 13.705 153.61 13.7594L154.277 14.5043ZM154.686 13.5881H155.686C155.686 13.1348 155.569 12.7022 155.333 12.3119L154.477 12.8295L153.622 13.3471C153.664 13.4171 153.686 13.4902 153.686 13.5881H154.686ZM154.477 12.8295L155.333 12.3119C155.091 11.9131 154.752 11.6088 154.347 11.3953L153.881 12.2798L153.414 13.1643C153.526 13.2236 153.584 13.2858 153.622 13.3471L154.477 12.8295ZM153.881 12.2798L154.351 11.3975C153.923 11.1689 153.45 11.0753 152.969 11.0753V12.0753V13.0753C153.192 13.0753 153.327 13.118 153.41 13.1622L153.881 12.2798ZM152.969 12.0753V11.0753H151.021V12.0753V13.0753H152.969V12.0753ZM151.021 12.0753H150.021V14.8707H151.021H152.021V12.0753H151.021ZM151.021 11.0483V12.0483H152.785V11.0483V10.0483H151.021V11.0483ZM152.785 11.0483V12.0483C153.212 12.0483 153.629 11.9655 154.016 11.7787L153.582 10.8778L153.148 9.977C153.064 10.0174 152.95 10.0483 152.785 10.0483V11.0483ZM153.582 10.8778L154.012 11.7807C154.4 11.5962 154.73 11.3244 154.976 10.9632L154.149 10.4006L153.322 9.83794C153.29 9.88587 153.242 9.93218 153.152 9.97498L153.582 10.8778ZM154.149 10.4006L154.974 10.9657C155.243 10.5724 155.362 10.1256 155.362 9.66761H154.362H153.362C153.362 9.77209 153.339 9.81394 153.324 9.83548L154.149 10.4006ZM154.362 9.66761H155.362C155.362 9.04364 155.131 8.47904 154.678 8.04082L153.983 8.75994L153.288 9.47907C153.34 9.52948 153.362 9.56999 153.362 9.66761H154.362ZM153.983 8.75994L154.678 8.04082C154.165 7.54522 153.477 7.39347 152.819 7.39347V8.39347V9.39347C153.006 9.39347 153.128 9.41573 153.202 9.43888C153.237 9.45007 153.259 9.46072 153.271 9.46762C153.283 9.47426 153.287 9.47844 153.288 9.47907L153.983 8.75994ZM152.819 8.39347V7.39347H151.021V8.39347V9.39347H152.819V8.39347ZM151.021 8.39347H150.021V11.0483H151.021H152.021V8.39347H151.021ZM162.513 8.452V7.452H161.513V8.452H162.513ZM167.829 8.452H168.829V7.452H167.829V8.452ZM167.829 16.936V17.936H168.829V16.936H167.829ZM166.809 16.936H165.809V17.936H166.809V16.936ZM166.809 9.472H167.809V8.472H166.809V9.472ZM163.485 9.472V8.472H162.485V9.472H163.485ZM163.485 17.008V18.008H164.485V17.008H163.485ZM162.513 17.008H161.513V18.008H162.513V17.008ZM162.981 11.776V10.776H161.981V11.776H162.981ZM167.253 11.776H168.253V10.776H167.253V11.776ZM167.253 12.796V13.796H168.253V12.796H167.253ZM162.981 12.796H161.981V13.796H162.981V12.796ZM162.981 15.304V14.304H161.981V15.304H162.981ZM167.253 15.304H168.253V14.304H167.253V15.304ZM167.253 16.324V17.324H168.253V16.324H167.253ZM162.981 16.324H161.981V17.324H162.981V16.324ZM164.589 5.872V4.872H163.589V5.872H164.589ZM165.633 5.872H166.633V4.872H165.633V5.872ZM165.633 8.92V9.92H166.633V8.92H165.633ZM165.609 8.92V7.92H164.609V8.92H165.609ZM165.609 15.904V16.904H166.609V15.904H165.609ZM164.613 15.904H163.613V16.904H164.613V15.904ZM164.613 8.92H165.613V7.92H164.613V8.92ZM164.589 8.92H163.589V9.92H164.589V8.92ZM157.149 7.108V6.108H156.149V7.108H157.149ZM162.129 7.108H163.129V6.108H162.129V7.108ZM162.129 8.104V9.104H163.129V8.104H162.129ZM157.149 8.104H156.149V9.104H157.149V8.104ZM157.017 13.996V12.996H156.017V13.996H157.017ZM162.273 13.996H163.273V12.996H162.273V13.996ZM162.273 14.992V15.992H163.273V14.992H162.273ZM157.017 14.992H156.017V15.992H157.017V14.992ZM159.141 5.872V4.872H158.141V5.872H159.141ZM160.161 5.872H161.161V4.872H160.161V5.872ZM160.161 9.256V10.256H161.161V9.256H160.161ZM159.141 9.256H158.141V10.256H159.141V9.256ZM159.249 9.28V8.28H158.249V9.28H159.249ZM160.053 9.28H161.053V8.28H160.053V9.28ZM160.053 12.712H159.053V13.712H160.053V12.712ZM160.161 12.712H161.161V11.712H160.161V12.712ZM160.161 17.02V18.02H161.161V17.02H160.161ZM159.141 17.02H158.141V18.02H159.141V17.02ZM159.141 12.712V11.712H158.141V12.712H159.141ZM159.249 12.712V13.712H160.249V12.712H159.249ZM158.289 11.392V10.392H157.289V11.392H158.289ZM158.289 12.316H157.289V13.316H158.289V12.316ZM161.061 12.316V13.316H162.061V12.316H161.061ZM161.061 11.392H162.061V10.392H161.061V11.392ZM158.289 9.7V8.7H157.289V9.7H158.289ZM158.289 10.612H157.289V11.612H158.289V10.612ZM161.061 10.612V11.612H162.061V10.612H161.061ZM161.061 9.7H162.061V8.7H161.061V9.7ZM157.437 8.884V7.884H156.437V8.884H157.437ZM161.937 8.884H162.937V7.884H161.937V8.884ZM161.937 13.132V14.132H162.937V13.132H161.937ZM157.437 13.132H156.437V14.132H157.437V13.132ZM162.513 8.452V9.452H167.829V8.452V7.452H162.513V8.452ZM167.829 8.452H166.829V16.936H167.829H168.829V8.452H167.829ZM167.829 16.936V15.936H166.809V16.936V17.936H167.829V16.936ZM166.809 16.936H167.809V9.472H166.809H165.809V16.936H166.809ZM166.809 9.472V8.472H163.485V9.472V10.472H166.809V9.472ZM163.485 9.472H162.485V17.008H163.485H164.485V9.472H163.485ZM163.485 17.008V16.008H162.513V17.008V18.008H163.485V17.008ZM162.513 17.008H163.513V8.452H162.513H161.513V17.008H162.513ZM162.981 11.776V12.776H167.253V11.776V10.776H162.981V11.776ZM167.253 11.776H166.253V12.796H167.253H168.253V11.776H167.253ZM167.253 12.796V11.796H162.981V12.796V13.796H167.253V12.796ZM162.981 12.796H163.981V11.776H162.981H161.981V12.796H162.981ZM162.981 15.304V16.304H167.253V15.304V14.304H162.981V15.304ZM167.253 15.304H166.253V16.324H167.253H168.253V15.304H167.253ZM167.253 16.324V15.324H162.981V16.324V17.324H167.253V16.324ZM162.981 16.324H163.981V15.304H162.981H161.981V16.324H162.981ZM164.589 5.872V6.872H165.633V5.872V4.872H164.589V5.872ZM165.633 5.872H164.633V8.92H165.633H166.633V5.872H165.633ZM165.633 8.92V7.92H165.609V8.92V9.92H165.633V8.92ZM165.609 8.92H164.609V15.904H165.609H166.609V8.92H165.609ZM165.609 15.904V14.904H164.613V15.904V16.904H165.609V15.904ZM164.613 15.904H165.613V8.92H164.613H163.613V15.904H164.613ZM164.613 8.92V7.92H164.589V8.92V9.92H164.613V8.92ZM164.589 8.92H165.589V5.872H164.589H163.589V8.92H164.589ZM157.149 7.108V8.108H162.129V7.108V6.108H157.149V7.108ZM162.129 7.108H161.129V8.104H162.129H163.129V7.108H162.129ZM162.129 8.104V7.104H157.149V8.104V9.104H162.129V8.104ZM157.149 8.104H158.149V7.108H157.149H156.149V8.104H157.149ZM157.017 13.996V14.996H162.273V13.996V12.996H157.017V13.996ZM162.273 13.996H161.273V14.992H162.273H163.273V13.996H162.273ZM162.273 14.992V13.992H157.017V14.992V15.992H162.273V14.992ZM157.017 14.992H158.017V13.996H157.017H156.017V14.992H157.017ZM159.141 5.872V6.872H160.161V5.872V4.872H159.141V5.872ZM160.161 5.872H159.161V9.256H160.161H161.161V5.872H160.161ZM160.161 9.256V8.256H159.141V9.256V10.256H160.161V9.256ZM159.141 9.256H160.141V5.872H159.141H158.141V9.256H159.141ZM159.249 9.28V10.28H160.053V9.28V8.28H159.249V9.28ZM160.053 9.28H159.053V12.712H160.053H161.053V9.28H160.053ZM160.053 12.712V13.712H160.161V12.712V11.712H160.053V12.712ZM160.161 12.712H159.161V17.02H160.161H161.161V12.712H160.161ZM160.161 17.02V16.02H159.141V17.02V18.02H160.161V17.02ZM159.141 17.02H160.141V12.712H159.141H158.141V17.02H159.141ZM159.141 12.712V13.712H159.249V12.712V11.712H159.141V12.712ZM159.249 12.712H160.249V9.28H159.249H158.249V12.712H159.249ZM158.289 11.392H157.289V12.316H158.289H159.289V11.392H158.289ZM158.289 12.316V13.316H161.061V12.316V11.316H158.289V12.316ZM161.061 12.316H162.061V11.392H161.061H160.061V12.316H161.061ZM161.061 11.392V10.392H158.289V11.392V12.392H161.061V11.392ZM158.289 9.7H157.289V10.612H158.289H159.289V9.7H158.289ZM158.289 10.612V11.612H161.061V10.612V9.612H158.289V10.612ZM161.061 10.612H162.061V9.7H161.061H160.061V10.612H161.061ZM161.061 9.7V8.7H158.289V9.7V10.7H161.061V9.7ZM157.437 8.884V9.884H161.937V8.884V7.884H157.437V8.884ZM161.937 8.884H160.937V13.132H161.937H162.937V8.884H161.937ZM161.937 13.132V12.132H157.437V13.132V14.132H161.937V13.132ZM157.437 13.132H158.437V8.884H157.437H156.437V13.132H157.437Z" fill="#71717A" mask="url(#path-14-outside-2_268_5809)"/>
<path d="M235.528 23.4204L114.051 23.4204L84.8755 30.1856L221.642 30.234L235.528 23.4204Z" fill="#3F3939" fill-opacity="0.5"/>
<rect x="84.6729" y="30.2583" width="9.37729" height="44.088" fill="#71717A"/>
<rect x="212.829" y="30.2583" width="9.37729" height="44.088" fill="#71717A"/>
<rect x="222.207" y="30.2583" width="4.8096" height="137.534" transform="rotate(90 222.207 30.2583)" fill="#71717A"/>
<rect x="138.276" y="64" width="43.2864" height="16" rx="4" fill="#3F3F46"/>
<rect x="138.276" y="64" width="43.2864" height="16" rx="4" stroke="#A1A1A1" stroke-opacity="0.5"/>
<mask id="path-21-outside-3_268_5809" maskUnits="userSpaceOnUse" x="149.419" y="64" width="22" height="15" fill="black">
<rect fill="white" x="149.419" y="64" width="22" height="15"/>
<path d="M153.373 76H150.548V67.2727H153.462C154.318 67.2727 155.052 67.4474 155.666 67.7969C156.279 68.1435 156.749 68.642 157.076 69.2926C157.406 69.9403 157.57 70.7173 157.57 71.6236C157.57 72.5327 157.404 73.3139 157.072 73.9673C156.742 74.6207 156.265 75.1236 155.64 75.4759C155.015 75.8253 154.259 76 153.373 76ZM151.864 74.8494H153.301C153.965 74.8494 154.518 74.7244 154.958 74.4744C155.399 74.2216 155.728 73.8565 155.947 73.3793C156.166 72.8991 156.275 72.3139 156.275 71.6236C156.275 70.9389 156.166 70.358 155.947 69.8807C155.731 69.4034 155.408 69.0412 154.979 68.794C154.551 68.5469 154.018 68.4233 153.381 68.4233H151.864V74.8494ZM164.165 68.452H169.481V76.936H168.461V69.472H165.137V77.008H164.165V68.452ZM164.633 71.776H168.905V72.796H164.633V71.776ZM164.633 75.304H168.905V76.324H164.633V75.304ZM166.241 65.872H167.285V68.92H167.261V75.904H166.265V68.92H166.241V65.872ZM158.801 67.108H163.781V68.104H158.801V67.108ZM158.669 73.996H163.925V74.992H158.669V73.996ZM160.793 65.872H161.813V69.256H160.793V65.872ZM160.901 69.28H161.705V72.712H161.813V77.02H160.793V72.712H160.901V69.28ZM159.941 71.392V72.316H162.713V71.392H159.941ZM159.941 69.7V70.612H162.713V69.7H159.941ZM159.089 68.884H163.589V73.132H159.089V68.884Z"/>
</mask>
<path d="M153.373 76H150.548V67.2727H153.462C154.318 67.2727 155.052 67.4474 155.666 67.7969C156.279 68.1435 156.749 68.642 157.076 69.2926C157.406 69.9403 157.57 70.7173 157.57 71.6236C157.57 72.5327 157.404 73.3139 157.072 73.9673C156.742 74.6207 156.265 75.1236 155.64 75.4759C155.015 75.8253 154.259 76 153.373 76ZM151.864 74.8494H153.301C153.965 74.8494 154.518 74.7244 154.958 74.4744C155.399 74.2216 155.728 73.8565 155.947 73.3793C156.166 72.8991 156.275 72.3139 156.275 71.6236C156.275 70.9389 156.166 70.358 155.947 69.8807C155.731 69.4034 155.408 69.0412 154.979 68.794C154.551 68.5469 154.018 68.4233 153.381 68.4233H151.864V74.8494ZM164.165 68.452H169.481V76.936H168.461V69.472H165.137V77.008H164.165V68.452ZM164.633 71.776H168.905V72.796H164.633V71.776ZM164.633 75.304H168.905V76.324H164.633V75.304ZM166.241 65.872H167.285V68.92H167.261V75.904H166.265V68.92H166.241V65.872ZM158.801 67.108H163.781V68.104H158.801V67.108ZM158.669 73.996H163.925V74.992H158.669V73.996ZM160.793 65.872H161.813V69.256H160.793V65.872ZM160.901 69.28H161.705V72.712H161.813V77.02H160.793V72.712H160.901V69.28ZM159.941 71.392V72.316H162.713V71.392H159.941ZM159.941 69.7V70.612H162.713V69.7H159.941ZM159.089 68.884H163.589V73.132H159.089V68.884Z" fill="#FAFAFA"/>
<path d="M150.548 76H149.548V77H150.548V76ZM150.548 67.2727V66.2727H149.548V67.2727H150.548ZM155.666 67.7969L155.171 68.6659L155.174 68.6676L155.666 67.7969ZM157.076 69.2926L156.182 69.7414L156.185 69.7461L157.076 69.2926ZM157.072 73.9673L156.181 73.5139L156.179 73.517L157.072 73.9673ZM155.64 75.4759L156.128 76.3487L156.131 76.347L155.64 75.4759ZM151.864 74.8494H150.864V75.8494H151.864V74.8494ZM154.958 74.4744L155.452 75.3441L155.456 75.3416L154.958 74.4744ZM155.947 73.3793L156.856 73.7959L156.857 73.7939L155.947 73.3793ZM155.947 69.8807L155.036 70.2929L155.038 70.2973L155.947 69.8807ZM154.979 68.794L154.48 69.6605H154.48L154.979 68.794ZM151.864 68.4233V67.4233H150.864V68.4233H151.864ZM153.373 76V75H150.548V76V77H153.373V76ZM150.548 76H151.548V67.2727H150.548H149.548V76H150.548ZM150.548 67.2727V68.2727H153.462V67.2727V66.2727H150.548V67.2727ZM153.462 67.2727V68.2727C154.181 68.2727 154.737 68.4187 155.171 68.6659L155.666 67.7969L156.16 66.9279C155.367 66.4762 154.455 66.2727 153.462 66.2727V67.2727ZM155.666 67.7969L155.174 68.6676C155.609 68.9132 155.942 69.262 156.182 69.7414L157.076 69.2926L157.97 68.8438C157.557 68.0221 156.95 67.3737 156.157 66.9262L155.666 67.7969ZM157.076 69.2926L156.185 69.7461C156.427 70.2229 156.57 70.8368 156.57 71.6236H157.57H158.57C158.57 70.5978 158.384 69.6578 157.967 68.8392L157.076 69.2926ZM157.57 71.6236H156.57C156.57 72.4122 156.426 73.0307 156.181 73.5139L157.072 73.9673L157.963 74.4207C158.382 73.5972 158.57 72.6532 158.57 71.6236H157.57ZM157.072 73.9673L156.179 73.517C155.937 73.9972 155.598 74.3518 155.149 74.6047L155.64 75.4759L156.131 76.347C156.932 75.8953 157.548 75.2443 157.965 74.4176L157.072 73.9673ZM155.64 75.4759L155.152 74.603C154.708 74.8514 154.129 75 153.373 75V76V77C154.39 77 155.322 76.7991 156.128 76.3487L155.64 75.4759ZM151.864 74.8494V75.8494H153.301V74.8494V73.8494H151.864V74.8494ZM153.301 74.8494V75.8494C154.086 75.8494 154.821 75.7022 155.452 75.3441L154.958 74.4744L154.464 73.6048C154.215 73.7467 153.845 73.8494 153.301 73.8494V74.8494ZM154.958 74.4744L155.456 75.3416C156.084 74.9814 156.554 74.4557 156.856 73.7959L155.947 73.3793L155.038 72.9626C154.903 73.2574 154.714 73.4618 154.46 73.6072L154.958 74.4744ZM155.947 73.3793L156.857 73.7939C157.15 73.15 157.275 72.4148 157.275 71.6236H156.275H155.275C155.275 72.2131 155.181 72.6483 155.037 72.9646L155.947 73.3793ZM156.275 71.6236H157.275C157.275 70.837 157.15 70.1054 156.856 69.464L155.947 69.8807L155.038 70.2973C155.181 70.6105 155.275 71.0408 155.275 71.6236H156.275ZM155.947 69.8807L156.858 69.4685C156.561 68.8122 156.1 68.2856 155.479 67.9276L154.979 68.794L154.48 69.6605C154.717 69.7968 154.901 69.9946 155.036 70.2928L155.947 69.8807ZM154.979 68.794L155.479 67.9276C154.86 67.5714 154.144 67.4233 153.381 67.4233V68.4233V69.4233C153.892 69.4233 154.241 69.5224 154.48 69.6605L154.979 68.794ZM153.381 68.4233V67.4233H151.864V68.4233V69.4233H153.381V68.4233ZM151.864 68.4233H150.864V74.8494H151.864H152.864V68.4233H151.864ZM164.165 68.452V67.452H163.165V68.452H164.165ZM169.481 68.452H170.481V67.452H169.481V68.452ZM169.481 76.936V77.936H170.481V76.936H169.481ZM168.461 76.936H167.461V77.936H168.461V76.936ZM168.461 69.472H169.461V68.472H168.461V69.472ZM165.137 69.472V68.472H164.137V69.472H165.137ZM165.137 77.008V78.008H166.137V77.008H165.137ZM164.165 77.008H163.165V78.008H164.165V77.008ZM164.633 71.776V70.776H163.633V71.776H164.633ZM168.905 71.776H169.905V70.776H168.905V71.776ZM168.905 72.796V73.796H169.905V72.796H168.905ZM164.633 72.796H163.633V73.796H164.633V72.796ZM164.633 75.304V74.304H163.633V75.304H164.633ZM168.905 75.304H169.905V74.304H168.905V75.304ZM168.905 76.324V77.324H169.905V76.324H168.905ZM164.633 76.324H163.633V77.324H164.633V76.324ZM166.241 65.872V64.872H165.241V65.872H166.241ZM167.285 65.872H168.285V64.872H167.285V65.872ZM167.285 68.92V69.92H168.285V68.92H167.285ZM167.261 68.92V67.92H166.261V68.92H167.261ZM167.261 75.904V76.904H168.261V75.904H167.261ZM166.265 75.904H165.265V76.904H166.265V75.904ZM166.265 68.92H167.265V67.92H166.265V68.92ZM166.241 68.92H165.241V69.92H166.241V68.92ZM158.801 67.108V66.108H157.801V67.108H158.801ZM163.781 67.108H164.781V66.108H163.781V67.108ZM163.781 68.104V69.104H164.781V68.104H163.781ZM158.801 68.104H157.801V69.104H158.801V68.104ZM158.669 73.996V72.996H157.669V73.996H158.669ZM163.925 73.996H164.925V72.996H163.925V73.996ZM163.925 74.992V75.992H164.925V74.992H163.925ZM158.669 74.992H157.669V75.992H158.669V74.992ZM160.793 65.872V64.872H159.793V65.872H160.793ZM161.813 65.872H162.813V64.872H161.813V65.872ZM161.813 69.256V70.256H162.813V69.256H161.813ZM160.793 69.256H159.793V70.256H160.793V69.256ZM160.901 69.28V68.28H159.901V69.28H160.901ZM161.705 69.28H162.705V68.28H161.705V69.28ZM161.705 72.712H160.705V73.712H161.705V72.712ZM161.813 72.712H162.813V71.712H161.813V72.712ZM161.813 77.02V78.02H162.813V77.02H161.813ZM160.793 77.02H159.793V78.02H160.793V77.02ZM160.793 72.712V71.712H159.793V72.712H160.793ZM160.901 72.712V73.712H161.901V72.712H160.901ZM159.941 71.392V70.392H158.941V71.392H159.941ZM159.941 72.316H158.941V73.316H159.941V72.316ZM162.713 72.316V73.316H163.713V72.316H162.713ZM162.713 71.392H163.713V70.392H162.713V71.392ZM159.941 69.7V68.7H158.941V69.7H159.941ZM159.941 70.612H158.941V71.612H159.941V70.612ZM162.713 70.612V71.612H163.713V70.612H162.713ZM162.713 69.7H163.713V68.7H162.713V69.7ZM159.089 68.884V67.884H158.089V68.884H159.089ZM163.589 68.884H164.589V67.884H163.589V68.884ZM163.589 73.132V74.132H164.589V73.132H163.589ZM159.089 73.132H158.089V74.132H159.089V73.132ZM164.165 68.452V69.452H169.481V68.452V67.452H164.165V68.452ZM169.481 68.452H168.481V76.936H169.481H170.481V68.452H169.481ZM169.481 76.936V75.936H168.461V76.936V77.936H169.481V76.936ZM168.461 76.936H169.461V69.472H168.461H167.461V76.936H168.461ZM168.461 69.472V68.472H165.137V69.472V70.472H168.461V69.472ZM165.137 69.472H164.137V77.008H165.137H166.137V69.472H165.137ZM165.137 77.008V76.008H164.165V77.008V78.008H165.137V77.008ZM164.165 77.008H165.165V68.452H164.165H163.165V77.008H164.165ZM164.633 71.776V72.776H168.905V71.776V70.776H164.633V71.776ZM168.905 71.776H167.905V72.796H168.905H169.905V71.776H168.905ZM168.905 72.796V71.796H164.633V72.796V73.796H168.905V72.796ZM164.633 72.796H165.633V71.776H164.633H163.633V72.796H164.633ZM164.633 75.304V76.304H168.905V75.304V74.304H164.633V75.304ZM168.905 75.304H167.905V76.324H168.905H169.905V75.304H168.905ZM168.905 76.324V75.324H164.633V76.324V77.324H168.905V76.324ZM164.633 76.324H165.633V75.304H164.633H163.633V76.324H164.633ZM166.241 65.872V66.872H167.285V65.872V64.872H166.241V65.872ZM167.285 65.872H166.285V68.92H167.285H168.285V65.872H167.285ZM167.285 68.92V67.92H167.261V68.92V69.92H167.285V68.92ZM167.261 68.92H166.261V75.904H167.261H168.261V68.92H167.261ZM167.261 75.904V74.904H166.265V75.904V76.904H167.261V75.904ZM166.265 75.904H167.265V68.92H166.265H165.265V75.904H166.265ZM166.265 68.92V67.92H166.241V68.92V69.92H166.265V68.92ZM166.241 68.92H167.241V65.872H166.241H165.241V68.92H166.241ZM158.801 67.108V68.108H163.781V67.108V66.108H158.801V67.108ZM163.781 67.108H162.781V68.104H163.781H164.781V67.108H163.781ZM163.781 68.104V67.104H158.801V68.104V69.104H163.781V68.104ZM158.801 68.104H159.801V67.108H158.801H157.801V68.104H158.801ZM158.669 73.996V74.996H163.925V73.996V72.996H158.669V73.996ZM163.925 73.996H162.925V74.992H163.925H164.925V73.996H163.925ZM163.925 74.992V73.992H158.669V74.992V75.992H163.925V74.992ZM158.669 74.992H159.669V73.996H158.669H157.669V74.992H158.669ZM160.793 65.872V66.872H161.813V65.872V64.872H160.793V65.872ZM161.813 65.872H160.813V69.256H161.813H162.813V65.872H161.813ZM161.813 69.256V68.256H160.793V69.256V70.256H161.813V69.256ZM160.793 69.256H161.793V65.872H160.793H159.793V69.256H160.793ZM160.901 69.28V70.28H161.705V69.28V68.28H160.901V69.28ZM161.705 69.28H160.705V72.712H161.705H162.705V69.28H161.705ZM161.705 72.712V73.712H161.813V72.712V71.712H161.705V72.712ZM161.813 72.712H160.813V77.02H161.813H162.813V72.712H161.813ZM161.813 77.02V76.02H160.793V77.02V78.02H161.813V77.02ZM160.793 77.02H161.793V72.712H160.793H159.793V77.02H160.793ZM160.793 72.712V73.712H160.901V72.712V71.712H160.793V72.712ZM160.901 72.712H161.901V69.28H160.901H159.901V72.712H160.901ZM159.941 71.392H158.941V72.316H159.941H160.941V71.392H159.941ZM159.941 72.316V73.316H162.713V72.316V71.316H159.941V72.316ZM162.713 72.316H163.713V71.392H162.713H161.713V72.316H162.713ZM162.713 71.392V70.392H159.941V71.392V72.392H162.713V71.392ZM159.941 69.7H158.941V70.612H159.941H160.941V69.7H159.941ZM159.941 70.612V71.612H162.713V70.612V69.612H159.941V70.612ZM162.713 70.612H163.713V69.7H162.713H161.713V70.612H162.713ZM162.713 69.7V68.7H159.941V69.7V70.7H162.713V69.7ZM159.089 68.884V69.884H163.589V68.884V67.884H159.089V68.884ZM163.589 68.884H162.589V73.132H163.589H164.589V68.884H163.589ZM163.589 73.132V72.132H159.089V73.132V74.132H163.589V73.132ZM159.089 73.132H160.089V68.884H159.089H158.089V73.132H159.089Z" fill="#71717A" mask="url(#path-21-outside-3_268_5809)"/>
<path d="M47.7785 3H25.3356H19C16.7909 3 15 4.79086 15 7V8.09091V15C15 17.2091 16.7909 19 19 19H55C57.2091 19 59 17.2091 59 15V8.09091V7C59 4.79086 57.2091 3 55 3H47.7785Z" fill="#3F3F46" stroke="#A1A1A1" stroke-opacity="0.5"/>
<mask id="path-24-outside-4_268_5809" maskUnits="userSpaceOnUse" x="24.626" y="3" width="22" height="15" fill="black">
<rect fill="white" x="24.626" y="3" width="22" height="15"/>
<path d="M27.6208 15H26.2231L29.3637 6.27273H30.885L34.0257 15H32.6279L30.1606 7.85795H30.0924L27.6208 15ZM27.8552 11.5824H32.3893V12.6903H27.8552V11.5824ZM40.2431 7.452H45.5591V15.936H44.5391V8.472H41.2151V16.008H40.2431V7.452ZM40.7111 10.776H44.9831V11.796H40.7111V10.776ZM40.7111 14.304H44.9831V15.324H40.7111V14.304ZM42.3191 4.872H43.3631V7.92H43.3391V14.904H42.3431V7.92H42.3191V4.872ZM34.8791 6.108H39.8591V7.104H34.8791V6.108ZM34.7471 12.996H40.0031V13.992H34.7471V12.996ZM36.8711 4.872H37.8911V8.256H36.8711V4.872ZM36.9791 8.28H37.7831V11.712H37.8911V16.02H36.8711V11.712H36.9791V8.28ZM36.0191 10.392V11.316H38.7911V10.392H36.0191ZM36.0191 8.7V9.612H38.7911V8.7H36.0191ZM35.1671 7.884H39.6671V12.132H35.1671V7.884Z"/>
</mask>
<path d="M27.6208 15H26.2231L29.3637 6.27273H30.885L34.0257 15H32.6279L30.1606 7.85795H30.0924L27.6208 15ZM27.8552 11.5824H32.3893V12.6903H27.8552V11.5824ZM40.2431 7.452H45.5591V15.936H44.5391V8.472H41.2151V16.008H40.2431V7.452ZM40.7111 10.776H44.9831V11.796H40.7111V10.776ZM40.7111 14.304H44.9831V15.324H40.7111V14.304ZM42.3191 4.872H43.3631V7.92H43.3391V14.904H42.3431V7.92H42.3191V4.872ZM34.8791 6.108H39.8591V7.104H34.8791V6.108ZM34.7471 12.996H40.0031V13.992H34.7471V12.996ZM36.8711 4.872H37.8911V8.256H36.8711V4.872ZM36.9791 8.28H37.7831V11.712H37.8911V16.02H36.8711V11.712H36.9791V8.28ZM36.0191 10.392V11.316H38.7911V10.392H36.0191ZM36.0191 8.7V9.612H38.7911V8.7H36.0191ZM35.1671 7.884H39.6671V12.132H35.1671V7.884Z" fill="#FAFAFA"/>
<path d="M27.6208 15V16H28.333L28.5658 15.327L27.6208 15ZM26.2231 15L25.2822 14.6614L24.8005 16H26.2231V15ZM29.3637 6.27273V5.27273H28.6608L28.4228 5.93412L29.3637 6.27273ZM30.885 6.27273L31.826 5.93412L31.5879 5.27273H30.885V6.27273ZM34.0257 15V16H35.4483L34.9666 14.6614L34.0257 15ZM32.6279 15L31.6827 15.3265L31.9154 16H32.6279V15ZM30.1606 7.85795L31.1058 7.53142L30.8731 6.85795H30.1606V7.85795ZM30.0924 7.85795V6.85795H29.3803L29.1474 7.53092L30.0924 7.85795ZM27.8552 11.5824V10.5824H26.8552V11.5824H27.8552ZM32.3893 11.5824H33.3893V10.5824H32.3893V11.5824ZM32.3893 12.6903V13.6903H33.3893V12.6903H32.3893ZM27.8552 12.6903H26.8552V13.6903H27.8552V12.6903ZM27.6208 15V14H26.2231V15V16H27.6208V15ZM26.2231 15L27.164 15.3386L30.3047 6.61133L29.3637 6.27273L28.4228 5.93412L25.2822 14.6614L26.2231 15ZM29.3637 6.27273V7.27273H30.885V6.27273V5.27273H29.3637V6.27273ZM30.885 6.27273L29.9441 6.61133L33.0847 15.3386L34.0257 15L34.9666 14.6614L31.826 5.93412L30.885 6.27273ZM34.0257 15V14H32.6279V15V16H34.0257V15ZM32.6279 15L33.5731 14.6735L31.1058 7.53142L30.1606 7.85795L29.2154 8.18448L31.6827 15.3265L32.6279 15ZM30.1606 7.85795V6.85795H30.0924V7.85795V8.85795H30.1606V7.85795ZM30.0924 7.85795L29.1474 7.53092L26.6758 14.673L27.6208 15L28.5658 15.327L31.0374 8.18499L30.0924 7.85795ZM27.8552 11.5824V12.5824H32.3893V11.5824V10.5824H27.8552V11.5824ZM32.3893 11.5824H31.3893V12.6903H32.3893H33.3893V11.5824H32.3893ZM32.3893 12.6903V11.6903H27.8552V12.6903V13.6903H32.3893V12.6903ZM27.8552 12.6903H28.8552V11.5824H27.8552H26.8552V12.6903H27.8552ZM40.2431 7.452V6.452H39.2431V7.452H40.2431ZM45.5591 7.452H46.5591V6.452H45.5591V7.452ZM45.5591 15.936V16.936H46.5591V15.936H45.5591ZM44.5391 15.936H43.5391V16.936H44.5391V15.936ZM44.5391 8.472H45.5391V7.472H44.5391V8.472ZM41.2151 8.472V7.472H40.2151V8.472H41.2151ZM41.2151 16.008V17.008H42.2151V16.008H41.2151ZM40.2431 16.008H39.2431V17.008H40.2431V16.008ZM40.7111 10.776V9.776H39.7111V10.776H40.7111ZM44.9832 10.776H45.9832V9.776H44.9832V10.776ZM44.9832 11.796V12.796H45.9832V11.796H44.9832ZM40.7111 11.796H39.7111V12.796H40.7111V11.796ZM40.7111 14.304V13.304H39.7111V14.304H40.7111ZM44.9832 14.304H45.9832V13.304H44.9832V14.304ZM44.9832 15.324V16.324H45.9832V15.324H44.9832ZM40.7111 15.324H39.7111V16.324H40.7111V15.324ZM42.3191 4.872V3.872H41.3191V4.872H42.3191ZM43.3631 4.872H44.3631V3.872H43.3631V4.872ZM43.3631 7.92V8.92H44.3631V7.92H43.3631ZM43.3391 7.92V6.92H42.3391V7.92H43.3391ZM43.3391 14.904V15.904H44.3391V14.904H43.3391ZM42.3431 14.904H41.3431V15.904H42.3431V14.904ZM42.3431 7.92H43.3431V6.92H42.3431V7.92ZM42.3191 7.92H41.3191V8.92H42.3191V7.92ZM34.8791 6.108V5.108H33.8791V6.108H34.8791ZM39.8591 6.108H40.8591V5.108H39.8591V6.108ZM39.8591 7.104V8.104H40.8591V7.104H39.8591ZM34.8791 7.104H33.8791V8.104H34.8791V7.104ZM34.7471 12.996V11.996H33.7471V12.996H34.7471ZM40.0031 12.996H41.0031V11.996H40.0031V12.996ZM40.0031 13.992V14.992H41.0031V13.992H40.0031ZM34.7471 13.992H33.7471V14.992H34.7471V13.992ZM36.8711 4.872V3.872H35.8711V4.872H36.8711ZM37.8911 4.872H38.8911V3.872H37.8911V4.872ZM37.8911 8.256V9.256H38.8911V8.256H37.8911ZM36.8711 8.256H35.8711V9.256H36.8711V8.256ZM36.9791 8.28V7.28H35.9791V8.28H36.9791ZM37.7831 8.28H38.7831V7.28H37.7831V8.28ZM37.7831 11.712H36.7831V12.712H37.7831V11.712ZM37.8911 11.712H38.8911V10.712H37.8911V11.712ZM37.8911 16.02V17.02H38.8911V16.02H37.8911ZM36.8711 16.02H35.8711V17.02H36.8711V16.02ZM36.8711 11.712V10.712H35.8711V11.712H36.8711ZM36.9791 11.712V12.712H37.9791V11.712H36.9791ZM36.0191 10.392V9.392H35.0191V10.392H36.0191ZM36.0191 11.316H35.0191V12.316H36.0191V11.316ZM38.7911 11.316V12.316H39.7911V11.316H38.7911ZM38.7911 10.392H39.7911V9.392H38.7911V10.392ZM36.0191 8.7V7.7H35.0191V8.7H36.0191ZM36.0191 9.612H35.0191V10.612H36.0191V9.612ZM38.7911 9.612V10.612H39.7911V9.612H38.7911ZM38.7911 8.7H39.7911V7.7H38.7911V8.7ZM35.1671 7.884V6.884H34.1671V7.884H35.1671ZM39.6671 7.884H40.6671V6.884H39.6671V7.884ZM39.6671 12.132V13.132H40.6671V12.132H39.6671ZM35.1671 12.132H34.1671V13.132H35.1671V12.132ZM40.2431 7.452V8.452H45.5591V7.452V6.452H40.2431V7.452ZM45.5591 7.452H44.5591V15.936H45.5591H46.5591V7.452H45.5591ZM45.5591 15.936V14.936H44.5391V15.936V16.936H45.5591V15.936ZM44.5391 15.936H45.5391V8.472H44.5391H43.5391V15.936H44.5391ZM44.5391 8.472V7.472H41.2151V8.472V9.472H44.5391V8.472ZM41.2151 8.472H40.2151V16.008H41.2151H42.2151V8.472H41.2151ZM41.2151 16.008V15.008H40.2431V16.008V17.008H41.2151V16.008ZM40.2431 16.008H41.2431V7.452H40.2431H39.2431V16.008H40.2431ZM40.7111 10.776V11.776H44.9832V10.776V9.776H40.7111V10.776ZM44.9832 10.776H43.9832V11.796H44.9832H45.9832V10.776H44.9832ZM44.9832 11.796V10.796H40.7111V11.796V12.796H44.9832V11.796ZM40.7111 11.796H41.7111V10.776H40.7111H39.7111V11.796H40.7111ZM40.7111 14.304V15.304H44.9832V14.304V13.304H40.7111V14.304ZM44.9832 14.304H43.9832V15.324H44.9832H45.9832V14.304H44.9832ZM44.9832 15.324V14.324H40.7111V15.324V16.324H44.9832V15.324ZM40.7111 15.324H41.7111V14.304H40.7111H39.7111V15.324H40.7111ZM42.3191 4.872V5.872H43.3631V4.872V3.872H42.3191V4.872ZM43.3631 4.872H42.3631V7.92H43.3631H44.3631V4.872H43.3631ZM43.3631 7.92V6.92H43.3391V7.92V8.92H43.3631V7.92ZM43.3391 7.92H42.3391V14.904H43.3391H44.3391V7.92H43.3391ZM43.3391 14.904V13.904H42.3431V14.904V15.904H43.3391V14.904ZM42.3431 14.904H43.3431V7.92H42.3431H41.3431V14.904H42.3431ZM42.3431 7.92V6.92H42.3191V7.92V8.92H42.3431V7.92ZM42.3191 7.92H43.3191V4.872H42.3191H41.3191V7.92H42.3191ZM34.8791 6.108V7.108H39.8591V6.108V5.108H34.8791V6.108ZM39.8591 6.108H38.8591V7.104H39.8591H40.8591V6.108H39.8591ZM39.8591 7.104V6.104H34.8791V7.104V8.104H39.8591V7.104ZM34.8791 7.104H35.8791V6.108H34.8791H33.8791V7.104H34.8791ZM34.7471 12.996V13.996H40.0031V12.996V11.996H34.7471V12.996ZM40.0031 12.996H39.0031V13.992H40.0031H41.0031V12.996H40.0031ZM40.0031 13.992V12.992H34.7471V13.992V14.992H40.0031V13.992ZM34.7471 13.992H35.7471V12.996H34.7471H33.7471V13.992H34.7471ZM36.8711 4.872V5.872H37.8911V4.872V3.872H36.8711V4.872ZM37.8911 4.872H36.8911V8.256H37.8911H38.8911V4.872H37.8911ZM37.8911 8.256V7.256H36.8711V8.256V9.256H37.8911V8.256ZM36.8711 8.256H37.8711V4.872H36.8711H35.8711V8.256H36.8711ZM36.9791 8.28V9.28H37.7831V8.28V7.28H36.9791V8.28ZM37.7831 8.28H36.7831V11.712H37.7831H38.7831V8.28H37.7831ZM37.7831 11.712V12.712H37.8911V11.712V10.712H37.7831V11.712ZM37.8911 11.712H36.8911V16.02H37.8911H38.8911V11.712H37.8911ZM37.8911 16.02V15.02H36.8711V16.02V17.02H37.8911V16.02ZM36.8711 16.02H37.8711V11.712H36.8711H35.8711V16.02H36.8711ZM36.8711 11.712V12.712H36.9791V11.712V10.712H36.8711V11.712ZM36.9791 11.712H37.9791V8.28H36.9791H35.9791V11.712H36.9791ZM36.0191 10.392H35.0191V11.316H36.0191H37.0191V10.392H36.0191ZM36.0191 11.316V12.316H38.7911V11.316V10.316H36.0191V11.316ZM38.7911 11.316H39.7911V10.392H38.7911H37.7911V11.316H38.7911ZM38.7911 10.392V9.392H36.0191V10.392V11.392H38.7911V10.392ZM36.0191 8.7H35.0191V9.612H36.0191H37.0191V8.7H36.0191ZM36.0191 9.612V10.612H38.7911V9.612V8.612H36.0191V9.612ZM38.7911 9.612H39.7911V8.7H38.7911H37.7911V9.612H38.7911ZM38.7911 8.7V7.7H36.0191V8.7V9.7H38.7911V8.7ZM35.1671 7.884V8.884H39.6671V7.884V6.884H35.1671V7.884ZM39.6671 7.884H38.6671V12.132H39.6671H40.6671V7.884H39.6671ZM39.6671 12.132V11.132H35.1671V12.132V13.132H39.6671V12.132ZM35.1671 12.132H36.1671V7.884H35.1671H34.1671V12.132H35.1671Z" fill="#71717A" mask="url(#path-24-outside-4_268_5809)"/>
<path d="M222.207 29.8607L235.491 23.4448V29.8607L222.207 36.6712V29.8607Z" fill="#363030" fill-opacity="0.5"/>
</svg>
