<svg width="138" height="83" viewBox="0 0 138 83" fill="none" xmlns="http://www.w3.org/2000/svg">
<mask id="path-1-outside-1_220_4859" maskUnits="userSpaceOnUse" x="45.0283" y="19.207" width="48" height="46" fill="black">
<rect fill="white" x="45.0283" y="19.207" width="48" height="46"/>
<path d="M76.0742 22.6329C71.5893 20.8768 66.6323 20.7383 62.0566 22.2423C57.4811 23.7463 53.5732 26.7987 51.0049 30.8732C48.4365 34.9477 47.3689 39.7897 47.9854 44.5665C48.6019 49.3434 50.864 53.7562 54.3828 57.045C57.9016 60.3339 62.457 62.2932 67.2646 62.5861C72.0722 62.8788 76.8317 61.4869 80.7236 58.6495C84.6155 55.8121 87.3971 51.7068 88.5889 47.0402L84.8145 46.0763C83.8468 49.8652 81.5886 53.1983 78.4287 55.5021C75.2688 57.8058 71.4043 58.9361 67.501 58.6984C63.5977 58.4605 59.8989 56.8696 57.042 54.1993C54.1853 51.5291 52.3483 47.9467 51.8477 44.0685C51.3471 40.1901 52.2146 36.2585 54.2998 32.9503C56.3851 29.6421 59.5584 27.1636 63.2734 25.9425C66.9884 24.7215 71.013 24.834 74.6543 26.2599C78.1 27.6092 80.9985 30.0551 82.9082 33.2111L79.5957 34.712L87.3828 38.3263L90.0283 29.9865L86.4775 31.5949C84.1317 27.514 80.4629 24.3515 76.0742 22.6329Z"/>
</mask>
<path d="M76.0742 22.6329C71.5893 20.8768 66.6323 20.7383 62.0566 22.2423C57.4811 23.7463 53.5732 26.7987 51.0049 30.8732C48.4365 34.9477 47.3689 39.7897 47.9854 44.5665C48.6019 49.3434 50.864 53.7562 54.3828 57.045C57.9016 60.3339 62.457 62.2932 67.2646 62.5861C72.0722 62.8788 76.8317 61.4869 80.7236 58.6495C84.6155 55.8121 87.3971 51.7068 88.5889 47.0402L84.8145 46.0763C83.8468 49.8652 81.5886 53.1983 78.4287 55.5021C75.2688 57.8058 71.4043 58.9361 67.501 58.6984C63.5977 58.4605 59.8989 56.8696 57.042 54.1993C54.1853 51.5291 52.3483 47.9467 51.8477 44.0685C51.3471 40.1901 52.2146 36.2585 54.2998 32.9503C56.3851 29.6421 59.5584 27.1636 63.2734 25.9425C66.9884 24.7215 71.013 24.834 74.6543 26.2599C78.1 27.6092 80.9985 30.0551 82.9082 33.2111L79.5957 34.712L87.3828 38.3263L90.0283 29.9865L86.4775 31.5949C84.1317 27.514 80.4629 24.3515 76.0742 22.6329Z" fill="white"/>
<path d="M76.0742 22.6329L76.7328 20.9511L76.7328 20.9511L76.0742 22.6329ZM62.0566 22.2423L61.4926 20.5264L61.4926 20.5264L62.0566 22.2423ZM51.0049 30.8732L49.4769 29.91V29.91L51.0049 30.8732ZM47.9854 44.5665L46.194 44.7977L46.194 44.7977L47.9854 44.5665ZM54.3828 57.045L53.1495 58.3646L53.1495 58.3646L54.3828 57.045ZM67.2646 62.5861L67.1549 64.3889H67.1548L67.2646 62.5861ZM80.7236 58.6495L81.7877 60.109L81.7877 60.109L80.7236 58.6495ZM88.5889 47.0402L89.0358 45.2901L90.7858 45.737L90.3389 47.4871L88.5889 47.0402ZM84.8145 46.0763L83.0644 45.6294L83.5114 43.8794L85.2614 44.3263L84.8145 46.0763ZM78.4287 55.5021L79.4928 56.9616L79.4928 56.9616L78.4287 55.5021ZM67.501 58.6984L67.3912 60.5012L67.3911 60.5012L67.501 58.6984ZM57.042 54.1993L55.8087 55.5189L55.8086 55.5189L57.042 54.1993ZM51.8477 44.0685L50.0563 44.2997V44.2997L51.8477 44.0685ZM54.2998 32.9503L52.7718 31.9872L52.7718 31.9872L54.2998 32.9503ZM63.2734 25.9425L62.7094 24.2266L62.7095 24.2266L63.2734 25.9425ZM74.6543 26.2599L75.3129 24.578L75.3129 24.578L74.6543 26.2599ZM82.9082 33.2111L84.4535 32.276L85.5068 34.0166L83.6537 34.8562L82.9082 33.2111ZM79.5957 34.712L78.8353 36.3504L75.263 34.6923L78.8502 33.0669L79.5957 34.712ZM87.3828 38.3263L89.1045 38.8724L88.4839 40.8286L86.6224 39.9646L87.3828 38.3263ZM90.0283 29.9865L89.2831 28.3412L92.9757 26.6685L91.75 30.5326L90.0283 29.9865ZM86.4775 31.5949L87.2228 33.2401L85.7289 33.9168L84.9116 32.495L86.4775 31.5949ZM76.0742 22.6329L75.4156 24.3148C71.3218 22.7118 66.7971 22.5854 62.6206 23.9582L62.0566 22.2423L61.4926 20.5264C66.4675 18.8912 71.8569 19.0418 76.7328 20.9511L76.0742 22.6329ZM62.0566 22.2423L62.6207 23.9582C58.4443 25.331 54.8773 28.1171 52.5329 31.8363L51.0049 30.8732L49.4769 29.91C52.2692 25.4803 56.5178 22.1617 61.4926 20.5264L62.0566 22.2423ZM51.0049 30.8732L52.5329 31.8363C50.1885 35.5554 49.214 39.9752 49.7767 44.3353L47.9854 44.5665L46.194 44.7977C45.5238 39.6043 46.6846 34.3399 49.4769 29.91L51.0049 30.8732ZM47.9854 44.5665L49.7767 44.3353C50.3395 48.6956 52.4043 52.7235 55.6162 55.7255L54.3828 57.045L53.1495 58.3646C49.3237 54.7888 46.8643 49.9912 46.194 44.7977L47.9854 44.5665ZM54.3828 57.045L55.6161 55.7255C58.828 58.7275 62.9861 60.5159 67.3745 60.7832L67.2646 62.5861L67.1548 64.3889C61.928 64.0705 56.9753 61.9404 53.1495 58.3646L54.3828 57.045ZM67.2646 62.5861L67.3744 60.7832C71.7627 61.0505 76.1072 59.7799 79.6596 57.19L80.7236 58.6495L81.7877 60.109C77.5562 63.194 72.3816 64.7072 67.1549 64.3889L67.2646 62.5861ZM80.7236 58.6495L79.6596 57.1901C83.212 54.6 85.751 50.8527 86.8388 46.5932L88.5889 47.0402L90.3389 47.4871C89.0431 52.5608 86.0189 57.0242 81.7877 60.109L80.7236 58.6495ZM88.5889 47.0402L88.142 48.7902L84.3675 47.8263L84.8145 46.0763L85.2614 44.3263L89.0358 45.2901L88.5889 47.0402ZM84.8145 46.0763L86.5645 46.5232C85.4929 50.7192 82.9921 54.4104 79.4928 56.9616L78.4287 55.5021L77.3646 54.0426C80.1851 51.9863 82.2007 49.0112 83.0644 45.6294L84.8145 46.0763ZM78.4287 55.5021L79.4928 56.9616C75.9933 59.5128 71.7138 60.7645 67.3912 60.5012L67.501 58.6984L67.6108 56.8955C71.0948 57.1077 74.5442 56.0988 77.3647 54.0426L78.4287 55.5021ZM67.501 58.6984L67.3911 60.5012C63.0686 60.2379 58.9725 58.476 55.8087 55.5189L57.042 54.1993L58.2753 52.8798C60.8253 55.2631 64.1268 56.6832 67.6108 56.8955L67.501 58.6984ZM57.042 54.1993L55.8086 55.5189C52.6451 52.5619 50.6107 48.5946 50.0563 44.2997L51.8477 44.0685L53.639 43.8373C54.0858 47.2987 55.7255 50.4964 58.2754 52.8798L57.042 54.1993ZM51.8477 44.0685L50.0563 44.2997C49.5019 40.0045 50.4627 35.6506 52.7718 31.9872L54.2998 32.9503L55.8278 33.9135C53.9665 36.8664 53.1922 40.3757 53.639 43.8373L51.8477 44.0685ZM54.2998 32.9503L52.7718 31.9872C55.0811 28.3237 58.5952 25.5789 62.7094 24.2266L63.2734 25.9425L63.8374 27.6584C60.5216 28.7483 57.6892 30.9605 55.8278 33.9135L54.2998 32.9503ZM63.2734 25.9425L62.7095 24.2266C66.8237 22.8744 71.2806 22.9991 75.3129 24.578L74.6543 26.2599L73.9957 27.9417C70.7454 26.669 67.1532 26.5686 63.8374 27.6584L63.2734 25.9425ZM74.6543 26.2599L75.3129 24.578C79.1288 26.0723 82.3386 28.781 84.4535 32.276L82.9082 33.2111L81.3629 34.1462C79.6583 31.3292 77.0712 29.1461 73.9957 27.9417L74.6543 26.2599ZM82.9082 33.2111L83.6537 34.8562L80.3412 36.3572L79.5957 34.712L78.8502 33.0669L82.1627 31.5659L82.9082 33.2111ZM79.5957 34.712L80.3561 33.0737L88.1432 36.688L87.3828 38.3263L86.6224 39.9646L78.8353 36.3504L79.5957 34.712ZM87.3828 38.3263L85.6612 37.7802L88.3067 29.4403L90.0283 29.9865L91.75 30.5326L89.1045 38.8724L87.3828 38.3263ZM90.0283 29.9865L90.7736 31.6317L87.2228 33.2401L86.4775 31.5949L85.7323 29.9496L89.2831 28.3412L90.0283 29.9865ZM86.4775 31.5949L84.9116 32.495C82.7705 28.7703 79.4217 25.8835 75.4156 24.3148L76.0742 22.6329L76.7328 20.9511C81.5041 22.8195 85.4929 26.2578 88.0434 30.6947L86.4775 31.5949Z" fill="white" mask="url(#path-1-outside-1_220_4859)"/>
<path d="M62.2217 46.3438V44.9534L65.4703 41.9454C65.7466 41.678 65.9783 41.4374 66.1655 41.2235C66.3556 41.0096 66.4997 40.8002 66.5977 40.5952C66.6958 40.3872 66.7448 40.1629 66.7448 39.9223C66.7448 39.6549 66.6839 39.4247 66.5621 39.2316C66.4403 39.0355 66.2739 38.8855 66.063 38.7815C65.852 38.6745 65.6129 38.6211 65.3455 38.6211C65.0663 38.6211 64.8226 38.6775 64.6147 38.7904C64.4067 38.9033 64.2463 39.0652 64.1334 39.2761C64.0205 39.4871 63.9641 39.7381 63.9641 40.0292H62.1325C62.1325 39.4321 62.2677 38.9137 62.5381 38.474C62.8084 38.0343 63.1872 37.6941 63.6744 37.4535C64.1616 37.2129 64.7231 37.0926 65.3589 37.0926C66.0125 37.0926 66.5814 37.2084 67.0656 37.4401C67.5528 37.6689 67.9316 37.9868 68.202 38.3938C68.4723 38.8008 68.6075 39.2672 68.6075 39.793C68.6075 40.1377 68.5392 40.4778 68.4025 40.8135C68.2688 41.1492 68.0297 41.5221 67.685 41.9321C67.3404 42.3391 66.8547 42.8278 66.2279 43.3982L64.8954 44.7038V44.7662H68.7278V46.3438H62.2217ZM71.7302 39.4989L72.9869 41.8919L74.2747 39.4989H76.2221L74.2391 42.9213L76.2756 46.3438H74.3371L72.9869 43.9775L71.6589 46.3438H69.6982L71.7302 42.9213L69.7695 39.4989H71.7302Z" fill="white"/>
<path d="M61.4819 48.8393H76.5875V49.6949H61.4819V48.8393Z" fill="white"/>
</svg>
