<svg width="138" height="83" viewBox="0 0 138 83" fill="none" xmlns="http://www.w3.org/2000/svg">
<mask id="path-1-inside-1_218_4831" fill="white">
<path d="M46.2603 55.3691H89.9927V44.2266H98.4575V75.2627H89.9927V62.707H46.2603V75.2627H37.7964V44.2266H46.2603V55.3691Z"/>
</mask>
<path d="M46.2603 55.3691H89.9927V44.2266H98.4575V75.2627H89.9927V62.707H46.2603V75.2627H37.7964V44.2266H46.2603V55.3691Z" fill="white"/>
<path d="M46.2603 55.3691H44.8495V56.7799H46.2603V55.3691ZM89.9927 55.3691V56.7799H91.4034V55.3691H89.9927ZM89.9927 44.2266V42.8158H88.582V44.2266H89.9927ZM98.4575 44.2266H99.8682V42.8158H98.4575V44.2266ZM98.4575 75.2627V76.6734H99.8682V75.2627H98.4575ZM89.9927 75.2627H88.582V76.6734H89.9927V75.2627ZM89.9927 62.707H91.4034V61.2963H89.9927V62.707ZM46.2603 62.707V61.2963H44.8495V62.707H46.2603ZM46.2603 75.2627V76.6734H47.671V75.2627H46.2603ZM37.7964 75.2627H36.3857V76.6734H37.7964V75.2627ZM37.7964 44.2266V42.8158H36.3857V44.2266H37.7964ZM46.2603 44.2266H47.671V42.8158H46.2603V44.2266ZM46.2603 55.3691V56.7799H89.9927V55.3691V53.9584H46.2603V55.3691ZM89.9927 55.3691H91.4034V44.2266H89.9927H88.582V55.3691H89.9927ZM89.9927 44.2266V45.6373H98.4575V44.2266V42.8158H89.9927V44.2266ZM98.4575 44.2266H97.0468V75.2627H98.4575H99.8682V44.2266H98.4575ZM98.4575 75.2627V73.852H89.9927V75.2627V76.6734H98.4575V75.2627ZM89.9927 75.2627H91.4034V62.707H89.9927H88.582V75.2627H89.9927ZM89.9927 62.707V61.2963H46.2603V62.707V64.1178H89.9927V62.707ZM46.2603 62.707H44.8495V75.2627H46.2603H47.671V62.707H46.2603ZM46.2603 75.2627V73.852H37.7964V75.2627V76.6734H46.2603V75.2627ZM37.7964 75.2627H39.2071V44.2266H37.7964H36.3857V75.2627H37.7964ZM37.7964 44.2266V45.6373H46.2603V44.2266V42.8158H37.7964V44.2266ZM46.2603 44.2266H44.8495V55.3691H46.2603H47.671V44.2266H46.2603Z" fill="white" mask="url(#path-1-inside-1_218_4831)"/>
<path d="M105.557 38.5111V29.8818H124.145V72.128H112.858V38.5111H105.557Z" fill="white" stroke="white" stroke-width="1.41072"/>
<path d="M99.9136 33.2622H105.556V43.1373H99.9136V33.2622Z" fill="white" stroke="white" stroke-width="1.41072"/>
<path d="M31.0371 38.8628V29.8818H12.4488V72.128H23.7354V38.8628H31.0371Z" fill="white" stroke="white" stroke-width="1.41072"/>
<path d="M36.6802 33.2622H31.0373V43.1373H36.6802V33.2622Z" fill="white" stroke="white" stroke-width="1.41072"/>
<path d="M102.856 25.6582L96.5195 18.083L99.9317 18.083L99.9317 8.75972L105.781 8.75972L105.781 18.083L109.193 18.083L102.856 25.6582Z" fill="#D24FE8" stroke="#D24FE8" stroke-width="1.41102"/>
<path d="M34.4175 25.6582L28.0805 18.083L31.4927 18.083L31.4927 8.75972L37.3422 8.75972L37.3422 18.083L40.7544 18.083L34.4175 25.6582Z" fill="#D24FE8" stroke="#D24FE8" stroke-width="1.41102"/>
</svg>
