<svg width="138" height="83" viewBox="0 0 138 83" fill="none" xmlns="http://www.w3.org/2000/svg">
<path d="M41.5 54.3848H34.5V38.6895H41.5V54.3848Z" fill="white"/>
<path d="M134.5 75.6895H3.5V48.6895H134.5V75.6895Z" fill="white"/>
<path d="M134.5 75.6895V76.6895H135.5V75.6895H134.5ZM3.5 75.6895H2.5V76.6895H3.5V75.6895ZM3.5 48.6895V47.6895H2.5V48.6895H3.5ZM134.5 48.6895H135.5V47.6895H134.5V48.6895ZM134.5 75.6895V74.6895H3.5V75.6895V76.6895H134.5V75.6895ZM3.5 75.6895H4.5V48.6895H3.5H2.5V75.6895H3.5ZM3.5 48.6895V49.6895H134.5V48.6895V47.6895H3.5V48.6895ZM134.5 48.6895H133.5V75.6895H134.5H135.5V48.6895H134.5Z" fill="white"/>
<path d="M64.5 75.6973H22.5V48.6895H64.5V75.6973Z" fill="#9C9C9C"/>
<path d="M82.0356 24.4683H121.85V13.8179H131.943V45.4927H121.85V33.4849H82.0356V45.4927H71.9429V13.8179H82.0356V24.4683Z" fill="white"/>
<path d="M19.083 25.3467H24.4062L14.5 37.1885L4.59375 25.3467H9.91699V7.30176H19.083V25.3467Z" fill="#D24FE8"/>
</svg>
