<svg width="133" height="70" viewBox="0 0 133 70" fill="none" xmlns="http://www.w3.org/2000/svg">
<path d="M39 45.377H32V20.8477H39V45.377Z" fill="white"/>
<path d="M132 68.3887H1V41.3887H132V68.3887Z" fill="white"/>
<path d="M132 68.3887V69.3887H133V68.3887H132ZM1 68.3887H0V69.3887H1V68.3887ZM1 41.3887V40.3887H0V41.3887H1ZM132 41.3887H133V40.3887H132V41.3887ZM132 68.3887V67.3887H1V68.3887V69.3887H132V68.3887ZM1 68.3887H2V41.3887H1H0V68.3887H1ZM1 41.3887V42.3887H132V41.3887V40.3887H1V41.3887ZM132 41.3887H131V68.3887H132H133V41.3887H132Z" fill="white"/>
<path d="M62 68.3965H20V41.3887H62V68.3965Z" fill="#9C9C9C"/>
<path d="M79.5356 17.1675H119.35V6.51709H129.443V38.1919H119.35V26.1841H79.5356V38.1919H69.4429V6.51709H79.5356V17.1675Z" fill="white"/>
<path d="M21.9062 11.8418H16.583V29.8867H7.41699V11.8418H2.09375L12 0L21.9062 11.8418Z" fill="#D24FE8"/>
</svg>
