<svg width="138" height="83" viewBox="0 0 138 83" fill="none" xmlns="http://www.w3.org/2000/svg">
<path d="M12.2139 40.6104L12.2139 23.499L25.9502 23.3672L25.9502 40.4785L33.9902 40.4023L19.3203 58.2852L4.30957 40.6875L12.2139 40.6104Z" fill="#D24FE8"/>
<path d="M12.2139 40.6104L12.2285 42.1103L13.7139 42.0958L13.7139 40.6104L12.2139 40.6104ZM12.2139 23.499L12.1995 21.9991L10.7139 22.0134L10.7139 23.499L12.2139 23.499ZM25.9502 23.3672L27.4502 23.3672L27.4502 21.8527L25.9358 21.8673L25.9502 23.3672ZM25.9502 40.4785L24.4502 40.4785L24.4502 41.9928L25.9644 41.9784L25.9502 40.4785ZM33.9902 40.4023L35.1499 41.3537L37.1858 38.872L33.976 38.9024L33.9902 40.4023ZM19.3203 58.2852L18.1791 59.2586L19.3428 60.6228L20.48 59.2365L19.3203 58.2852ZM4.30957 40.6875L4.29493 39.1876L1.08528 39.2189L3.16835 41.661L4.30957 40.6875ZM12.2139 40.6104L13.7139 40.6104L13.7139 23.499L12.2139 23.499L10.7139 23.499L10.7139 40.6104L12.2139 40.6104ZM12.2139 23.499L12.2283 24.999L25.9646 24.8671L25.9502 23.3672L25.9358 21.8673L12.1995 21.9991L12.2139 23.499ZM25.9502 23.3672L24.4502 23.3672L24.4502 40.4785L25.9502 40.4785L27.4502 40.4785L27.4502 23.3672L25.9502 23.3672ZM25.9502 40.4785L25.9644 41.9784L34.0044 41.9023L33.9902 40.4023L33.976 38.9024L25.936 38.9786L25.9502 40.4785ZM33.9902 40.4023L32.8305 39.451L18.1606 57.3338L19.3203 58.2852L20.48 59.2365L35.1499 41.3537L33.9902 40.4023ZM19.3203 58.2852L20.4615 57.3117L5.45079 39.714L4.30957 40.6875L3.16835 41.661L18.1791 59.2586L19.3203 58.2852ZM4.30957 40.6875L4.32421 42.1874L12.2285 42.1103L12.2139 40.6104L12.1992 39.1104L4.29493 39.1876L4.30957 40.6875Z" fill="#D24FE8"/>
<path d="M55.2077 32.2559H47.7588V46.2682H55.2077V32.2559Z" fill="white"/>
<path d="M134.63 40.0029V71.5703H55.8892V40.0029H134.63Z" fill="white" stroke="white" stroke-width="3.35714"/>
<path d="M88.7485 15.8906H106.358V9.75H117.941V33.5215H106.358V27.4424H88.7485V33.5215H77.1655V9.75H88.7485V15.8906Z" fill="white"/>
</svg>
