<svg width="137" height="64" viewBox="0 0 137 64" fill="none" xmlns="http://www.w3.org/2000/svg">
<path d="M26.5396 31.2783L26.5395 47.3398L11.9058 47.4629L11.9058 31.4014L3.33935 31.4736L18.9683 14.6885L34.9614 31.2061L26.5396 31.2783Z" fill="#D24FE8"/>
<path d="M26.5396 31.2783L26.5267 29.7784L25.0396 29.7911L25.0396 31.2783L26.5396 31.2783ZM26.5395 47.3398L26.5522 48.8398L28.0395 48.8273L28.0395 47.3398L26.5395 47.3398ZM11.9058 47.4629L10.4058 47.4629L10.4058 48.9756L11.9184 48.9628L11.9058 47.4629ZM11.9058 31.4014L13.4058 31.4014L13.4058 29.8887L11.8931 29.9014L11.9058 31.4014ZM3.33935 31.4736L2.24156 30.4515L-0.134209 33.003L3.35201 32.9736L3.33935 31.4736ZM18.9683 14.6885L20.0459 13.6451L18.947 12.5101L17.8705 13.6663L18.9683 14.6885ZM34.9614 31.2061L34.9743 32.706L38.4726 32.676L36.0391 30.1626L34.9614 31.2061ZM26.5396 31.2783L25.0396 31.2783L25.0395 47.3398L26.5395 47.3398L28.0395 47.3398L28.0396 31.2783L26.5396 31.2783ZM26.5395 47.3398L26.5269 45.8399L11.8931 45.9629L11.9058 47.4629L11.9184 48.9628L26.5522 48.8398L26.5395 47.3398ZM11.9058 47.4629L13.4058 47.4629L13.4058 31.4014L11.9058 31.4014L10.4058 31.4014L10.4058 47.4629L11.9058 47.4629ZM11.9058 31.4014L11.8931 29.9014L3.3267 29.9737L3.33935 31.4736L3.35201 32.9736L11.9184 32.9013L11.9058 31.4014ZM3.33935 31.4736L4.43715 32.4958L20.0661 15.7107L18.9683 14.6885L17.8705 13.6663L2.24156 30.4515L3.33935 31.4736ZM18.9683 14.6885L17.8906 15.7319L33.8838 32.2495L34.9614 31.2061L36.0391 30.1626L20.0459 13.6451L18.9683 14.6885ZM34.9614 31.2061L34.9486 29.7061L26.5267 29.7784L26.5396 31.2783L26.5524 32.7783L34.9743 32.706L34.9614 31.2061Z" fill="#D24FE8"/>
<path d="M55.2077 22.5059H47.7588V36.5181H55.2077V22.5059Z" fill="white"/>
<path d="M134.63 30.2529V61.8203H55.8892V30.2529H134.63Z" fill="white" stroke="white" stroke-width="3.35714"/>
<path d="M88.749 6.14062H106.358V0H117.941V23.7715H106.358V17.6924H88.749V23.7715H77.166V0H88.749V6.14062Z" fill="white"/>
</svg>
