<svg width="134" height="83" viewBox="0 0 134 83" fill="none" xmlns="http://www.w3.org/2000/svg">
<path d="M16.081 28.9141H27.793V76.2276H8.76099V68.9181L16.081 65.0446V28.9141Z" fill="white" stroke="white" stroke-width="1.47073"/>
<path d="M117.097 28.9141H105.385V76.2276H124.417V68.9181L117.097 65.0446V28.9141Z" fill="white" stroke="white" stroke-width="1.47073"/>
<rect x="27.7939" y="33.6299" width="2.928" height="29.847" fill="white" stroke="white" stroke-width="1.47073"/>
<rect width="2.928" height="29.847" transform="matrix(-1 0 0 1 105.384 33.6299)" fill="white" stroke="white" stroke-width="1.47073"/>
<mask id="path-5-inside-1_218_4787" fill="white">
<path d="M43.8311 49.4077H89.2148V36.8677H97.999V71.4272H89.2148V57.3169H43.8311V71.4272H35.0469V36.8677H43.8311V49.4077Z"/>
</mask>
<path d="M43.8311 49.4077H89.2148V36.8677H97.999V71.4272H89.2148V57.3169H43.8311V71.4272H35.0469V36.8677H43.8311V49.4077Z" fill="white"/>
<path d="M43.8311 49.4077H42.3603V50.8784H43.8311V49.4077ZM89.2148 49.4077V50.8784H90.6856V49.4077H89.2148ZM89.2148 36.8677V35.3969H87.7441V36.8677H89.2148ZM97.999 36.8677H99.4697V35.3969H97.999V36.8677ZM97.999 71.4272V72.898H99.4697V71.4272H97.999ZM89.2148 71.4272H87.7441V72.898H89.2148V71.4272ZM89.2148 57.3169H90.6856V55.8462H89.2148V57.3169ZM43.8311 57.3169V55.8462H42.3603V57.3169H43.8311ZM43.8311 71.4272V72.898H45.3018V71.4272H43.8311ZM35.0469 71.4272H33.5761V72.898H35.0469V71.4272ZM35.0469 36.8677V35.3969H33.5761V36.8677H35.0469ZM43.8311 36.8677H45.3018V35.3969H43.8311V36.8677ZM43.8311 49.4077V50.8784H89.2148V49.4077V47.937H43.8311V49.4077ZM89.2148 49.4077H90.6856V36.8677H89.2148H87.7441V49.4077H89.2148ZM89.2148 36.8677V38.3384H97.999V36.8677V35.3969H89.2148V36.8677ZM97.999 36.8677H96.5283V71.4272H97.999H99.4697V36.8677H97.999ZM97.999 71.4272V69.9565H89.2148V71.4272V72.898H97.999V71.4272ZM89.2148 71.4272H90.6856V57.3169H89.2148H87.7441V71.4272H89.2148ZM89.2148 57.3169V55.8462H43.8311V57.3169V58.7876H89.2148V57.3169ZM43.8311 57.3169H42.3603V71.4272H43.8311H45.3018V57.3169H43.8311ZM43.8311 71.4272V69.9565H35.0469V71.4272V72.898H43.8311V71.4272ZM35.0469 71.4272H36.5176V36.8677H35.0469H33.5761V71.4272H35.0469ZM35.0469 36.8677V38.3384H43.8311V36.8677V35.3969H35.0469V36.8677ZM43.8311 36.8677H42.3603V49.4077H43.8311H45.3018V36.8677H43.8311Z" fill="white" mask="url(#path-5-inside-1_218_4787)"/>
<path d="M22.7808 15.7714L30.6361 9.20012L30.6361 12.7385L40.3043 12.7385L40.3043 18.8044L30.6361 18.8044L30.6361 22.3428L22.7808 15.7714Z" fill="#D24FE8" stroke="#D24FE8" stroke-width="1.46322"/>
<path d="M111.274 15.7715L103.419 22.3429L103.419 18.8044L93.7509 18.8044L93.7509 12.7386L103.419 12.7386L103.419 9.20019L111.274 15.7715Z" fill="#D24FE8" stroke="#D24FE8" stroke-width="1.46322"/>
</svg>
