<svg width="138" height="83" viewBox="0 0 138 83" fill="none" xmlns="http://www.w3.org/2000/svg">
<g clip-path="url(#clip0_259_314)">
<path d="M19.3657 33.8906H36.4771L36.6089 47.627H19.4976L19.5737 55.667L1.69092 40.9971L19.2886 25.9863L19.3657 33.8906Z" fill="#D24FE8"/>
<path d="M19.3657 33.8906L17.8658 33.9053L17.8803 35.3906H19.3657V33.8906ZM36.4771 33.8906L37.977 33.8762L37.9627 32.3906H36.4771V33.8906ZM36.6089 47.627V49.127H38.1234L38.1088 47.6126L36.6089 47.627ZM19.4976 47.627V46.127H17.9833L17.9976 47.6412L19.4976 47.627ZM19.5737 55.667L18.6224 56.8267L21.1041 58.8625L21.0737 55.6528L19.5737 55.667ZM1.69092 40.9971L0.717461 39.8559L-0.64676 41.0195L0.739565 42.1568L1.69092 40.9971ZM19.2886 25.9863L20.7885 25.9717L20.7572 22.762L18.3151 24.8451L19.2886 25.9863ZM19.3657 33.8906V35.3906H36.4771V33.8906V32.3906H19.3657V33.8906ZM36.4771 33.8906L34.9771 33.905L35.109 47.6413L36.6089 47.627L38.1088 47.6126L37.977 33.8762L36.4771 33.8906ZM36.6089 47.627V46.127H19.4976V47.627V49.127H36.6089V47.627ZM19.4976 47.627L17.9976 47.6412L18.0738 55.6812L19.5737 55.667L21.0737 55.6528L20.9975 47.6127L19.4976 47.627ZM19.5737 55.667L20.5251 54.5073L2.64227 39.8374L1.69092 40.9971L0.739565 42.1568L18.6224 56.8267L19.5737 55.667ZM1.69092 40.9971L2.66437 42.1383L20.262 27.1275L19.2886 25.9863L18.3151 24.8451L0.717461 39.8559L1.69092 40.9971ZM19.2886 25.9863L17.7886 26.001L17.8658 33.9053L19.3657 33.8906L20.8657 33.876L20.7885 25.9717L19.2886 25.9863Z" fill="#D24FE8"/>
<path d="M55.2077 32.2559H47.7588V46.2682H55.2077V32.2559Z" fill="white"/>
<path d="M134.63 40.0029V71.5703H55.8892V40.0029H134.63Z" fill="white" stroke="white" stroke-width="3.35714"/>
<path d="M88.7485 15.8906H106.358V9.75H117.941V33.5215H106.358V27.4424H88.7485V33.5215H77.1655V9.75H88.7485V15.8906Z" fill="white"/>
</g>
<defs>
<clipPath id="clip0_259_314">
<rect width="138" height="83" fill="white"/>
</clipPath>
</defs>
</svg>
