<svg width="138" height="83" viewBox="0 0 138 83" fill="none" xmlns="http://www.w3.org/2000/svg">
<g clip-path="url(#clip0_259_4984)">
<path d="M36.5444 41.4956L18.8032 56.3364V48.3638H1.69092V34.6274H18.8032V26.6538L36.5444 41.4956Z" fill="#D24FE8"/>
<path d="M36.5444 41.4956L37.5069 42.6461L38.8822 41.4956L37.5069 40.3451L36.5444 41.4956ZM18.8032 56.3364H17.3032V59.5468L19.7657 57.487L18.8032 56.3364ZM18.8032 48.3638H20.3032V46.8638H18.8032V48.3638ZM1.69092 48.3638H0.190918V49.8638H1.69092V48.3638ZM1.69092 34.6274V33.1274H0.190918V34.6274H1.69092ZM18.8032 34.6274V36.1274H20.3032V34.6274H18.8032ZM18.8032 26.6538L19.7657 25.5033L17.3032 23.4433V26.6538H18.8032ZM36.5444 41.4956L35.582 40.3451L17.8408 55.1859L18.8032 56.3364L19.7657 57.487L37.5069 42.6461L36.5444 41.4956ZM18.8032 56.3364H20.3032V48.3638H18.8032H17.3032V56.3364H18.8032ZM18.8032 48.3638V46.8638H1.69092V48.3638V49.8638H18.8032V48.3638ZM1.69092 48.3638H3.19092V34.6274H1.69092H0.190918V48.3638H1.69092ZM1.69092 34.6274V36.1274H18.8032V34.6274V33.1274H1.69092V34.6274ZM18.8032 34.6274H20.3032V26.6538H18.8032H17.3032V34.6274H18.8032ZM18.8032 26.6538L17.8407 27.8043L35.582 42.6461L36.5444 41.4956L37.5069 40.3451L19.7657 25.5033L18.8032 26.6538Z" fill="#D24FE8"/>
<path d="M54.2103 32.2573H47.7588V46.269H54.2103V32.2573Z" fill="white"/>
<path d="M134.63 40.0044V71.5718H55.8892V40.0044H134.63Z" fill="white" stroke="white" stroke-width="3.35714"/>
<path d="M88.7485 15.8921H106.358V9.75146H117.941V33.5229H106.358V27.4438H88.7485V33.5229H77.1655V9.75146H88.7485V15.8921Z" fill="white"/>
</g>
<defs>
<clipPath id="clip0_259_4984">
<rect width="138" height="83" fill="white"/>
</clipPath>
</defs>
</svg>
