<svg width="138" height="83" viewBox="0 0 138 83" fill="none" xmlns="http://www.w3.org/2000/svg">
<mask id="path-1-outside-1_259_4686" maskUnits="userSpaceOnUse" x="5.26074" y="24.248" width="48" height="28" fill="black">
<rect fill="white" x="5.26074" y="24.248" width="48" height="28"/>
<path d="M26.5312 49.7725H10.2607L26.5312 30.248V49.7725ZM50.5312 49.7725H34.2607L50.5312 30.248V49.7725Z"/>
</mask>
<path d="M26.5312 49.7725H10.2607L26.5312 30.248V49.7725ZM50.5312 49.7725H34.2607L50.5312 30.248V49.7725Z" fill="white"/>
<path d="M26.5312 49.7725V51.7725H28.5312V49.7725H26.5312ZM10.2607 49.7725L8.72431 48.4921L5.99063 51.7725H10.2607V49.7725ZM26.5312 30.248H28.5312V24.724L24.9948 28.9677L26.5312 30.248ZM50.5312 49.7725V51.7725H52.5312V49.7725H50.5312ZM34.2607 49.7725L32.7243 48.4921L29.9906 51.7725H34.2607V49.7725ZM50.5312 30.248H52.5312V24.724L48.9948 28.9677L50.5312 30.248ZM26.5312 49.7725V47.7725H10.2607V49.7725V51.7725H26.5312V49.7725ZM10.2607 49.7725L11.7972 51.0528L28.0677 31.5284L26.5312 30.248L24.9948 28.9677L8.72431 48.4921L10.2607 49.7725ZM26.5312 30.248H24.5312V49.7725H26.5312H28.5312V30.248H26.5312ZM50.5312 49.7725V47.7725H34.2607V49.7725V51.7725H50.5312V49.7725ZM34.2607 49.7725L35.7972 51.0528L52.0677 31.5284L50.5312 30.248L48.9948 28.9677L32.7243 48.4921L34.2607 49.7725ZM50.5312 30.248H48.5312V49.7725H50.5312H52.5312V30.248H50.5312Z" fill="white" mask="url(#path-1-outside-1_259_4686)"/>
<path d="M81.0352 21.96H120.85V10.1377H130.942V45.2949H120.85V31.9678H81.0352V45.2949H70.9424V10.1377H81.0352V21.96Z" fill="white"/>
<path d="M135.5 75.5H2.5V48.5H135.5V75.5ZM41.251 56.2979C38.1025 56.2979 35.5501 58.8506 35.5498 61.999C35.5498 65.1477 38.1023 67.7002 41.251 67.7002C44.3994 67.6999 46.9521 65.1475 46.9521 61.999C46.9519 58.8507 44.3993 56.2981 41.251 56.2979ZM70.6533 56.2979C67.5048 56.2979 64.9524 58.8506 64.9521 61.999C64.9521 65.1477 67.5047 67.7002 70.6533 67.7002C73.8018 67.6999 76.3545 65.1475 76.3545 61.999C76.3542 58.8507 73.8016 56.2981 70.6533 56.2979ZM100.056 56.2979C96.9071 56.2979 94.3547 58.8506 94.3545 61.999C94.3545 65.1477 96.907 67.7002 100.056 67.7002C103.204 67.6999 105.757 65.1475 105.757 61.999C105.757 58.8507 103.204 56.2981 100.056 56.2979Z" fill="white"/>
</svg>
