<svg width="138" height="83" viewBox="0 0 138 83" fill="none" xmlns="http://www.w3.org/2000/svg">
<mask id="path-1-outside-1_220_4848" maskUnits="userSpaceOnUse" x="44.813" y="19.207" width="48" height="46" fill="black">
<rect fill="white" x="44.813" y="19.207" width="48" height="46"/>
<path d="M61.7671 22.633C66.252 20.8767 71.209 20.7384 75.7847 22.2423C80.3603 23.7463 84.269 26.7986 86.8374 30.8732C89.4056 34.9476 90.4734 39.7899 89.8569 44.5666C89.2404 49.3435 86.9773 53.7562 83.4585 57.0451C79.9398 60.3338 75.3851 62.2931 70.5776 62.5861C65.7701 62.8789 61.0106 61.487 57.1187 58.6496C53.2266 55.8121 50.4453 51.7069 49.2534 47.0402L53.0269 46.0763C53.9945 49.8652 56.2528 53.1984 59.4126 55.5021C62.5726 57.8059 66.437 58.9362 70.3403 58.6984C74.2437 58.4606 77.9424 56.8697 80.7993 54.1994C83.6561 51.5292 85.493 47.9467 85.9937 44.0685C86.4942 40.1901 85.6268 36.2585 83.5415 32.9504C81.4562 29.6422 78.2829 27.1636 74.5679 25.9425C70.8529 24.7216 66.8282 24.8341 63.187 26.2599C59.7414 27.6093 56.8428 30.0551 54.9331 33.2111L58.2456 34.7121L50.4595 38.3263L47.813 29.9865L51.3638 31.5949C53.7096 27.514 57.3784 24.3515 61.7671 22.633Z"/>
</mask>
<path d="M61.7671 22.633C66.252 20.8767 71.209 20.7384 75.7847 22.2423C80.3603 23.7463 84.269 26.7986 86.8374 30.8732C89.4056 34.9476 90.4734 39.7899 89.8569 44.5666C89.2404 49.3435 86.9773 53.7562 83.4585 57.0451C79.9398 60.3338 75.3851 62.2931 70.5776 62.5861C65.7701 62.8789 61.0106 61.487 57.1187 58.6496C53.2266 55.8121 50.4453 51.7069 49.2534 47.0402L53.0269 46.0763C53.9945 49.8652 56.2528 53.1984 59.4126 55.5021C62.5726 57.8059 66.437 58.9362 70.3403 58.6984C74.2437 58.4606 77.9424 56.8697 80.7993 54.1994C83.6561 51.5292 85.493 47.9467 85.9937 44.0685C86.4942 40.1901 85.6268 36.2585 83.5415 32.9504C81.4562 29.6422 78.2829 27.1636 74.5679 25.9425C70.8529 24.7216 66.8282 24.8341 63.187 26.2599C59.7414 27.6093 56.8428 30.0551 54.9331 33.2111L58.2456 34.7121L50.4595 38.3263L47.813 29.9865L51.3638 31.5949C53.7096 27.514 57.3784 24.3515 61.7671 22.633Z" fill="white"/>
<path d="M61.7671 22.633L61.1085 20.9511V20.9511L61.7671 22.633ZM75.7847 22.2423L76.3487 20.5265L76.3487 20.5265L75.7847 22.2423ZM86.8374 30.8732L88.3654 29.9101L88.3654 29.9101L86.8374 30.8732ZM89.8569 44.5666L91.6483 44.7978L91.6483 44.7977L89.8569 44.5666ZM83.4585 57.0451L84.6918 58.3646V58.3646L83.4585 57.0451ZM70.5776 62.5861L70.6875 64.389L70.6875 64.389L70.5776 62.5861ZM57.1187 58.6496L56.0546 60.1091L56.0546 60.1091L57.1187 58.6496ZM49.2534 47.0402L48.8064 45.2902L47.0565 45.7372L47.5034 47.4871L49.2534 47.0402ZM53.0269 46.0763L54.7769 45.6294L54.3299 43.8793L52.5798 44.3263L53.0269 46.0763ZM59.4126 55.5021L58.3485 56.9616L58.3485 56.9616L59.4126 55.5021ZM70.3403 58.6984L70.4502 60.5013V60.5013L70.3403 58.6984ZM80.7993 54.1994L82.0327 55.5189L82.0327 55.5189L80.7993 54.1994ZM85.9937 44.0685L87.785 44.2997V44.2997L85.9937 44.0685ZM83.5415 32.9504L85.0695 31.9872V31.9872L83.5415 32.9504ZM74.5679 25.9425L75.1319 24.2267L75.1318 24.2266L74.5679 25.9425ZM63.187 26.2599L62.5284 24.5781L62.5284 24.5781L63.187 26.2599ZM54.9331 33.2111L53.3878 32.276L52.3345 34.0166L54.1876 34.8563L54.9331 33.2111ZM58.2456 34.7121L59.0061 36.3504L62.5781 34.6923L58.9911 33.0669L58.2456 34.7121ZM50.4595 38.3263L48.7379 38.8726L49.3586 40.8287L51.22 39.9646L50.4595 38.3263ZM47.813 29.9865L48.5583 28.3412L44.8651 26.6683L46.0914 30.5328L47.813 29.9865ZM51.3638 31.5949L50.6185 33.2402L52.1124 33.9168L52.9297 32.495L51.3638 31.5949ZM61.7671 22.633L62.4257 24.3148C66.5195 22.7117 71.0442 22.5855 75.2207 23.9582L75.7847 22.2423L76.3487 20.5265C71.3738 18.8913 65.9845 19.0418 61.1085 20.9511L61.7671 22.633ZM75.7847 22.2423L75.2207 23.9582C79.3972 25.331 82.965 28.1172 85.3094 31.8364L86.8374 30.8732L88.3654 29.9101C85.573 25.4801 81.3234 22.1616 76.3487 20.5265L75.7847 22.2423ZM86.8374 30.8732L85.3094 31.8363C87.6536 35.5554 88.6283 39.9754 88.0656 44.3354L89.8569 44.5666L91.6483 44.7977C92.3185 39.6045 91.1575 34.3398 88.3654 29.9101L86.8374 30.8732ZM89.8569 44.5666L88.0656 44.3354C87.5028 48.6955 85.4372 52.7234 82.2252 55.7255L83.4585 57.0451L84.6918 58.3646C88.5175 54.789 90.9779 49.9915 91.6483 44.7978L89.8569 44.5666ZM83.4585 57.0451L82.2252 55.7255C79.0134 58.7274 74.8559 60.5158 70.4678 60.7832L70.5776 62.5861L70.6875 64.389C75.9142 64.0704 80.8662 61.9403 84.6918 58.3646L83.4585 57.0451ZM70.5776 62.5861L70.4678 60.7832C66.0795 61.0505 61.7352 59.7799 58.1827 57.1901L57.1187 58.6496L56.0546 60.1091C60.2861 63.194 65.4606 64.7073 70.6875 64.389L70.5776 62.5861ZM57.1187 58.6496L58.1827 57.1901C54.6301 54.6001 52.0913 50.8529 51.0034 46.5933L49.2534 47.0402L47.5034 47.4871C48.7992 52.561 51.8232 57.0242 56.0546 60.1091L57.1187 58.6496ZM49.2534 47.0402L49.7004 48.7902L53.4739 47.8263L53.0269 46.0763L52.5798 44.3263L48.8064 45.2902L49.2534 47.0402ZM53.0269 46.0763L51.2768 46.5233C52.3484 50.7192 54.8493 54.4104 58.3485 56.9616L59.4126 55.5021L60.4767 54.0426C57.6563 51.9863 55.6406 49.0112 54.7769 45.6294L53.0269 46.0763ZM59.4126 55.5021L58.3485 56.9616C61.848 59.5129 66.1275 60.7646 70.4502 60.5013L70.3403 58.6984L70.2305 56.8955C66.7465 57.1078 63.2971 56.0989 60.4766 54.0426L59.4126 55.5021ZM70.3403 58.6984L70.4502 60.5013C74.7728 60.2379 78.8688 58.4761 82.0327 55.5189L80.7993 54.1994L79.566 52.8798C77.0159 55.2632 73.7146 56.6833 70.2305 56.8955L70.3403 58.6984ZM80.7993 54.1994L82.0327 55.5189C85.1963 52.5619 87.2306 48.5947 87.785 44.2997L85.9937 44.0685L84.2023 43.8373C83.7555 47.2988 82.1159 50.4964 79.5659 52.8798L80.7993 54.1994ZM85.9937 44.0685L87.785 44.2997C88.3394 40.0045 87.3787 35.6506 85.0695 31.9872L83.5415 32.9504L82.0135 33.9135C83.8749 36.8664 84.6491 40.3757 84.2023 43.8373L85.9937 44.0685ZM83.5415 32.9504L85.0695 31.9872C82.7603 28.3238 79.2462 25.579 75.1319 24.2267L74.5679 25.9425L74.0039 27.6584C77.3197 28.7483 80.1522 30.9606 82.0135 33.9135L83.5415 32.9504ZM74.5679 25.9425L75.1318 24.2266C71.0177 22.8745 66.5607 22.9991 62.5284 24.5781L63.187 26.2599L63.8456 27.9418C67.0958 26.6691 70.6882 26.5687 74.0039 27.6584L74.5679 25.9425ZM63.187 26.2599L62.5284 24.5781C58.7126 26.0724 55.5027 28.781 53.3878 32.276L54.9331 33.2111L56.4784 34.1462C58.183 31.3293 60.7702 29.1461 63.8456 27.9418L63.187 26.2599ZM54.9331 33.2111L54.1876 34.8563L57.5001 36.3573L58.2456 34.7121L58.9911 33.0669L55.6786 31.5659L54.9331 33.2111ZM58.2456 34.7121L57.4851 33.0738L49.699 36.688L50.4595 38.3263L51.22 39.9646L59.0061 36.3504L58.2456 34.7121ZM50.4595 38.3263L52.1811 37.78L49.5346 29.4402L47.813 29.9865L46.0914 30.5328L48.7379 38.8726L50.4595 38.3263ZM47.813 29.9865L47.0677 31.6318L50.6185 33.2402L51.3638 31.5949L52.109 29.9496L48.5583 28.3412L47.813 29.9865ZM51.3638 31.5949L52.9297 32.495C55.0708 28.7703 58.4196 25.8836 62.4257 24.3148L61.7671 22.633L61.1085 20.9511C56.3372 22.8195 52.3484 26.2578 49.7979 30.6947L51.3638 31.5949Z" fill="white" mask="url(#path-1-outside-1_220_4848)"/>
</svg>
