<svg width="138" height="83" viewBox="0 0 138 83" fill="none" xmlns="http://www.w3.org/2000/svg">
<g clip-path="url(#clip0_238_11243)">
<path d="M77.1249 25.7911C77.1249 25.1835 76.8746 24.6007 76.4293 24.1711C75.9839 23.7414 75.3798 23.5 74.7499 23.5H65.2501C64.6202 23.5 64.0161 23.7414 63.5707 24.1711C63.1254 24.6007 62.8751 25.1835 62.8751 25.7911V39.5378C62.8751 40.1455 62.6249 40.7282 62.1795 41.1579C61.7341 41.5876 61.1301 41.8289 60.5002 41.8289H52.6795C52.3473 41.8289 52.0226 41.9238 51.7464 42.1018C51.4702 42.2798 51.255 42.5328 51.1278 42.8288C51.0007 43.1249 50.9675 43.4506 51.0323 43.7649C51.0971 44.0791 51.2571 44.3678 51.492 44.5943L68.3209 60.8292C68.7663 61.2587 69.3702 61.5 70 61.5C70.6298 61.5 71.2337 61.2587 71.6791 60.8292L88.508 44.5943C88.7429 44.3678 88.9029 44.0791 88.9677 43.7649C89.0325 43.4506 88.9993 43.1249 88.8722 42.8288C88.745 42.5328 88.5298 42.2798 88.2536 42.1018C87.9774 41.9238 87.6527 41.8289 87.3205 41.8289H79.4998C78.8699 41.8289 78.2659 41.5876 77.8205 41.1579C77.3751 40.7282 77.1249 40.1455 77.1249 39.5378V25.7911Z" stroke="white" stroke-width="2" stroke-linecap="round" stroke-linejoin="round"/>
</g>
<defs>
<clipPath id="clip0_238_11243">
<rect width="40" height="40" fill="white" transform="translate(50 22.5)"/>
</clipPath>
</defs>
</svg>
