<svg width="24" height="24" viewBox="0 0 24 24" fill="none" xmlns="http://www.w3.org/2000/svg">
<path d="M11 16H11.01" stroke="#FAFAFA" stroke-width="2" stroke-linecap="round" stroke-linejoin="round"/>
<path d="M15 16H15.01" stroke="#FAFAFA" stroke-width="2" stroke-linecap="round" stroke-linejoin="round"/>
<path d="M2 19C2 19.5304 2.21071 20.0391 2.58579 20.4142C2.96086 20.7893 3.46957 21 4 21H18C18.5304 21 19.0391 20.7893 19.4142 20.4142C19.7893 20.0391 20 19.5304 20 19V8.5C20.0001 8.4103 19.9761 8.32223 19.9304 8.24502C19.8848 8.1678 19.8192 8.10429 19.7405 8.06114C19.6619 8.01798 19.5731 7.99678 19.4835 7.99975C19.3938 8.00271 19.3066 8.02974 19.231 8.078L14.769 10.922C14.6934 10.9703 14.6062 10.9973 14.5165 11.0003C14.4269 11.0032 14.3381 10.982 14.2595 10.9389C14.1808 10.8957 14.1152 10.8322 14.0696 10.755C14.0239 10.6778 13.9999 10.5897 14 10.5V8.5C14.0001 8.4103 13.9761 8.32223 13.9304 8.24502C13.8848 8.1678 13.8192 8.10429 13.7405 8.06114C13.6619 8.01798 13.5731 7.99678 13.4835 7.99975C13.3938 8.00271 13.3066 8.02974 13.231 8.078L8.77 10.922C8.69437 10.9705 8.60707 10.9978 8.51727 11.0009C8.42747 11.004 8.33849 10.9828 8.2597 10.9396C8.1809 10.8965 8.1152 10.8328 8.0695 10.7555C8.0238 10.6781 7.99979 10.5899 8 10.5V5C8 4.46957 7.78929 3.96086 7.41421 3.58579C7.03914 3.21071 6.53043 3 6 3H4C3.46957 3 2.96086 3.21071 2.58579 3.58579C2.21071 3.96086 2 4.46957 2 5V19Z" stroke="#FAFAFA" stroke-width="2" stroke-linecap="round" stroke-linejoin="round"/>
<path d="M7 16H7.01" stroke="#FAFAFA" stroke-width="2" stroke-linecap="round" stroke-linejoin="round"/>
</svg>
