<svg width="138" height="83" viewBox="0 0 138 83" fill="none" xmlns="http://www.w3.org/2000/svg">
<g clip-path="url(#clip0_238_11589)">
<path d="M16.0594 28.8755H27.7554V76.1243H8.74943V68.8248L16.0594 64.9566V28.8755Z" fill="white" stroke="white" stroke-width="1.46871"/>
<path d="M116.937 28.8755H105.241V76.1243H124.247V68.8248L116.937 64.9566V28.8755Z" fill="white" stroke="white" stroke-width="1.46871"/>
<rect x="27.7563" y="33.585" width="2.92399" height="29.8062" fill="white" stroke="white" stroke-width="1.46871"/>
<rect width="2.92399" height="29.8062" transform="matrix(-1 0 0 1 105.241 33.585)" fill="white" stroke="white" stroke-width="1.46871"/>
<mask id="path-5-inside-1_238_11589" fill="white">
<path d="M43.7705 49.3413H89.0928V36.8179H97.8652V71.3306H89.0928V57.2388H43.7705V71.3306H34.999V36.8179H43.7705V49.3413Z"/>
</mask>
<path d="M43.7705 49.3413H89.0928V36.8179H97.8652V71.3306H89.0928V57.2388H43.7705V71.3306H34.999V36.8179H43.7705V49.3413Z" fill="white"/>
<path d="M43.7705 49.3413H42.3018V50.81H43.7705V49.3413ZM89.0928 49.3413V50.81H90.5615V49.3413H89.0928ZM89.0928 36.8179V35.3492H87.6241V36.8179H89.0928ZM97.8652 36.8179H99.3339V35.3492H97.8652V36.8179ZM97.8652 71.3306V72.7993H99.3339V71.3306H97.8652ZM89.0928 71.3306H87.6241V72.7993H89.0928V71.3306ZM89.0928 57.2388H90.5615V55.7701H89.0928V57.2388ZM43.7705 57.2388V55.7701H42.3018V57.2388H43.7705ZM43.7705 71.3306V72.7993H45.2392V71.3306H43.7705ZM34.999 71.3306H33.5303V72.7993H34.999V71.3306ZM34.999 36.8179V35.3492H33.5303V36.8179H34.999ZM43.7705 36.8179H45.2392V35.3492H43.7705V36.8179ZM43.7705 49.3413V50.81H89.0928V49.3413V47.8726H43.7705V49.3413ZM89.0928 49.3413H90.5615V36.8179H89.0928H87.6241V49.3413H89.0928ZM89.0928 36.8179V38.2866H97.8652V36.8179V35.3492H89.0928V36.8179ZM97.8652 36.8179H96.3965V71.3306H97.8652H99.3339V36.8179H97.8652ZM97.8652 71.3306V69.8619H89.0928V71.3306V72.7993H97.8652V71.3306ZM89.0928 71.3306H90.5615V57.2388H89.0928H87.6241V71.3306H89.0928ZM89.0928 57.2388V55.7701H43.7705V57.2388V58.7075H89.0928V57.2388ZM43.7705 57.2388H42.3018V71.3306H43.7705H45.2392V57.2388H43.7705ZM43.7705 71.3306V69.8619H34.999V71.3306V72.7993H43.7705V71.3306ZM34.999 71.3306H36.4677V36.8179H34.999H33.5303V71.3306H34.999ZM34.999 36.8179V38.2866H43.7705V36.8179V35.3492H34.999V36.8179ZM43.7705 36.8179H42.3018V49.3413H43.7705H45.2392V36.8179H43.7705Z" fill="white" mask="url(#path-5-inside-1_238_11589)"/>
<path d="M40.249 15.7498L32.4044 22.3122L32.4044 18.7786L22.7494 18.7786L22.7494 12.7211L32.4044 12.7211L32.4044 9.1875L40.249 15.7498Z" fill="#D24FE8" stroke="#D24FE8" stroke-width="1.46121"/>
<path d="M93.6226 15.7497L101.467 9.18733L101.467 12.7209L111.122 12.7209L111.122 18.7784L101.467 18.7784L101.467 22.312L93.6226 15.7497Z" fill="#D24FE8" stroke="#D24FE8" stroke-width="1.46121"/>
<g clip-path="url(#clip1_238_11589)">
<path d="M61 20C66 20 68 12 73 12C74.0609 12 75.0783 12.4214 75.8284 13.1716C76.5786 13.9217 77 14.9391 77 16C77 17.0609 76.5786 18.0783 75.8284 18.8284C75.0783 19.5786 74.0609 20 73 20C68 20 66 12 61 12C59.9391 12 58.9217 12.4214 58.1716 13.1716C57.4214 13.9217 57 14.9391 57 16C57 17.0609 57.4214 18.0783 58.1716 18.8284C58.9217 19.5786 59.9391 20 61 20Z" stroke="#B81DA8" stroke-width="3" stroke-linecap="round" stroke-linejoin="round"/>
</g>
</g>
<defs>
<clipPath id="clip0_238_11589">
<rect width="138" height="83" fill="white"/>
</clipPath>
<clipPath id="clip1_238_11589">
<rect width="24" height="24" fill="white" transform="translate(55 4)"/>
</clipPath>
</defs>
</svg>
