<svg width="138" height="83" viewBox="0 0 138 83" fill="none" xmlns="http://www.w3.org/2000/svg">
<mask id="path-1-outside-1_259_32" maskUnits="userSpaceOnUse" x="46" y="21" width="45" height="42" fill="black">
<rect fill="white" x="46" y="21" width="45" height="42"/>
<path d="M62.6816 24.2956C66.7576 22.6996 71.2625 22.5743 75.4209 23.9411C79.5795 25.308 83.1315 28.0817 85.4658 31.7848C87.8 35.4879 88.7702 39.8888 88.21 44.2301C87.6496 48.5716 85.5936 52.5828 82.3955 55.5719C79.1975 58.5609 75.0577 60.3419 70.6885 60.6081C66.3191 60.8742 61.9933 59.6088 58.4561 57.03C54.9188 54.4511 52.3908 50.7195 51.3076 46.4782L54.7383 45.6022C55.6177 49.0458 57.6701 52.0758 60.542 54.1696C63.4137 56.2631 66.9254 57.2899 70.4727 57.0739C74.0202 56.8578 77.382 55.4119 79.9785 52.985C82.575 50.5582 84.2443 47.3018 84.6992 43.777C85.1541 40.2523 84.3659 36.6791 82.4707 33.6725C80.5755 30.666 77.6917 28.4141 74.3154 27.3044C70.939 26.1946 67.2811 26.2965 63.9717 27.5925C60.8396 28.819 58.2044 31.0428 56.4688 33.9118L59.4805 35.2751L52.4043 38.5602L50 30.9811L53.2256 32.4421C55.3576 28.7327 58.6926 25.8576 62.6816 24.2956Z"/>
</mask>
<path d="M62.6816 24.2956C66.7576 22.6996 71.2625 22.5743 75.4209 23.9411C79.5795 25.308 83.1315 28.0817 85.4658 31.7848C87.8 35.4879 88.7702 39.8888 88.21 44.2301C87.6496 48.5716 85.5936 52.5828 82.3955 55.5719C79.1975 58.5609 75.0577 60.3419 70.6885 60.6081C66.3191 60.8742 61.9933 59.6088 58.4561 57.03C54.9188 54.4511 52.3908 50.7195 51.3076 46.4782L54.7383 45.6022C55.6177 49.0458 57.6701 52.0758 60.542 54.1696C63.4137 56.2631 66.9254 57.2899 70.4727 57.0739C74.0202 56.8578 77.382 55.4119 79.9785 52.985C82.575 50.5582 84.2443 47.3018 84.6992 43.777C85.1541 40.2523 84.3659 36.6791 82.4707 33.6725C80.5755 30.666 77.6917 28.4141 74.3154 27.3044C70.939 26.1946 67.2811 26.2965 63.9717 27.5925C60.8396 28.819 58.2044 31.0428 56.4688 33.9118L59.4805 35.2751L52.4043 38.5602L50 30.9811L53.2256 32.4421C55.3576 28.7327 58.6926 25.8576 62.6816 24.2956Z" fill="white"/>
<path d="M62.6816 24.2956L61.9524 22.4333L61.9524 22.4333L62.6816 24.2956ZM75.4209 23.9411L76.0454 22.0411L76.0454 22.0411L75.4209 23.9411ZM85.4658 31.7848L87.1577 30.7183L87.1577 30.7183L85.4658 31.7848ZM88.21 44.2301L90.1935 44.4862L90.1935 44.4861L88.21 44.2301ZM82.3955 55.5719L83.7611 57.0331L83.7612 57.0331L82.3955 55.5719ZM70.6885 60.6081L70.8101 62.6044H70.8101L70.6885 60.6081ZM58.4561 57.03L57.2778 58.6461L57.2778 58.6461L58.4561 57.03ZM51.3076 46.4782L50.8128 44.5404L48.8749 45.0352L49.3698 46.9731L51.3076 46.4782ZM54.7383 45.6022L56.6761 45.1073L56.1812 43.1696L54.2435 43.6644L54.7383 45.6022ZM60.542 54.1696L59.3638 55.7857L59.3638 55.7857L60.542 54.1696ZM70.4727 57.0739L70.5942 59.0702L70.5943 59.0702L70.4727 57.0739ZM79.9785 52.985L81.3442 54.4462L81.3442 54.4462L79.9785 52.985ZM84.6992 43.777L86.6828 44.033L86.6828 44.033L84.6992 43.777ZM82.4707 33.6725L84.1626 32.606L84.1626 32.606L82.4707 33.6725ZM74.3154 27.3044L74.9399 25.4044L74.9399 25.4044L74.3154 27.3044ZM63.9717 27.5925L63.2424 25.7301L63.2424 25.7302L63.9717 27.5925ZM56.4688 33.9118L54.7575 32.8766L53.5912 34.8046L55.644 35.7338L56.4688 33.9118ZM59.4805 35.2751L60.3226 37.0891L64.2796 35.2521L60.3052 33.453L59.4805 35.2751ZM52.4043 38.5602L50.4979 39.165L51.1851 41.3313L53.2465 40.3743L52.4043 38.5602ZM50 30.9811L50.8252 29.1593L46.7364 27.3074L48.0936 31.5859L50 30.9811ZM53.2256 32.4421L52.4004 34.2639L54.0547 35.0131L54.9596 33.4387L53.2256 32.4421ZM62.6816 24.2956L63.4108 26.1579C67.0537 24.7315 71.0798 24.6195 74.7964 25.8411L75.4209 23.9411L76.0454 22.0411C71.4451 20.529 66.4616 20.6677 61.9524 22.4333L62.6816 24.2956ZM75.4209 23.9411L74.7964 25.8411C78.513 27.0627 81.6877 29.5417 83.7739 32.8513L85.4658 31.7848L87.1577 30.7183C84.5754 26.6217 80.6459 23.5532 76.0454 22.0411L75.4209 23.9411ZM85.4658 31.7848L83.7739 32.8513C85.86 36.1608 86.7271 40.0941 86.2264 43.9742L88.21 44.2301L90.1935 44.4861C90.8133 39.6836 89.74 34.815 87.1577 30.7183L85.4658 31.7848ZM88.21 44.2301L86.2264 43.9741C85.7256 47.8544 83.888 51.4394 81.0298 54.1108L82.3955 55.5719L83.7612 57.0331C87.2992 53.7262 89.5736 49.2888 90.1935 44.4862L88.21 44.2301ZM82.3955 55.5719L81.0299 54.1108C78.1716 56.7821 74.4717 58.3739 70.5669 58.6118L70.6885 60.6081L70.8101 62.6044C75.6437 62.3099 80.2234 60.3396 83.7611 57.0331L82.3955 55.5719ZM70.6885 60.6081L70.5669 58.6118C66.6618 58.8497 62.7957 57.7187 59.6343 55.4138L58.4561 57.03L57.2778 58.6461C61.1909 61.4989 65.9763 62.8988 70.8101 62.6044L70.6885 60.6081ZM58.4561 57.03L59.6343 55.4138C56.4729 53.1091 54.2135 49.774 53.2454 45.9833L51.3076 46.4782L49.3698 46.9731C50.5681 51.6651 53.3647 55.7932 57.2778 58.6461L58.4561 57.03ZM51.3076 46.4782L51.8024 48.416L55.2331 47.54L54.7383 45.6022L54.2435 43.6644L50.8128 44.5404L51.3076 46.4782ZM54.7383 45.6022L52.8005 46.0971C53.795 49.9913 56.1159 53.4178 59.3638 55.7857L60.542 54.1696L61.7202 52.5535C59.2243 50.7338 57.4405 48.1004 56.6761 45.1073L54.7383 45.6022ZM60.542 54.1696L59.3638 55.7857C62.6115 58.1533 66.5828 59.3145 70.5942 59.0702L70.4727 57.0739L70.3511 55.0776C67.268 55.2653 64.216 54.3729 61.7202 52.5535L60.542 54.1696ZM70.4727 57.0739L70.5943 59.0702C74.606 58.8258 78.4077 57.1908 81.3442 54.4462L79.9785 52.985L78.6128 51.5239C76.3562 53.6331 73.4344 54.8898 70.351 55.0776L70.4727 57.0739ZM79.9785 52.985L81.3442 54.4462C84.2805 51.7016 86.1683 48.0191 86.6828 44.033L84.6992 43.777L82.7157 43.521C82.3202 46.5846 80.8694 49.4147 78.6128 51.5239L79.9785 52.985ZM84.6992 43.777L86.6828 44.033C87.1972 40.0468 86.3058 36.006 84.1626 32.606L82.4707 33.6725L80.7788 34.739C82.426 37.3521 83.111 40.4577 82.7157 43.5211L84.6992 43.777ZM82.4707 33.6725L84.1626 32.606C82.0193 29.2061 78.7582 26.6594 74.9399 25.4044L74.3154 27.3044L73.6909 29.2044C76.6253 30.1689 79.1316 32.126 80.7788 34.7391L82.4707 33.6725ZM74.3154 27.3044L74.9399 25.4044C71.1216 24.1493 66.985 24.2646 63.2424 25.7301L63.9717 27.5925L64.7009 29.4548C67.5773 28.3284 70.7565 28.2398 73.6909 29.2044L74.3154 27.3044ZM63.9717 27.5925L63.2424 25.7302C59.7004 27.1172 56.7203 29.632 54.7575 32.8766L56.4688 33.9118L58.18 34.947C59.6884 32.4536 61.9788 30.5208 64.701 29.4547L63.9717 27.5925ZM56.4688 33.9118L55.644 35.7338L58.6557 37.0971L59.4805 35.2751L60.3052 33.453L57.2935 32.0898L56.4688 33.9118ZM59.4805 35.2751L58.6383 33.461L51.5621 36.7462L52.4043 38.5602L53.2465 40.3743L60.3226 37.0891L59.4805 35.2751ZM52.4043 38.5602L54.3107 37.9555L51.9064 30.3764L50 30.9811L48.0936 31.5859L50.4979 39.165L52.4043 38.5602ZM50 30.9811L49.1748 32.803L52.4004 34.2639L53.2256 32.4421L54.0507 30.6202L50.8252 29.1593L50 30.9811ZM53.2256 32.4421L54.9596 33.4387C56.8649 30.1236 59.8455 27.554 63.4109 26.1579L62.6816 24.2956L61.9524 22.4333C57.5396 24.1613 53.8502 27.3417 51.4916 31.4454L53.2256 32.4421Z" fill="white" mask="url(#path-1-outside-1_259_32)"/>
</svg>
