<svg width="138" height="83" viewBox="0 0 138 83" fill="none" xmlns="http://www.w3.org/2000/svg">
<mask id="path-1-outside-1_259_509" maskUnits="userSpaceOnUse" x="48.3652" y="21" width="42" height="41" fill="black">
<rect fill="white" x="48.3652" y="21" width="42" height="41"/>
<path fill-rule="evenodd" clip-rule="evenodd" d="M79.9089 57.0299C83.4461 54.4511 85.9739 50.7199 87.0571 46.4785L83.627 45.6026C82.7476 49.0462 80.6953 52.0755 77.8234 54.1693C74.9514 56.2631 71.4395 57.2903 67.8919 57.0742C64.3444 56.8581 60.9831 55.4122 58.3866 52.9853C55.79 50.5584 54.1206 47.3023 53.6656 43.7774C53.2107 40.2525 53.9986 36.6793 55.8938 33.6726C57.7891 30.666 60.673 28.414 64.0495 27.3042C67.4259 26.1944 71.0835 26.2962 74.393 27.5922C77.5252 28.8187 80.1601 31.0423 81.8958 33.9114L78.8842 35.2754L85.9608 38.5604L88.3652 30.9813L85.1391 32.4424C83.0071 28.733 79.673 25.8579 75.6838 24.2958C71.6077 22.6996 67.1027 22.5742 62.944 23.9411C58.7854 25.308 55.2333 28.0817 52.899 31.7849C50.5648 35.4881 49.5943 39.8891 50.1547 44.2306C50.715 48.5721 52.7712 52.5825 55.9692 55.5716C59.1673 58.5607 63.3073 60.3416 67.6767 60.6077C72.0461 60.8739 76.3716 59.6087 79.9089 57.0299Z"/>
</mask>
<path fill-rule="evenodd" clip-rule="evenodd" d="M79.9089 57.0299C83.4461 54.4511 85.9739 50.7199 87.0571 46.4785L83.627 45.6026C82.7476 49.0462 80.6953 52.0755 77.8234 54.1693C74.9514 56.2631 71.4395 57.2903 67.8919 57.0742C64.3444 56.8581 60.9831 55.4122 58.3866 52.9853C55.79 50.5584 54.1206 47.3023 53.6656 43.7774C53.2107 40.2525 53.9986 36.6793 55.8938 33.6726C57.7891 30.666 60.673 28.414 64.0495 27.3042C67.4259 26.1944 71.0835 26.2962 74.393 27.5922C77.5252 28.8187 80.1601 31.0423 81.8958 33.9114L78.8842 35.2754L85.9608 38.5604L88.3652 30.9813L85.1391 32.4424C83.0071 28.733 79.673 25.8579 75.6838 24.2958C71.6077 22.6996 67.1027 22.5742 62.944 23.9411C58.7854 25.308 55.2333 28.0817 52.899 31.7849C50.5648 35.4881 49.5943 39.8891 50.1547 44.2306C50.715 48.5721 52.7712 52.5825 55.9692 55.5716C59.1673 58.5607 63.3073 60.3416 67.6767 60.6077C72.0461 60.8739 76.3716 59.6087 79.9089 57.0299Z" fill="white"/>
<path d="M87.0571 46.4785L87.3279 45.4182L88.3882 45.689L88.1174 46.7493L87.0571 46.4785ZM83.627 45.6026L82.5667 45.3318L82.8375 44.2714L83.8978 44.5422L83.627 45.6026ZM77.8234 54.1693L77.1787 53.285H77.1787L77.8234 54.1693ZM58.3866 52.9853L59.1338 52.1858V52.1858L58.3866 52.9853ZM53.6656 43.7774L52.5803 43.9175V43.9175L53.6656 43.7774ZM55.8938 33.6726L54.968 33.0891V33.0891L55.8938 33.6726ZM74.393 27.5922L74.792 26.5731H74.792L74.393 27.5922ZM81.8958 33.9114L82.8322 33.3449L83.4703 34.3997L82.3473 34.9083L81.8958 33.9114ZM78.8842 35.2754L78.4234 36.2681L76.2586 35.2632L78.4327 34.2785L78.8842 35.2754ZM85.9608 38.5604L87.004 38.8913L86.6279 40.0766L85.5 39.553L85.9608 38.5604ZM88.3652 30.9813L87.9137 29.9844L90.1511 28.971L89.4084 31.3122L88.3652 30.9813ZM85.1391 32.4424L85.5906 33.4393L84.6854 33.8493L84.1903 32.9878L85.1391 32.4424ZM75.6838 24.2958L76.0828 23.2767L76.0828 23.2767L75.6838 24.2958ZM52.899 31.7849L53.8248 32.3685V32.3685L52.899 31.7849ZM50.1547 44.2306L49.0693 44.3707V44.3707L50.1547 44.2306ZM55.9692 55.5716L56.7165 54.7721V54.7721L55.9692 55.5716ZM87.0571 46.4785L88.1174 46.7493C86.9712 51.2373 84.2965 55.1854 80.5536 57.9142L79.9089 57.0299L79.2642 56.1456C82.5957 53.7167 84.9765 50.2025 85.9967 46.2077L87.0571 46.4785ZM83.627 45.6026L83.8978 44.5422L87.3279 45.4182L87.0571 46.4785L86.7863 47.5389L83.3562 46.6629L83.627 45.6026ZM77.8234 54.1693L77.1787 53.285C79.8449 51.3412 81.7502 48.5287 82.5667 45.3318L83.627 45.6026L84.6874 45.8734C83.7449 49.5636 81.5457 52.8099 78.4681 55.0536L77.8234 54.1693ZM67.8919 57.0742L67.9585 55.9818C71.252 56.1825 74.5124 55.2288 77.1787 53.285L77.8234 54.1693L78.4681 55.0536C75.3905 57.2973 71.627 58.3981 67.8254 58.1665L67.8919 57.0742ZM58.3866 52.9853L59.1338 52.1858C61.5444 54.4388 64.665 55.7812 67.9585 55.9818L67.8919 57.0742L67.8254 58.1665C64.0238 57.935 60.4218 56.3855 57.6393 53.7848L58.3866 52.9853ZM53.6656 43.7774L54.751 43.6373C55.1734 46.9098 56.7232 49.9327 59.1338 52.1858L58.3866 52.9853L57.6393 53.7848C54.8568 51.1841 53.0678 47.6949 52.5803 43.9175L53.6656 43.7774ZM55.8938 33.6726L56.8196 34.2562C55.0601 37.0475 54.3286 40.3649 54.751 43.6373L53.6656 43.7774L52.5803 43.9175C52.0927 40.1402 52.9371 36.3111 54.968 33.0891L55.8938 33.6726ZM64.0495 27.3042L64.3912 28.3439C61.2566 29.3742 58.5791 31.4649 56.8196 34.2562L55.8938 33.6726L54.968 33.0891C56.999 29.8671 60.0895 27.4538 63.7077 26.2645L64.0495 27.3042ZM74.393 27.5922L73.994 28.6112C70.9215 27.4081 67.5258 27.3135 64.3912 28.3439L64.0495 27.3042L63.7077 26.2645C67.326 25.0753 71.2456 25.1844 74.792 26.5731L74.393 27.5922ZM81.8958 33.9114L80.9594 34.4779C79.3481 31.8142 76.9019 29.7499 73.994 28.6112L74.393 27.5922L74.792 26.5731C78.1486 27.8875 80.9722 30.2703 82.8322 33.3449L81.8958 33.9114ZM78.8842 35.2754L78.4327 34.2785L81.4443 32.9145L81.8958 33.9114L82.3473 34.9083L79.3357 36.2723L78.8842 35.2754ZM85.9608 38.5604L85.5 39.553L78.4234 36.2681L78.8842 35.2754L79.345 34.2828L86.4216 37.5677L85.9608 38.5604ZM88.3652 30.9813L89.4084 31.3122L87.004 38.8913L85.9608 38.5604L84.9177 38.2294L87.3221 30.6503L88.3652 30.9813ZM85.1391 32.4424L84.6876 31.4455L87.9137 29.9844L88.3652 30.9813L88.8167 31.9782L85.5906 33.4393L85.1391 32.4424ZM75.6838 24.2958L76.0828 23.2767C80.3039 24.9296 83.832 27.9719 86.0879 31.8971L85.1391 32.4424L84.1903 32.9878C82.1823 29.494 79.042 26.7861 75.2848 25.3148L75.6838 24.2958ZM62.944 23.9411L62.6023 22.9014C67.0027 21.4551 71.7697 21.5878 76.0828 23.2767L75.6838 24.2958L75.2848 25.3148C71.4457 23.8115 67.2026 23.6933 63.2858 24.9808L62.944 23.9411ZM52.899 31.7849L51.9732 31.2013C54.4433 27.2828 58.2019 24.3478 62.6023 22.9014L62.944 23.9411L63.2858 24.9808C59.369 26.2682 56.0234 28.8806 53.8248 32.3685L52.899 31.7849ZM50.1547 44.2306L49.0693 44.3707C48.4763 39.7768 49.5032 35.1198 51.9732 31.2013L52.899 31.7849L53.8248 32.3685C51.6263 35.8563 50.7122 40.0015 51.24 44.0905L50.1547 44.2306ZM55.9692 55.5716L55.222 56.3711C51.8379 53.2082 49.6622 48.9646 49.0693 44.3707L50.1547 44.2306L51.24 44.0905C51.7678 48.1796 53.7044 51.9568 56.7165 54.7721L55.9692 55.5716ZM67.6767 60.6077L67.6102 61.7001C62.9867 61.4184 58.606 59.534 55.222 56.3711L55.9692 55.5716L56.7165 54.7721C59.7286 57.5874 63.6279 59.2647 67.7432 59.5154L67.6767 60.6077ZM79.9089 57.0299L80.5536 57.9142C76.8107 60.643 72.2336 61.9817 67.6102 61.7001L67.6767 60.6077L67.7432 59.5154C71.8586 59.7661 75.9326 58.5745 79.2642 56.1456L79.9089 57.0299Z" fill="white" mask="url(#path-1-outside-1_259_509)"/>
</svg>
