<svg width="138" height="83" viewBox="0 0 138 83" fill="none" xmlns="http://www.w3.org/2000/svg">
<g clip-path="url(#clip0_238_11121)">
<path d="M62.8751 59.2089C62.8751 59.8165 63.1254 60.3993 63.5707 60.8289C64.0161 61.2586 64.6202 61.5 65.2501 61.5H74.7499C75.3798 61.5 75.9839 61.2586 76.4293 60.8289C76.8746 60.3993 77.1249 59.8165 77.1249 59.2089V45.4622C77.1249 44.8545 77.3751 44.2718 77.8205 43.8421C78.2659 43.4124 78.8699 43.1711 79.4998 43.1711H87.3205C87.6527 43.1711 87.9774 43.0762 88.2536 42.8982C88.5298 42.7202 88.745 42.4672 88.8722 42.1712C88.9993 41.8751 89.0325 41.5494 88.9677 41.2351C88.9029 40.9209 88.7429 40.6322 88.508 40.4057L71.6791 24.1708C71.2337 23.7413 70.6298 23.5 70 23.5C69.3702 23.5 68.7663 23.7413 68.3209 24.1708L51.492 40.4057C51.2571 40.6322 51.0971 40.9209 51.0323 41.2351C50.9675 41.5494 51.0007 41.8751 51.1278 42.1712C51.255 42.4672 51.4702 42.7202 51.7464 42.8982C52.0226 43.0762 52.3473 43.1711 52.6795 43.1711H60.5002C61.1301 43.1711 61.7341 43.4124 62.1795 43.8421C62.6249 44.2718 62.8751 44.8545 62.8751 45.4622V59.2089Z" stroke="white" stroke-width="2" stroke-linecap="round" stroke-linejoin="round"/>
</g>
<defs>
<clipPath id="clip0_238_11121">
<rect width="40" height="40" fill="white" transform="translate(50 22.5)"/>
</clipPath>
</defs>
</svg>
