<svg width="24" height="24" viewBox="0 0 24 24" fill="none" xmlns="http://www.w3.org/2000/svg">
<g clip-path="url(#clip0_268_5896)">
<path d="M10.8 19.6C11.0535 19.7901 11.3486 19.9173 11.6609 19.971C11.9732 20.0248 12.2938 20.0035 12.5963 19.909C12.8988 19.8145 13.1745 19.6495 13.4007 19.4276C13.6269 19.2056 13.7972 18.9331 13.8974 18.6325C13.9976 18.3318 14.0249 18.0117 13.9771 17.6984C13.9293 17.3851 13.8078 17.0877 13.6225 16.8306C13.4372 16.5735 13.1935 16.3641 12.9114 16.2197C12.6293 16.0753 12.3169 16 12 16H0" stroke="#FAFAFA" stroke-width="2" stroke-linecap="round" stroke-linejoin="round"/>
<path d="M15.5 8C15.7557 7.65909 16.0943 7.38919 16.4836 7.21594C16.8729 7.04269 17.3001 6.97183 17.7245 7.0101C18.1489 7.04837 18.5565 7.1945 18.9086 7.4346C19.2606 7.6747 19.5455 8.00081 19.7361 8.38197C19.9266 8.76312 20.0166 9.18666 19.9975 9.61237C19.9783 10.0381 19.8507 10.4518 19.6266 10.8143C19.4026 11.1768 19.0896 11.476 18.7174 11.6836C18.3452 11.8911 17.9261 12 17.5 12H0" stroke="#FAFAFA" stroke-width="2" stroke-linecap="round" stroke-linejoin="round"/>
<path d="M7.8 4.4C8.05352 4.20986 8.3486 4.08268 8.66092 4.02895C8.97323 3.97523 9.29385 3.99648 9.59634 4.09097C9.89882 4.18546 10.1745 4.35048 10.4007 4.57243C10.6269 4.79438 10.7972 5.0669 10.8974 5.36754C10.9976 5.66819 11.0249 5.98834 10.9771 6.30162C10.9293 6.6149 10.8078 6.91233 10.6225 7.16942C10.4372 7.42651 10.1935 7.63588 9.91136 7.78029C9.62927 7.92469 9.3169 8 9 8H0" stroke="#FAFAFA" stroke-width="2" stroke-linecap="round" stroke-linejoin="round"/>
</g>
<defs>
<clipPath id="clip0_268_5896">
<rect width="24" height="24" fill="white"/>
</clipPath>
</defs>
</svg>
